<svg xmlns="http://www.w3.org/2000/svg" xmlns:xlink="http://www.w3.org/1999/xlink" width="500" zoomAndPan="magnify" viewBox="0 0 375 374.999991" height="500" preserveAspectRatio="xMidYMid meet" version="1.0"><defs><g/><clipPath id="f2b27e0647"><path d="M 80.125 145.417969 L 294.625 145.417969 L 294.625 236.917969 L 80.125 236.917969 Z M 80.125 145.417969 " clip-rule="nonzero"/></clipPath><clipPath id="73727edad8"><path d="M 126 116.070312 L 139 116.070312 L 139 131 L 126 131 Z M 126 116.070312 " clip-rule="nonzero"/></clipPath><clipPath id="e8360c7580"><path d="M 125 116.070312 L 140 116.070312 L 140 132 L 125 132 Z M 125 116.070312 " clip-rule="nonzero"/></clipPath><clipPath id="f31db95ed2"><path d="M 114 116.070312 L 167 116.070312 L 167 158 L 114 158 Z M 114 116.070312 " clip-rule="nonzero"/></clipPath><clipPath id="2afc9a1813"><path d="M 54.011719 215 L 113 215 L 113 238 L 54.011719 238 Z M 54.011719 215 " clip-rule="nonzero"/></clipPath><clipPath id="2f2290b933"><path d="M 60 237 L 147 237 L 147 249.570312 L 60 249.570312 Z M 60 237 " clip-rule="nonzero"/></clipPath><clipPath id="e3d0a04f8d"><path d="M 60 236 L 148 236 L 148 249.570312 L 60 249.570312 Z M 60 236 " clip-rule="nonzero"/></clipPath><clipPath id="8362c3edd1"><path d="M 54.011719 234 L 63 234 L 63 242 L 54.011719 242 Z M 54.011719 234 " clip-rule="nonzero"/></clipPath><clipPath id="82330fac02"><path d="M 54.011719 234 L 64 234 L 64 243 L 54.011719 243 Z M 54.011719 234 " clip-rule="nonzero"/></clipPath><clipPath id="f5d5286a00"><path d="M 143 242 L 277 242 L 277 249.570312 L 143 249.570312 Z M 143 242 " clip-rule="nonzero"/></clipPath><clipPath id="40450f170d"><path d="M 143 241 L 277 241 L 277 249.570312 L 143 249.570312 Z M 143 241 " clip-rule="nonzero"/></clipPath><clipPath id="5bad2b44d5"><path d="M 313 218 L 321.011719 218 L 321.011719 233 L 313 233 Z M 313 218 " clip-rule="nonzero"/></clipPath></defs><path fill="#112241" d="M 173.304688 357.28125 C 169.28125 357.105469 165.300781 356.3125 161.347656 355.582031 C 157.425781 354.617188 153.503906 353.769531 149.671875 352.554688 C 148.382812 351.324219 146.949219 350.5625 145.398438 350.007812 C 143.875 349.40625 142.253906 348.96875 140.597656 348.527344 C 137.6875 347.8125 134.746094 346.742188 132.34375 344.402344 C 149.394531 350.359375 167.6875 353.636719 186.753906 353.636719 C 190.207031 353.636719 193.632812 353.488281 197.027344 353.285156 C 189.460938 356.8125 181.308594 357.878906 173.304688 357.28125 Z M 94.078125 326.125 L 91.691406 324.824219 C 90.125 323.929688 88.546875 323.007812 87.023438 322.011719 C 78.816406 316.378906 70.914062 310.175781 63.523438 303.3125 C 54.421875 294.941406 45.433594 285.851562 38.996094 274.996094 C 37.882812 273.019531 36.683594 271.101562 35.675781 269.066406 L 32.675781 262.964844 C 30.875 258.808594 29.089844 254.636719 27.667969 250.351562 C 24.757812 241.789062 22.472656 233.039062 20.980469 224.171875 C 20.804688 223.367188 21.550781 222.371094 23 218.875 C 27.464844 230.464844 29.191406 240.09375 33.15625 249.019531 C 33.390625 249.53125 33.625 250.058594 33.859375 250.570312 C 46.957031 282.894531 70.003906 310.128906 99.214844 328.453125 L 96.535156 327.265625 Z M 19.328125 127.074219 C 19.066406 126.753906 18.800781 126.269531 18.859375 125.917969 C 19.078125 124.734375 19.253906 123.476562 19.765625 122.394531 C 24.773438 111.796875 30.875 101.804688 37.707031 92.671875 C 40.578125 94.089844 40.957031 95.6875 39.933594 97.089844 C 33.097656 106.734375 27.039062 117.035156 21.949219 128.566406 C 19.988281 127.484375 19.5625 127.355469 19.328125 127.074219 Z M 116.378906 14.46875 L 116.714844 15.289062 C 115.339844 15.828125 113.964844 16.339844 112.632812 16.972656 L 112.28125 16.167969 C 113.613281 15.535156 115.003906 15.023438 116.378906 14.46875 Z M 353.621094 188.699219 C 352.921875 190.101562 352.234375 191.421875 351.574219 192.707031 C 351.617188 191.375 351.675781 190.046875 351.675781 188.699219 C 351.675781 97.601562 277.835938 23.761719 186.753906 23.761719 C 185.128906 23.761719 183.550781 23.835938 181.9375 23.894531 C 181.792969 23.527344 181.660156 23.191406 181.53125 22.867188 C 184.222656 21.875 187.046875 22.078125 189.929688 22.488281 C 192.839844 22.839844 195.8125 23.117188 199.046875 22.296875 C 197.730469 20.542969 197.144531 19.09375 196.339844 18.917969 C 193.691406 18.347656 190.9375 18.242188 188.21875 18.1875 C 180.035156 18.300781 171.855469 18.757812 163.777344 20.058594 C 155.699219 21.273438 147.679688 23.015625 139.894531 25.457031 C 138.796875 25.796875 137.746094 26.320312 136.734375 26.90625 C 135.214844 27.84375 134.890625 29.980469 135.550781 31.910156 C 115.003906 38.613281 96.242188 49.238281 80.132812 62.90625 C 80.425781 62.597656 80.6875 62.277344 80.996094 61.984375 C 86.746094 56.453125 93.097656 51.535156 99.667969 46.910156 C 103.386719 44.367188 107.015625 41.585938 110.90625 39.199219 L 110.175781 37.839844 C 103.179688 40.621094 96.433594 44.058594 89.820312 47.804688 L 89.351562 47.074219 C 101.132812 38.484375 114.082031 31.472656 127.722656 26.058594 C 125.613281 25.105469 123.800781 25.339844 122.175781 25.984375 C 102.066406 34.328125 83.496094 46.398438 68.160156 61.648438 C 60.945312 68.820312 53.410156 75.273438 45.332031 81.84375 C 45.917969 79.75 46.925781 77.964844 48.199219 76.414062 C 54.316406 69.199219 61.503906 63.054688 68.015625 56.351562 C 73.589844 50.65625 79.941406 45.726562 86.21875 40.75 C 87.800781 39.507812 89.410156 38.320312 90.976562 37.046875 C 92.542969 35.777344 94.09375 34.503906 95.671875 33.242188 C 97.238281 31.957031 98.773438 30.625 100.28125 29.203125 C 101.832031 27.875 103.355469 26.46875 104.832031 24.976562 C 105.742188 24.097656 106.792969 23.292969 107.921875 22.75 C 116.496094 18.230469 125.101562 13.589844 134.21875 9.828125 C 143.304688 6.023438 152.992188 3.363281 162.972656 3.023438 C 164.027344 2.996094 165.050781 2.5 167.863281 1.796875 C 163.953125 1.488281 160.441406 1.957031 157.179688 2.21875 C 153.914062 2.570312 150.855469 2.570312 147.652344 1.269531 C 158.175781 -1.277344 168.945312 -2.945312 179.789062 -3.734375 C 177.300781 -4.46875 174.8125 -4.671875 172.355469 -4.6875 C 169.894531 -4.671875 167.4375 -4.585938 165.023438 -4.144531 C 137.570312 -0.296875 111.039062 9.523438 88.152344 24.523438 C 78.945312 30.59375 70.691406 37.957031 63.246094 45.859375 C 62.074219 47.117188 60.933594 48.449219 59.980469 49.925781 C 59.042969 51.40625 58.253906 52.96875 57.667969 54.566406 C 55.167969 61.382812 50.734375 66.097656 45.714844 70.765625 C 44.132812 72.183594 42.640625 73.691406 41.101562 75.15625 C 39.582031 76.648438 38.058594 78.15625 36.757812 79.835938 C 30.773438 87.082031 25.445312 94.894531 20.660156 103.078125 C 18.214844 107.144531 16.109375 111.386719 13.957031 115.648438 C 12.027344 119.976562 10.035156 124.324219 8.441406 128.816406 C 6.757812 133.046875 5.691406 137.496094 4.59375 141.914062 C 3.730469 146.378906 2.820312 150.839844 2.265625 155.347656 L 1.664062 159.839844 C 1.503906 161.347656 1.417969 162.855469 1.3125 164.363281 C 1.09375 167.363281 0.90625 170.378906 0.90625 173.378906 C 0.582031 182.816406 1.152344 192.226562 2.308594 201.503906 C 3.390625 210.796875 5.367188 219.957031 7.882812 228.898438 C 8.117188 229.71875 8.441406 230.492188 8.691406 231.296875 C 11.441406 239.726562 14.777344 247.890625 18.757812 255.707031 C 22.664062 263.535156 27.039062 271.058594 31.855469 278.257812 C 41.761719 293.390625 53.324219 307.511719 67.238281 318.835938 C 76.984375 326.785156 88.078125 332.914062 99.476562 337.539062 C 110.308594 341.871094 118.035156 349.273438 127.222656 357.996094 C 124.648438 357.175781 122.394531 356.152344 120.167969 355.304688 C 119.058594 354.867188 117.988281 354.441406 116.921875 354.015625 C 115.851562 353.5625 114.8125 353.125 113.773438 352.683594 C 111.125 351.601562 108.402344 350.226562 105.636719 349.992188 C 100.339844 349.699219 95.9375 347.3125 91.632812 344.679688 C 79.914062 337.246094 69.082031 328.480469 59.324219 318.691406 C 58.957031 318.308594 58.328125 318.207031 57.011719 317.476562 C 58.738281 319.4375 60.023438 320.519531 60.960938 321.882812 C 61.75 322.992188 63.828125 323.785156 61.679688 326.59375 C 46.621094 312.207031 34.109375 295.453125 24.113281 277.378906 C 14.222656 259.21875 6.625 239.875 1.210938 219.546875 C 1.417969 221.683594 1.710938 223.835938 2.058594 225.957031 C 2.425781 228.078125 2.953125 230.183594 3.421875 232.292969 C 9.742188 260.039062 22.53125 286.378906 40.605469 308.417969 C 49.664062 319.40625 60.097656 329.257812 71.554688 337.65625 C 77.25 341.886719 83.308594 345.632812 89.46875 349.101562 C 92.628906 350.710938 95.730469 352.40625 98.949219 353.871094 C 102.183594 355.273438 105.375 356.796875 108.695312 357.96875 C 117.300781 361.347656 126.15625 363.96875 135.082031 365.972656 C 143.992188 368.050781 153.066406 369.234375 162.109375 369.734375 C 173.4375 370.332031 184.820312 369.703125 195.664062 367.203125 C 204.722656 365.050781 213.488281 362.386719 222.007812 359.371094 C 230.507812 356.269531 238.746094 352.789062 246.839844 349.101562 C 259.015625 343.4375 270.445312 336.515625 281.140625 328.757812 C 283.4375 326.972656 286.089844 325.640625 288.648438 324.164062 C 291.136719 322.597656 293.667969 321.046875 295.601562 318.882812 C 303.5625 310.042969 313.101562 303.425781 321.355469 294.824219 C 319.335938 298 317.007812 300.953125 314.710938 303.953125 C 313.539062 305.433594 312.28125 306.824219 311.039062 308.257812 C 309.808594 309.675781 308.550781 311.097656 307.203125 312.414062 C 305.84375 313.789062 304.378906 315.089844 302.902344 316.394531 C 301.351562 317.621094 299.785156 318.882812 298.160156 320.167969 C 296.609375 321.5 294.941406 322.804688 293.316406 324.296875 C 291.691406 325.789062 290.113281 327.472656 288.472656 329.285156 C 291.824219 329.738281 293.683594 330.472656 294.738281 329.871094 C 297.765625 328.171875 300.957031 326.5625 303.882812 324.617188 C 305.359375 323.667969 306.839844 322.699219 308.214844 321.617188 C 309.589844 320.503906 310.890625 319.347656 312.121094 318.105469 C 326.007812 303.835938 337.175781 287.039062 344.726562 268.921875 C 348.207031 260.652344 350.945312 252.105469 352.804688 243.414062 C 354.691406 234.75 356.023438 226.03125 356.550781 217.292969 C 356.753906 215.316406 356.8125 213.34375 356.871094 211.351562 C 356.929688 209.375 357.0625 207.414062 357.0625 205.441406 C 356.972656 201.488281 357.019531 197.566406 356.59375 193.660156 C 356.476562 192.429688 355.246094 191.273438 353.621094 188.699219 " fill-opacity="1" fill-rule="nonzero"/><path fill="#112241" d="M 324.414062 66.109375 C 322.292969 63.636719 319.964844 61.355469 317.742188 58.96875 L 318.339844 58.355469 C 320.578125 60.753906 322.921875 63.039062 325.058594 65.527344 Z M 373.980469 166 C 373.203125 156.476562 371.460938 147.023438 369.03125 137.742188 C 367.875 133.074219 366.355469 128.523438 364.832031 123.972656 C 363.121094 119.496094 361.453125 114.988281 359.386719 110.65625 C 348.371094 86.453125 332.109375 64.558594 311.726562 47.671875 C 297.824219 36.039062 281.828125 26.453125 264.386719 22.328125 C 251.945312 19.386719 240.136719 15.859375 227.960938 12.976562 C 216.546875 10.253906 204.8125 9.171875 193.179688 8.996094 C 195.226562 9.363281 197.273438 9.710938 199.308594 10.078125 C 201.34375 10.429688 203.378906 10.679688 205.410156 10.957031 C 209.464844 11.671875 213.546875 12.054688 217.585938 12.828125 C 226.515625 14.277344 235.351562 16.371094 243.929688 19.3125 C 245.480469 19.839844 247.03125 20.425781 248.246094 21.417969 C 249.445312 22.445312 250.335938 23.863281 250.628906 25.957031 C 251.199219 30.125 254.230469 30.828125 257.40625 31.882812 C 263.828125 33.800781 270.429688 36.023438 275.933594 39.859375 C 287.640625 48.257812 298.058594 57.769531 308.886719 67.0625 C 312.121094 69.945312 314.785156 73.457031 317.375 76.925781 C 321.035156 81.609375 324.195312 86.628906 327.429688 91.542969 C 328.160156 92.597656 329.769531 93.082031 330.925781 93.886719 C 329.214844 87.796875 325.890625 82.925781 322.304688 78.332031 C 320.300781 75.8125 318.164062 73.414062 316.058594 70.984375 C 313.820312 68.671875 311.667969 66.285156 309.355469 64.046875 C 305.054688 59.820312 300.574219 55.765625 295.921875 51.917969 C 293.550781 49.941406 290.917969 48.273438 288.371094 46.515625 C 287.125 45.625 285.925781 44.65625 284.828125 43.546875 C 283.703125 42.476562 282.664062 41.277344 281.785156 39.84375 C 290.828125 44 299.652344 48.917969 307.9375 54.800781 C 316.175781 60.695312 323.871094 67.515625 330.648438 75.226562 C 337.292969 82.835938 343.128906 91.222656 347.972656 100.148438 C 352.816406 109.074219 356.796875 118.472656 360.03125 128.070312 C 360.808594 130.527344 361.628906 132.972656 362.183594 135.476562 C 362.753906 137.992188 363.265625 140.496094 363.734375 143.011719 C 364.101562 145.542969 364.421875 148.089844 364.730469 150.621094 C 365.039062 153.136719 365.109375 155.699219 365.300781 158.230469 C 365.84375 168.371094 365.59375 178.351562 365.609375 188.273438 C 369.734375 189.460938 372.03125 188.070312 372.53125 185.246094 C 373.054688 182.097656 373.6875 178.910156 373.890625 175.6875 C 374.167969 172.457031 374.34375 169.207031 373.980469 166 " fill-opacity="1" fill-rule="nonzero"/><path fill="#112241" d="M 265.980469 13.765625 C 257.597656 8.644531 249.167969 3.726562 237.957031 1.796875 C 240.253906 3.59375 240.8125 4.371094 241.570312 4.589844 C 249.882812 7.167969 258.09375 10.109375 265.980469 13.765625 " fill-opacity="1" fill-rule="nonzero"/><path fill="#112241" d="M 160.265625 13.457031 C 158.773438 13.679688 157.28125 13.972656 155.789062 14.21875 L 155.949219 15.128906 C 157.398438 14.878906 158.847656 14.601562 160.296875 14.378906 L 164.671875 13.824219 L 169.03125 13.285156 L 173.421875 12.945312 L 173.773438 11.996094 L 169.265625 12.347656 C 167.757812 12.476562 166.265625 12.710938 164.757812 12.886719 L 160.265625 13.457031 " fill-opacity="1" fill-rule="nonzero"/><path fill="#112241" d="M 210.167969 18.859375 C 209.363281 18.933594 208.585938 19.167969 207.796875 19.339844 C 208.777344 19.457031 209.773438 19.589844 210.988281 19.75 C 210.578125 19.28125 210.359375 18.828125 210.167969 18.859375 " fill-opacity="1" fill-rule="nonzero"/><path fill="#112241" d="M 208.484375 23.90625 C 208.585938 24.199219 208.675781 24.726562 208.820312 24.742188 C 209.449219 24.800781 210.109375 24.699219 210.753906 24.667969 C 210.636719 24.375 210.546875 23.878906 210.402344 23.847656 C 209.773438 23.789062 209.113281 23.878906 208.484375 23.90625 " fill-opacity="1" fill-rule="nonzero"/><path fill="#112241" d="M 227.273438 22.621094 L 228.152344 22.664062 L 227.566406 22.0625 Z M 227.273438 22.621094 " fill-opacity="1" fill-rule="nonzero"/><g clip-path="url(#f2b27e0647)"><path fill="#112241" d="M 288.226562 216.128906 C 285.503906 225.394531 281.347656 234.191406 276.191406 242.289062 C 271.933594 248.878906 267.089844 255.074219 261.648438 260.707031 C 260.945312 261.476562 260.160156 262.167969 259.410156 262.894531 C 258.652344 263.605469 257.914062 264.34375 257.136719 265.039062 L 254.777344 267.089844 L 253.601562 268.117188 L 252.375 269.089844 L 249.933594 271.042969 C 249.105469 271.675781 248.25 272.273438 247.414062 272.890625 C 245.757812 274.160156 243.996094 275.277344 242.269531 276.449219 C 242.019531 276.617188 241.757812 276.792969 241.484375 276.976562 C 241.203125 277.144531 240.914062 277.320312 240.605469 277.503906 C 240 277.867188 239.34375 278.257812 238.644531 278.675781 C 237.265625 279.542969 235.636719 280.355469 233.875 281.292969 C 233.433594 281.523438 232.988281 281.769531 232.519531 281.996094 C 232.046875 282.214844 231.570312 282.4375 231.078125 282.664062 C 230.101562 283.117188 229.085938 283.585938 228.039062 284.070312 C 225.894531 284.90625 223.65625 285.914062 221.21875 286.695312 C 211.585938 290.1875 199.5625 292.347656 187.5 292.398438 C 175.433594 292.347656 163.414062 290.1875 153.78125 286.695312 C 151.339844 285.914062 149.101562 284.90625 146.957031 284.070312 C 145.910156 283.585938 144.898438 283.117188 143.917969 282.664062 C 143.429688 282.4375 142.949219 282.214844 142.476562 281.996094 C 142.007812 281.773438 141.566406 281.523438 141.121094 281.292969 C 139.363281 280.359375 137.730469 279.542969 136.351562 278.675781 C 135.652344 278.257812 135 277.867188 134.390625 277.503906 C 134.085938 277.320312 133.792969 277.144531 133.511719 276.976562 C 133.238281 276.792969 132.976562 276.617188 132.730469 276.449219 C 126.175781 272.15625 120.019531 267.277344 114.421875 261.796875 C 108.519531 255.898438 103.355469 249.292969 98.808594 242.289062 C 93.648438 234.191406 89.492188 225.394531 86.769531 216.128906 C 83.933594 206.890625 82.621094 197.195312 82.539062 187.5 C 82.621094 177.800781 83.933594 168.105469 86.769531 158.867188 C 89.492188 149.601562 93.648438 140.808594 98.804688 132.707031 C 103.0625 126.117188 107.90625 119.921875 113.347656 114.289062 C 114.050781 113.519531 114.835938 112.828125 115.585938 112.101562 C 116.34375 111.390625 117.082031 110.652344 117.859375 109.957031 L 120.21875 107.90625 L 121.398438 106.878906 L 122.621094 105.90625 L 125.0625 103.953125 C 125.890625 103.320312 126.746094 102.722656 127.582031 102.105469 C 129.238281 100.835938 131.003906 99.71875 132.726562 98.546875 C 132.976562 98.378906 133.238281 98.203125 133.511719 98.019531 C 133.792969 97.851562 134.085938 97.675781 134.390625 97.492188 C 134.996094 97.128906 135.652344 96.738281 136.351562 96.320312 C 137.730469 95.453125 139.359375 94.640625 141.121094 93.703125 C 141.566406 93.476562 142.007812 93.226562 142.476562 93 C 142.949219 92.78125 143.429688 92.558594 143.917969 92.332031 C 144.894531 91.878906 145.910156 91.410156 146.957031 90.925781 C 149.101562 90.089844 151.339844 89.082031 153.777344 88.300781 C 163.414062 84.808594 175.433594 82.648438 187.5 82.597656 C 199.5625 82.648438 211.585938 84.808594 221.214844 88.300781 C 223.65625 89.082031 225.894531 90.089844 228.039062 90.925781 C 229.085938 91.410156 230.097656 91.878906 231.078125 92.332031 C 231.566406 92.558594 232.046875 92.78125 232.519531 93 C 232.988281 93.222656 233.429688 93.476562 233.875 93.703125 C 235.632812 94.636719 237.265625 95.453125 238.644531 96.320312 C 239.34375 96.738281 239.996094 97.128906 240.605469 97.492188 C 240.910156 97.675781 241.203125 97.851562 241.484375 98.019531 C 241.757812 98.203125 242.019531 98.378906 242.265625 98.546875 C 248.820312 102.839844 254.976562 107.71875 260.574219 113.199219 C 266.476562 119.097656 271.640625 125.703125 276.1875 132.707031 C 281.347656 140.804688 285.503906 149.601562 288.226562 158.867188 C 291.0625 168.105469 292.375 177.800781 292.457031 187.5 C 292.375 197.195312 291.0625 206.890625 288.226562 216.128906 Z M 294.871094 187.425781 L 294.867188 187.417969 C 294.78125 177.519531 293.449219 167.613281 290.5625 158.164062 C 287.789062 148.691406 283.542969 139.699219 278.246094 131.4375 L 275.699219 127.609375 C 275.699219 127.609375 274.960938 126.582031 273.859375 125.039062 C 272.796875 123.460938 271.171875 121.519531 269.617188 119.523438 C 267.941406 117.628906 266.339844 115.671875 264.988281 114.335938 C 263.675781 112.964844 262.800781 112.054688 262.800781 112.054688 C 262.800781 112.054688 262.582031 111.828125 262.183594 111.445312 C 261.785156 111.0625 261.21875 110.511719 260.535156 109.855469 C 259.207031 108.5 257.273438 106.867188 255.382812 105.191406 C 254.410156 104.382812 253.410156 103.609375 252.484375 102.867188 C 252.023438 102.5 251.574219 102.140625 251.148438 101.804688 C 250.707031 101.484375 250.292969 101.1875 249.90625 100.910156 C 248.371094 99.796875 247.34375 99.058594 247.34375 99.058594 C 247.34375 99.058594 247.121094 98.878906 246.757812 98.644531 C 246.402344 98.40625 245.925781 98.085938 245.449219 97.765625 C 244.496094 97.128906 243.539062 96.488281 243.539062 96.488281 C 243.285156 96.316406 243.019531 96.136719 242.742188 95.949219 C 242.453125 95.773438 242.15625 95.59375 241.84375 95.40625 C 241.222656 95.03125 240.550781 94.628906 239.839844 94.203125 C 238.429688 93.3125 236.761719 92.476562 234.960938 91.515625 C 234.507812 91.28125 234.050781 91.023438 233.574219 90.796875 C 233.09375 90.570312 232.601562 90.339844 232.101562 90.109375 C 231.101562 89.644531 230.0625 89.164062 228.992188 88.667969 C 226.796875 87.804688 224.507812 86.777344 222.007812 85.972656 C 212.152344 82.390625 199.84375 80.171875 187.5 80.125 C 175.152344 80.171875 162.84375 82.390625 152.984375 85.972656 C 150.488281 86.777344 148.199219 87.804688 146.003906 88.667969 C 144.933594 89.164062 143.898438 89.644531 142.894531 90.109375 C 142.394531 90.34375 141.902344 90.570312 141.421875 90.796875 C 140.941406 91.023438 140.488281 91.28125 140.035156 91.515625 C 138.234375 92.476562 136.566406 93.3125 135.15625 94.203125 C 134.445312 94.628906 133.773438 95.03125 133.152344 95.40625 C 132.839844 95.59375 132.542969 95.777344 132.253906 95.949219 C 131.976562 96.136719 131.710938 96.316406 131.453125 96.488281 C 131.453125 96.488281 130.5 97.128906 129.546875 97.765625 C 129.070312 98.085938 128.59375 98.40625 128.238281 98.644531 C 127.875 98.878906 127.652344 99.058594 127.652344 99.058594 C 127.652344 99.058594 126.628906 99.796875 125.089844 100.910156 C 124.703125 101.1875 124.289062 101.484375 123.847656 101.804688 C 123.421875 102.140625 122.976562 102.5 122.511719 102.867188 C 121.585938 103.609375 120.585938 104.382812 119.617188 105.191406 C 117.722656 106.867188 115.792969 108.5 114.460938 109.855469 C 113.777344 110.511719 113.210938 111.0625 112.8125 111.445312 C 112.414062 111.828125 112.195312 112.054688 112.195312 112.054688 C 112.195312 112.054688 111.320312 112.964844 110.007812 114.335938 C 108.65625 115.671875 107.054688 117.628906 105.378906 119.523438 C 103.824219 121.519531 102.199219 123.460938 101.136719 125.039062 C 100.03125 126.582031 99.296875 127.609375 99.296875 127.609375 L 96.75 131.4375 C 91.453125 139.699219 87.207031 148.691406 84.433594 158.164062 C 81.546875 167.613281 80.214844 177.519531 80.128906 187.417969 L 80.125 187.425781 L 80.125 187.570312 L 80.128906 187.578125 C 80.214844 197.476562 81.546875 207.386719 84.433594 216.832031 C 87.207031 226.304688 91.453125 235.300781 96.75 243.558594 L 99.296875 247.386719 C 99.296875 247.386719 100.035156 248.414062 101.136719 249.960938 C 102.199219 251.535156 103.824219 253.476562 105.378906 255.472656 C 107.054688 257.367188 108.65625 259.324219 110.007812 260.660156 C 111.320312 262.027344 112.195312 262.941406 112.195312 262.941406 C 112.195312 262.941406 112.414062 263.167969 112.8125 263.550781 C 113.210938 263.933594 113.777344 264.484375 114.460938 265.140625 C 115.792969 266.496094 117.722656 268.128906 119.617188 269.804688 C 120.585938 270.613281 121.585938 271.386719 122.511719 272.128906 C 122.976562 272.496094 123.421875 272.855469 123.847656 273.191406 C 124.289062 273.511719 124.703125 273.808594 125.089844 274.085938 C 126.628906 275.199219 127.652344 275.9375 127.652344 275.9375 C 127.652344 275.9375 127.875 276.117188 128.238281 276.351562 C 128.59375 276.589844 129.070312 276.910156 129.546875 277.230469 C 130.5 277.867188 131.457031 278.507812 131.457031 278.507812 C 131.710938 278.679688 131.976562 278.859375 132.253906 279.046875 C 132.542969 279.222656 132.839844 279.402344 133.152344 279.589844 C 133.773438 279.964844 134.445312 280.367188 135.15625 280.792969 C 136.566406 281.683594 138.234375 282.519531 140.035156 283.480469 C 140.488281 283.714844 140.945312 283.972656 141.421875 284.199219 C 141.902344 284.425781 142.394531 284.65625 142.894531 284.886719 C 143.898438 285.351562 144.933594 285.832031 146.003906 286.328125 C 148.199219 287.191406 150.488281 288.21875 152.988281 289.023438 C 162.84375 292.605469 175.152344 294.820312 187.5 294.871094 C 199.84375 294.820312 212.152344 292.605469 222.011719 289.023438 C 224.507812 288.21875 226.796875 287.191406 228.992188 286.328125 C 230.0625 285.832031 231.101562 285.351562 232.101562 284.886719 C 232.601562 284.652344 233.09375 284.425781 233.574219 284.199219 C 234.054688 283.972656 234.507812 283.714844 234.960938 283.480469 C 236.761719 282.519531 238.429688 281.683594 239.839844 280.792969 C 240.550781 280.367188 241.222656 279.964844 241.84375 279.589844 C 242.15625 279.402344 242.453125 279.21875 242.742188 279.046875 C 243.019531 278.859375 243.285156 278.679688 243.542969 278.507812 C 243.542969 278.507812 244.496094 277.867188 245.449219 277.230469 C 245.925781 276.910156 246.402344 276.589844 246.757812 276.351562 C 247.121094 276.117188 247.34375 275.9375 247.34375 275.9375 C 247.34375 275.9375 248.371094 275.199219 249.90625 274.085938 C 250.292969 273.808594 250.707031 273.511719 251.148438 273.191406 C 251.574219 272.855469 252.023438 272.496094 252.484375 272.128906 C 253.410156 271.386719 254.410156 270.613281 255.382812 269.804688 C 257.273438 268.128906 259.207031 266.496094 260.535156 265.140625 C 261.21875 264.484375 261.785156 263.933594 262.183594 263.550781 C 262.582031 263.167969 262.800781 262.941406 262.800781 262.941406 C 262.800781 262.941406 263.675781 262.027344 264.988281 260.660156 C 266.339844 259.324219 267.941406 257.367188 269.617188 255.472656 C 271.171875 253.476562 272.796875 251.535156 273.859375 249.960938 C 274.964844 248.414062 275.699219 247.386719 275.699219 247.386719 L 278.246094 243.558594 C 283.542969 235.300781 287.789062 226.304688 290.5625 216.832031 C 293.449219 207.382812 294.78125 197.476562 294.867188 187.578125 L 294.871094 187.570312 L 294.871094 187.425781 " fill-opacity="1" fill-rule="nonzero"/></g><path stroke-linecap="round" transform="matrix(0.280433, 0, 0, 0.280445, 43.24487, 81.607055)" fill-opacity="1" fill="#ffffff" fill-rule="nonzero" stroke-linejoin="round" d="M 321.201603 171.499095 L 287.798985 253.093739 L 282.004369 213.800723 L 295.097972 175.900582 Z M 321.201603 171.499095 " stroke="#000000" stroke-width="3" stroke-opacity="1" stroke-miterlimit="10"/><g clip-path="url(#73727edad8)"><path fill="#ffffff" d="M 138.675781 116.605469 L 133.320312 129.703125 L 126 130.9375 Z M 138.675781 116.605469 " fill-opacity="1" fill-rule="nonzero"/></g><g clip-path="url(#e8360c7580)"><path stroke-linecap="round" transform="matrix(0.280433, 0, 0, 0.280445, 43.24487, 81.607055)" fill="none" stroke-linejoin="round" d="M 340.298763 124.795982 L 321.201603 171.499095 L 295.097972 175.900582 Z M 340.298763 124.795982 " stroke="#000000" stroke-width="3" stroke-opacity="1" stroke-miterlimit="10"/></g><g clip-path="url(#f31db95ed2)"><path stroke-linecap="round" transform="matrix(0.280433, 0, 0, 0.280445, 43.24487, 81.607055)" fill-opacity="1" fill="#ffffff" fill-rule="nonzero" stroke-linejoin="round" d="M 439.406198 197.699082 L 400.793997 223.202632 L 375.999727 229.094495 L 336.20353 260.79634 L 255.803232 270.602183 L 287.798985 253.093739 L 321.201603 171.499095 L 340.298763 124.795982 Z M 439.406198 197.699082 " stroke="#000000" stroke-width="3" stroke-opacity="1" stroke-miterlimit="10"/></g><path stroke-linecap="round" transform="matrix(0.280433, 0, 0, 0.280445, 43.24487, 81.607055)" fill-opacity="1" fill="#a3a3a3" fill-rule="nonzero" stroke-linejoin="round" d="M 217.998934 299.796852 L 166.098119 284.50308 L 104.906416 247.494379 L 111.397501 234.206348 L 203.303454 270.602183 Z M 217.998934 299.796852 " stroke="#000000" stroke-width="3" stroke-opacity="1" stroke-miterlimit="10"/><path stroke-linecap="round" transform="matrix(0.280433, 0, 0, 0.280445, 43.24487, 81.607055)" fill-opacity="1" fill="#686868" fill-rule="nonzero" stroke-linejoin="round" d="M 336.20353 260.79634 L 268.994341 299.796852 L 217.998934 299.796852 L 203.303454 270.602183 L 255.803232 270.602183 Z M 336.20353 260.79634 " stroke="#000000" stroke-width="3" stroke-opacity="1" stroke-miterlimit="10"/><path stroke-linecap="round" transform="matrix(0.280433, 0, 0, 0.280445, 43.24487, 81.607055)" fill-opacity="1" fill="#b8b9bd" fill-rule="nonzero" stroke-linejoin="round" d="M 336.20353 260.79634 L 328.793107 303.501901 L 268.994341 299.796852 Z M 336.20353 260.79634 " stroke="#000000" stroke-width="3" stroke-opacity="1" stroke-miterlimit="10"/><path stroke-linecap="round" transform="matrix(0.280433, 0, 0, 0.280445, 43.24487, 81.607055)" fill-opacity="1" fill="#848484" fill-rule="nonzero" stroke-linejoin="round" d="M 479.494912 315.104553 L 422.704889 309.198762 L 328.793107 303.501901 L 336.20353 260.79634 L 375.999727 229.094495 Z M 479.494912 315.104553 " stroke="#000000" stroke-width="3" stroke-opacity="1" stroke-miterlimit="10"/><path stroke-linecap="round" transform="matrix(0.280433, 0, 0, 0.280445, 43.24487, 81.607055)" fill-opacity="1" fill="#686868" fill-rule="nonzero" stroke-linejoin="round" d="M 734.694817 385.402977 L 662.498916 383.80117 L 479.494912 315.104553 L 375.999727 229.094495 L 400.793997 223.202632 Z M 734.694817 385.402977 " stroke="#000000" stroke-width="3" stroke-opacity="1" stroke-miterlimit="10"/><path stroke-linecap="round" transform="matrix(0.280433, 0, 0, 0.280445, 43.24487, 81.607055)" fill-opacity="1" fill="#ffffff" fill-rule="nonzero" stroke-linejoin="round" d="M 734.694817 385.402977 L 439.406198 197.699082 L 459.79879 197.699082 L 704.704893 342.000978 L 722.200176 365.401286 Z M 734.694817 385.402977 " stroke="#000000" stroke-width="3" stroke-opacity="1" stroke-miterlimit="10"/><path stroke-linecap="round" transform="matrix(0.280433, 0, 0, 0.280445, 43.24487, 81.607055)" fill-opacity="1" fill="#686868" fill-rule="nonzero" stroke-linejoin="round" d="M 259.397009 363.200542 L 83.399476 291.10531 L 104.906416 247.494379 L 166.098119 284.50308 Z M 259.397009 363.200542 " stroke="#000000" stroke-width="3" stroke-opacity="1" stroke-miterlimit="10"/><path stroke-linecap="round" transform="matrix(0.280433, 0, 0, 0.280445, 43.24487, 81.607055)" fill-opacity="1" fill="#848484" fill-rule="nonzero" stroke-linejoin="round" d="M 328.793107 303.501901 L 318.694317 360.999799 L 259.397009 363.200542 L 166.098119 284.50308 L 217.998934 299.796852 L 268.994341 299.796852 Z M 328.793107 303.501901 " stroke="#000000" stroke-width="3" stroke-opacity="1" stroke-miterlimit="10"/><path stroke-linecap="round" transform="matrix(0.280433, 0, 0, 0.280445, 43.24487, 81.607055)" fill-opacity="1" fill="#a3a3a3" fill-rule="nonzero" stroke-linejoin="round" d="M 734.694817 385.402977 L 731.700003 409.806155 L 662.498916 383.80117 Z M 734.694817 385.402977 " stroke="#000000" stroke-width="3" stroke-opacity="1" stroke-miterlimit="10"/><path stroke-linecap="round" transform="matrix(0.280433, 0, 0, 0.280445, 43.24487, 81.607055)" fill-opacity="1" fill="#ffffff" fill-rule="nonzero" stroke-linejoin="round" d="M 869.503216 400.404245 L 845.795436 406.39361 L 734.694817 385.402977 L 722.200176 365.401286 Z M 869.503216 400.404245 " stroke="#000000" stroke-width="3" stroke-opacity="1" stroke-miterlimit="10"/><path stroke-linecap="round" transform="matrix(0.280433, 0, 0, 0.280445, 43.24487, 81.607055)" fill-opacity="1" fill="#ffffff" fill-rule="nonzero" stroke-linejoin="round" d="M 927.79761 404.694302 L 925.596771 414.193712 L 918.297783 420.002003 L 845.795436 406.39361 L 869.503216 400.404245 Z M 927.79761 404.694302 " stroke="#000000" stroke-width="3" stroke-opacity="1" stroke-miterlimit="10"/><path stroke-linecap="round" transform="matrix(0.280433, 0, 0, 0.280445, 43.24487, 81.607055)" fill-opacity="1" fill="#a3a3a3" fill-rule="nonzero" stroke-linejoin="round" d="M 965.699414 457.205706 L 964.90544 465.200811 L 925.596771 414.193712 L 927.79761 404.694302 L 958.400426 426.604232 Z M 965.699414 457.205706 " stroke="#000000" stroke-width="3" stroke-opacity="1" stroke-miterlimit="10"/><path stroke-linecap="round" transform="matrix(0.280433, 0, 0, 0.280445, 43.24487, 81.607055)" fill-opacity="1" fill="#ced9ea" fill-rule="nonzero" stroke-linejoin="round" d="M 968.596722 535.903168 L 830.097041 576.797991 L 632.606497 573.106871 L 816.29304 554.094122 L 963.498574 511.903925 Z M 968.596722 535.903168 " stroke="#000000" stroke-width="3" stroke-opacity="1" stroke-miterlimit="10"/><path fill="#ffffff" d="M 112.148438 232.65625 L 62.847656 237 L 55.277344 234.757812 L 56.929688 215.914062 L 69.746094 219.222656 Z M 112.148438 232.65625 " fill-opacity="1" fill-rule="nonzero"/><g clip-path="url(#2afc9a1813)"><path stroke-linecap="round" transform="matrix(0.280433, 0, 0, 0.280445, 43.24487, 81.607055)" fill="none" stroke-linejoin="round" d="M 245.704442 538.605347 L 69.901921 554.094122 L 42.906811 546.099017 L 48.798932 478.906705 L 94.50118 490.70436 Z M 245.704442 538.605347 " stroke="#000000" stroke-width="3" stroke-opacity="1" stroke-miterlimit="10"/></g><path stroke-linecap="round" transform="matrix(0.280433, 0, 0, 0.280445, 43.24487, 81.607055)" fill-opacity="1" fill="#ffffff" fill-rule="nonzero" stroke-linejoin="round" d="M 94.696191 466.705116 L 94.50118 490.70436 L 48.798932 478.906705 L 48.798932 464.504373 L 54.593548 455.798902 Z M 94.696191 466.705116 " stroke="#000000" stroke-width="3" stroke-opacity="1" stroke-miterlimit="10"/><path stroke-linecap="round" transform="matrix(0.280433, 0, 0, 0.280445, 43.24487, 81.607055)" fill-opacity="1" fill="#686868" fill-rule="nonzero" stroke-linejoin="round" d="M 92.606787 456.300337 L 54.593548 455.7014 L 66.19671 325.996839 C 75.000069 369.496339 83.803428 412.898338 92.606787 456.300337 Z M 92.606787 456.300337 " stroke="#000000" stroke-width="3" stroke-opacity="1" stroke-miterlimit="10"/><path stroke-linecap="round" transform="matrix(0.280433, 0, 0, 0.280445, 43.24487, 81.607055)" fill-opacity="1" fill="#848484" fill-rule="nonzero" stroke-linejoin="round" d="M 94.696191 466.705116 L 54.593548 455.798902 L 92.606787 456.397838 C 93.303255 459.796454 93.999723 463.19507 94.696191 466.705116 Z M 94.696191 466.705116 " stroke="#000000" stroke-width="3" stroke-opacity="1" stroke-miterlimit="10"/><path stroke-linecap="round" transform="matrix(0.280433, 0, 0, 0.280445, 43.24487, 81.607055)" fill-opacity="1" fill="#ffffff" fill-rule="nonzero" stroke-linejoin="round" d="M 327.901628 405.50217 C 282.101874 386.001913 236.204615 366.599158 190.404861 347.098902 C 153.297032 331.303695 116.203132 315.605989 79.206737 299.796852 L 83.496982 291.10531 L 259.494514 363.200542 Z M 327.901628 405.50217 " stroke="#000000" stroke-width="3" stroke-opacity="1" stroke-miterlimit="10"/><path stroke-linecap="round" transform="matrix(0.280433, 0, 0, 0.280445, 43.24487, 81.607055)" fill-opacity="1" fill="#686868" fill-rule="nonzero" stroke-linejoin="round" d="M 190.404861 347.001401 L 66.19671 325.996839 L 79.095302 299.796852 C 116.203132 315.494559 153.297032 331.303695 190.404861 347.001401 Z M 190.404861 347.001401 " stroke="#000000" stroke-width="3" stroke-opacity="1" stroke-miterlimit="10"/><path stroke-linecap="round" transform="matrix(0.280433, 0, 0, 0.280445, 43.24487, 81.607055)" fill-opacity="1" fill="#686868" fill-rule="nonzero" stroke-linejoin="round" d="M 478.101976 386.503349 L 402.200863 465.200811 L 320.60264 440.505129 L 411.004222 421.506308 L 435.798493 414.193712 Z M 478.101976 386.503349 " stroke="#000000" stroke-width="3" stroke-opacity="1" stroke-miterlimit="10"/><path stroke-linecap="round" transform="matrix(0.280433, 0, 0, 0.280445, 43.24487, 81.607055)" fill-opacity="1" fill="#a3a3a3" fill-rule="nonzero" stroke-linejoin="round" d="M 478.101976 386.503349 L 435.798493 414.193712 L 435.798493 355.706873 Z M 478.101976 386.503349 " stroke="#000000" stroke-width="3" stroke-opacity="1" stroke-miterlimit="10"/><path stroke-linecap="round" transform="matrix(0.280433, 0, 0, 0.280445, 43.24487, 81.607055)" fill-opacity="1" fill="#b8b9bd" fill-rule="nonzero" stroke-linejoin="round" d="M 498.494567 425.893866 L 402.200863 465.200811 L 478.101976 386.503349 Z M 498.494567 425.893866 " stroke="#000000" stroke-width="3" stroke-opacity="1" stroke-miterlimit="10"/><path stroke-linecap="round" transform="matrix(0.280433, 0, 0, 0.280445, 43.24487, 81.607055)" fill-opacity="1" fill="#ffffff" fill-rule="nonzero" stroke-linejoin="round" d="M 816.29304 554.094122 L 632.606497 573.106871 L 642.301336 535.206731 Z M 816.29304 554.094122 " stroke="#000000" stroke-width="3" stroke-opacity="1" stroke-miterlimit="10"/><g clip-path="url(#2f2290b933)"><path fill="#bac1d3" d="M 146.640625 243.5625 L 143.582031 249.089844 L 96.164062 246.621094 L 60.996094 241.714844 L 62.847656 237 L 94.730469 240.28125 Z M 146.640625 243.5625 " fill-opacity="1" fill-rule="nonzero"/></g><g clip-path="url(#e3d0a04f8d)"><path stroke-linecap="round" transform="matrix(0.280433, 0, 0, 0.280445, 43.24487, 81.607055)" fill="none" stroke-linejoin="round" d="M 368.700739 577.494429 L 357.794046 597.203617 L 188.705479 588.400644 L 63.299402 570.906128 L 69.901921 554.094122 L 183.593402 565.794275 Z M 368.700739 577.494429 " stroke="#000000" stroke-width="3" stroke-opacity="1" stroke-miterlimit="10"/></g><g clip-path="url(#8362c3edd1)"><path fill="#a4abba" d="M 62.847656 237 L 60.996094 241.714844 L 54.460938 238.433594 L 55.277344 234.757812 Z M 62.847656 237 " fill-opacity="1" fill-rule="nonzero"/></g><g clip-path="url(#82330fac02)"><path stroke-linecap="round" transform="matrix(0.280433, 0, 0, 0.280445, 43.24487, 81.607055)" fill="none" stroke-linejoin="round" d="M 69.901921 554.094122 L 63.299402 570.906128 L 39.995573 559.205975 L 42.906811 546.099017 Z M 69.901921 554.094122 " stroke="#000000" stroke-width="3" stroke-opacity="1" stroke-miterlimit="10"/></g><g clip-path="url(#f5d5286a00)"><path fill="#a4abba" d="M 276.03125 243.367188 L 221.179688 249.089844 L 143.582031 249.089844 L 146.640625 243.5625 L 220.648438 242.332031 Z M 276.03125 243.367188 " fill-opacity="1" fill-rule="nonzero"/></g><g clip-path="url(#40450f170d)"><path stroke-linecap="round" transform="matrix(0.280433, 0, 0, 0.280445, 43.24487, 81.607055)" fill="none" stroke-linejoin="round" d="M 830.097041 576.797991 L 634.500891 597.203617 L 357.794046 597.203617 L 368.700739 577.494429 L 632.606497 573.106871 Z M 830.097041 576.797991 " stroke="#000000" stroke-width="3" stroke-opacity="1" stroke-miterlimit="10"/></g><path fill="#bac1d3" d="M 320.59375 224.128906 L 314.871094 231.898438 L 313.441406 225.167969 L 320.171875 219.222656 Z M 320.59375 224.128906 " fill-opacity="1" fill-rule="nonzero"/><g clip-path="url(#5bad2b44d5)"><path stroke-linecap="round" transform="matrix(0.280433, 0, 0, 0.280445, 43.24487, 81.607055)" fill="none" stroke-linejoin="round" d="M 989.003242 508.198876 L 968.596722 535.903168 L 963.498574 511.903925 L 987.498871 490.70436 Z M 989.003242 508.198876 " stroke="#000000" stroke-width="3" stroke-opacity="1" stroke-miterlimit="10"/></g><path stroke-linecap="round" transform="matrix(0.280433, 0, 0, 0.280445, 43.24487, 81.607055)" fill-opacity="1" fill="#ffffff" fill-rule="nonzero" stroke-linejoin="round" d="M 987.498871 490.70436 L 963.498574 511.903925 L 938.704303 495.802284 L 981.704255 481.998889 Z M 987.498871 490.70436 " stroke="#000000" stroke-width="3" stroke-opacity="1" stroke-miterlimit="10"/><path stroke-linecap="round" transform="matrix(0.280433, 0, 0, 0.280445, 43.24487, 81.607055)" fill-opacity="1" fill="#ffffff" fill-rule="nonzero" stroke-linejoin="round" d="M 981.704255 481.998889 L 938.704303 495.802284 L 964.90544 465.200811 L 965.699414 457.205706 L 980.199883 467.401554 Z M 981.704255 481.998889 " stroke="#000000" stroke-width="3" stroke-opacity="1" stroke-miterlimit="10"/><path stroke-linecap="round" transform="matrix(0.280433, 0, 0, 0.280445, 43.24487, 81.607055)" fill-opacity="1" fill="#848484" fill-rule="nonzero" stroke-linejoin="round" d="M 289.999825 459.406449 L 92.606787 456.300337 C 83.803428 412.898338 75.000069 369.496339 66.19671 325.996839 L 263.394737 414.695147 Z M 289.999825 459.406449 " stroke="#000000" stroke-width="3" stroke-opacity="1" stroke-miterlimit="10"/><path stroke-linecap="round" transform="matrix(0.280433, 0, 0, 0.280445, 43.24487, 81.607055)" fill-opacity="1" fill="#848484" fill-rule="nonzero" stroke-linejoin="round" d="M 411.004222 421.506308 L 320.60264 440.505129 L 190.404861 347.001401 C 236.204615 366.501657 282.101874 386.001913 327.901628 405.404668 C 355.593207 410.795096 383.298714 416.101952 411.004222 421.506308 Z M 411.004222 421.506308 " stroke="#000000" stroke-width="3" stroke-opacity="1" stroke-miterlimit="10"/><path stroke-linecap="round" transform="matrix(0.280433, 0, 0, 0.280445, 43.24487, 81.607055)" fill-opacity="1" fill="#ffffff" fill-rule="nonzero" stroke-linejoin="round" d="M 368.700739 577.494429 L 183.593402 565.794275 L 69.901921 554.094122 L 245.704442 538.605347 Z M 368.700739 577.494429 " stroke="#000000" stroke-width="3" stroke-opacity="1" stroke-miterlimit="10"/><path stroke-linecap="round" transform="matrix(0.280433, 0, 0, 0.280445, 43.24487, 81.607055)" fill-opacity="1" fill="#ffffff" fill-rule="nonzero" stroke-linejoin="round" d="M 642.301336 535.206731 L 632.606497 573.106871 L 368.700739 577.494429 L 245.704442 538.605347 L 480.999284 517.698286 Z M 642.301336 535.206731 " stroke="#000000" stroke-width="3" stroke-opacity="1" stroke-miterlimit="10"/><path stroke-linecap="round" transform="matrix(0.280433, 0, 0, 0.280445, 43.24487, 81.607055)" fill-opacity="1" fill="#ffffff" fill-rule="nonzero" stroke-linejoin="round" d="M 734.694817 385.402977 L 400.793997 223.202632 L 439.406198 197.699082 Z M 734.694817 385.402977 " stroke="#000000" stroke-width="3" stroke-opacity="1" stroke-miterlimit="10"/><path stroke-linecap="round" transform="matrix(0.280433, 0, 0, 0.280445, 43.24487, 81.607055)" fill-opacity="1" fill="#ffffff" fill-rule="nonzero" stroke-linejoin="round" d="M 411.004222 421.506308 C 383.298714 416.101952 355.593207 410.795096 327.901628 405.50217 L 259.397009 363.200542 L 318.694317 360.999799 Z M 411.004222 421.506308 " stroke="#000000" stroke-width="3" stroke-opacity="1" stroke-miterlimit="10"/><path stroke-linecap="round" transform="matrix(0.280433, 0, 0, 0.280445, 43.24487, 81.607055)" fill-opacity="1" fill="#b8b9bd" fill-rule="nonzero" stroke-linejoin="round" d="M 292.897133 484.004629 L 94.696191 466.705116 C 93.999723 463.19507 93.303255 459.796454 92.606787 456.300337 L 289.999825 459.406449 Z M 292.897133 484.004629 " stroke="#000000" stroke-width="3" stroke-opacity="1" stroke-miterlimit="10"/><path stroke-linecap="round" transform="matrix(0.280433, 0, 0, 0.280445, 43.24487, 81.607055)" fill-opacity="1" fill="#b8b9bd" fill-rule="nonzero" stroke-linejoin="round" d="M 320.60264 440.505129 L 289.999825 459.406449 L 263.506171 414.695147 Z M 320.60264 440.505129 " stroke="#000000" stroke-width="3" stroke-opacity="1" stroke-miterlimit="10"/><path stroke-linecap="round" transform="matrix(0.280433, 0, 0, 0.280445, 43.24487, 81.607055)" fill-opacity="1" fill="#a3a3a3" fill-rule="nonzero" stroke-linejoin="round" d="M 320.60264 440.505129 L 263.506171 414.695147 L 66.19671 325.996839 L 190.404861 347.001401 Z M 320.60264 440.505129 " stroke="#000000" stroke-width="3" stroke-opacity="1" stroke-miterlimit="10"/><path stroke-linecap="round" transform="matrix(0.280433, 0, 0, 0.280445, 43.24487, 81.607055)" fill-opacity="1" fill="#848484" fill-rule="nonzero" stroke-linejoin="round" d="M 498.494567 425.893866 L 492.602445 455.004963 L 466.401309 471.106603 L 402.200863 465.200811 Z M 498.494567 425.893866 " stroke="#000000" stroke-width="3" stroke-opacity="1" stroke-miterlimit="10"/><path stroke-linecap="round" transform="matrix(0.280433, 0, 0, 0.280445, 43.24487, 81.607055)" fill-opacity="1" fill="#ffffff" fill-rule="nonzero" stroke-linejoin="round" d="M 918.297783 420.002003 L 781.302474 439.000824 L 761.898868 427.593174 L 845.795436 406.39361 Z M 918.297783 420.002003 " stroke="#000000" stroke-width="3" stroke-opacity="1" stroke-miterlimit="10"/><path stroke-linecap="round" transform="matrix(0.280433, 0, 0, 0.280445, 43.24487, 81.607055)" fill-opacity="1" fill="#ffffff" fill-rule="nonzero" stroke-linejoin="round" d="M 845.795436 406.39361 L 761.898868 427.593174 L 731.700003 409.806155 L 734.694817 385.402977 Z M 845.795436 406.39361 " stroke="#000000" stroke-width="3" stroke-opacity="1" stroke-miterlimit="10"/><path stroke-linecap="round" transform="matrix(0.280433, 0, 0, 0.280445, 43.24487, 81.607055)" fill-opacity="1" fill="#848484" fill-rule="nonzero" stroke-linejoin="round" d="M 662.498916 383.80117 L 584.494469 382.101862 L 547.999532 370.49921 L 479.494912 315.104553 Z M 662.498916 383.80117 " stroke="#000000" stroke-width="3" stroke-opacity="1" stroke-miterlimit="10"/><path stroke-linecap="round" transform="matrix(0.280433, 0, 0, 0.280445, 43.24487, 81.607055)" fill-opacity="1" fill="#b8b9bd" fill-rule="nonzero" stroke-linejoin="round" d="M 717.102028 439.000824 L 719.999336 462.30363 L 584.494469 382.101862 L 662.498916 383.80117 L 731.700003 409.806155 Z M 717.102028 439.000824 " stroke="#000000" stroke-width="3" stroke-opacity="1" stroke-miterlimit="10"/><path stroke-linecap="round" transform="matrix(0.280433, 0, 0, 0.280445, 43.24487, 81.607055)" fill-opacity="1" fill="#ffffff" fill-rule="nonzero" stroke-linejoin="round" d="M 781.302474 439.000824 L 763.793261 450.603476 L 745.699016 471.106603 L 719.999336 462.30363 L 717.102028 439.000824 L 761.898868 427.593174 Z M 781.302474 439.000824 " stroke="#000000" stroke-width="3" stroke-opacity="1" stroke-miterlimit="10"/><path stroke-linecap="round" transform="matrix(0.280433, 0, 0, 0.280445, 43.24487, 81.607055)" fill-opacity="1" fill="#ffffff" fill-rule="nonzero" stroke-linejoin="round" d="M 761.898868 427.593174 L 717.102028 439.000824 L 731.700003 409.806155 Z M 761.898868 427.593174 " stroke="#000000" stroke-width="3" stroke-opacity="1" stroke-miterlimit="10"/><path stroke-linecap="round" transform="matrix(0.280433, 0, 0, 0.280445, 43.24487, 81.607055)" fill-opacity="1" fill="#ffffff" fill-rule="nonzero" stroke-linejoin="round" d="M 795.802943 516.193981 L 645.700101 522.099773 L 632.606497 505.998133 L 792.905635 498.796967 Z M 795.802943 516.193981 " stroke="#000000" stroke-width="3" stroke-opacity="1" stroke-miterlimit="10"/><path stroke-linecap="round" transform="matrix(0.280433, 0, 0, 0.280445, 43.24487, 81.607055)" fill-opacity="1" fill="#848484" fill-rule="nonzero" stroke-linejoin="round" d="M 918.297783 420.002003 L 792.905635 498.796967 L 763.793261 450.603476 L 781.302474 439.000824 Z M 918.297783 420.002003 " stroke="#000000" stroke-width="3" stroke-opacity="1" stroke-miterlimit="10"/><path stroke-linecap="round" transform="matrix(0.280433, 0, 0, 0.280445, 43.24487, 81.607055)" fill-opacity="1" fill="#b8b9bd" fill-rule="nonzero" stroke-linejoin="round" d="M 964.90544 465.200811 L 935.793066 475.396659 L 792.905635 498.796967 L 918.297783 420.002003 L 925.596771 414.193712 Z M 964.90544 465.200811 " stroke="#000000" stroke-width="3" stroke-opacity="1" stroke-miterlimit="10"/><path stroke-linecap="round" transform="matrix(0.280433, 0, 0, 0.280445, 43.24487, 81.607055)" fill-opacity="1" fill="#ffffff" fill-rule="nonzero" stroke-linejoin="round" d="M 964.90544 465.200811 L 938.704303 495.802284 L 795.802943 516.193981 L 792.905635 498.796967 L 935.793066 475.396659 Z M 964.90544 465.200811 " stroke="#000000" stroke-width="3" stroke-opacity="1" stroke-miterlimit="10"/><path stroke-linecap="round" transform="matrix(0.280433, 0, 0, 0.280445, 43.24487, 81.607055)" fill-opacity="1" fill="#ffffff" fill-rule="nonzero" stroke-linejoin="round" d="M 963.498574 511.903925 L 816.29304 554.094122 L 642.301336 535.206731 L 645.700101 522.099773 L 795.802943 516.193981 L 938.704303 495.802284 Z M 963.498574 511.903925 " stroke="#000000" stroke-width="3" stroke-opacity="1" stroke-miterlimit="10"/><path stroke-linecap="round" transform="matrix(0.280433, 0, 0, 0.280445, 43.24487, 81.607055)" fill-opacity="1" fill="#848484" fill-rule="nonzero" stroke-linejoin="round" d="M 719.999336 462.30363 L 684.200867 472.694481 L 588.993654 449.89311 L 584.494469 382.101862 Z M 719.999336 462.30363 " stroke="#000000" stroke-width="3" stroke-opacity="1" stroke-miterlimit="10"/><path stroke-linecap="round" transform="matrix(0.280433, 0, 0, 0.280445, 43.24487, 81.607055)" fill-opacity="1" fill="#686868" fill-rule="nonzero" stroke-linejoin="round" d="M 792.905635 498.796967 L 684.200867 472.694481 L 719.999336 462.30363 L 745.699016 471.106603 L 763.793261 450.603476 Z M 792.905635 498.796967 " stroke="#000000" stroke-width="3" stroke-opacity="1" stroke-miterlimit="10"/><path stroke-linecap="round" transform="matrix(0.280433, 0, 0, 0.280445, 43.24487, 81.607055)" fill-opacity="1" fill="#ffffff" fill-rule="nonzero" stroke-linejoin="round" d="M 645.700101 522.099773 L 642.301336 535.206731 L 480.999284 517.698286 Z M 645.700101 522.099773 " stroke="#000000" stroke-width="3" stroke-opacity="1" stroke-miterlimit="10"/><path stroke-linecap="round" transform="matrix(0.280433, 0, 0, 0.280445, 43.24487, 81.607055)" fill-opacity="1" fill="#ffffff" fill-rule="nonzero" stroke-linejoin="round" d="M 588.993654 449.89311 L 578.504842 503.504886 L 492.602445 455.004963 Z M 588.993654 449.89311 " stroke="#000000" stroke-width="3" stroke-opacity="1" stroke-miterlimit="10"/><path stroke-linecap="round" transform="matrix(0.280433, 0, 0, 0.280445, 43.24487, 81.607055)" fill-opacity="1" fill="#ffffff" fill-rule="nonzero" stroke-linejoin="round" d="M 684.200867 472.694481 L 578.504842 503.504886 L 588.993654 449.89311 Z M 684.200867 472.694481 " stroke="#000000" stroke-width="3" stroke-opacity="1" stroke-miterlimit="10"/><path stroke-linecap="round" transform="matrix(0.280433, 0, 0, 0.280445, 43.24487, 81.607055)" fill-opacity="1" fill="#ffffff" fill-rule="nonzero" stroke-linejoin="round" d="M 578.504842 503.504886 L 466.401309 471.106603 L 492.602445 455.004963 Z M 578.504842 503.504886 " stroke="#000000" stroke-width="3" stroke-opacity="1" stroke-miterlimit="10"/><path stroke-linecap="round" transform="matrix(0.280433, 0, 0, 0.280445, 43.24487, 81.607055)" fill-opacity="1" fill="#ffffff" fill-rule="nonzero" stroke-linejoin="round" d="M 792.905635 498.796967 L 632.606497 505.998133 L 479.494912 500.203771 L 292.897133 484.004629 L 466.401309 471.106603 L 578.504842 503.504886 L 684.200867 472.694481 Z M 792.905635 498.796967 " stroke="#000000" stroke-width="3" stroke-opacity="1" stroke-miterlimit="10"/><path stroke-linecap="round" transform="matrix(0.280433, 0, 0, 0.280445, 43.24487, 81.607055)" fill-opacity="1" fill="#ffffff" fill-rule="nonzero" stroke-linejoin="round" d="M 645.700101 522.099773 L 480.999284 517.698286 L 94.50118 490.70436 L 94.696191 466.705116 L 292.897133 484.004629 L 479.494912 500.203771 L 632.606497 505.998133 Z M 645.700101 522.099773 " stroke="#000000" stroke-width="3" stroke-opacity="1" stroke-miterlimit="10"/><path stroke-linecap="round" transform="matrix(0.280433, 0, 0, 0.280445, 43.24487, 81.607055)" fill-opacity="1" fill="#ffffff" fill-rule="nonzero" stroke-linejoin="round" d="M 480.999284 517.698286 L 245.704442 538.605347 L 94.50118 490.70436 Z M 480.999284 517.698286 " stroke="#000000" stroke-width="3" stroke-opacity="1" stroke-miterlimit="10"/><path stroke-linecap="round" transform="matrix(0.280433, 0, 0, 0.280445, 43.24487, 81.607055)" fill-opacity="1" fill="#ffffff" fill-rule="nonzero" stroke-linejoin="round" d="M 287.798985 253.093739 L 255.803232 270.602183 L 282.004369 213.800723 Z M 287.798985 253.093739 " stroke="#000000" stroke-width="3" stroke-opacity="1" stroke-miterlimit="10"/><path stroke-linecap="round" transform="matrix(0.280433, 0, 0, 0.280445, 43.24487, 81.607055)" fill-opacity="1" fill="#686868" fill-rule="nonzero" stroke-linejoin="round" d="M 422.704889 309.198762 L 318.694317 360.999799 L 328.793107 303.501901 Z M 422.704889 309.198762 " stroke="#000000" stroke-width="3" stroke-opacity="1" stroke-miterlimit="10"/><path stroke-linecap="round" transform="matrix(0.280433, 0, 0, 0.280445, 43.24487, 81.607055)" fill-opacity="1" fill="#ffffff" fill-rule="nonzero" stroke-linejoin="round" d="M 422.704889 309.198762 L 411.004222 421.506308 L 318.694317 360.999799 Z M 422.704889 309.198762 " stroke="#000000" stroke-width="3" stroke-opacity="1" stroke-miterlimit="10"/><path stroke-linecap="round" transform="matrix(0.280433, 0, 0, 0.280445, 43.24487, 81.607055)" fill-opacity="1" fill="#ffffff" fill-rule="nonzero" stroke-linejoin="round" d="M 479.494912 315.104553 L 435.798493 355.706873 L 435.798493 414.193712 L 411.004222 421.506308 L 422.704889 309.198762 Z M 479.494912 315.104553 " stroke="#000000" stroke-width="3" stroke-opacity="1" stroke-miterlimit="10"/><path stroke-linecap="round" transform="matrix(0.280433, 0, 0, 0.280445, 43.24487, 81.607055)" fill-opacity="1" fill="#ffffff" fill-rule="nonzero" stroke-linejoin="round" d="M 547.999532 370.49921 L 478.101976 386.503349 L 435.798493 355.706873 L 479.494912 315.104553 Z M 547.999532 370.49921 " stroke="#000000" stroke-width="3" stroke-opacity="1" stroke-miterlimit="10"/><path stroke-linecap="round" transform="matrix(0.280433, 0, 0, 0.280445, 43.24487, 81.607055)" fill-opacity="1" fill="#686868" fill-rule="nonzero" stroke-linejoin="round" d="M 588.993654 449.89311 L 547.999532 370.49921 L 584.494469 382.101862 Z M 588.993654 449.89311 " stroke="#000000" stroke-width="3" stroke-opacity="1" stroke-miterlimit="10"/><path stroke-linecap="round" transform="matrix(0.280433, 0, 0, 0.280445, 43.24487, 81.607055)" fill-opacity="1" fill="#ffffff" fill-rule="nonzero" stroke-linejoin="round" d="M 492.602445 455.004963 L 498.494567 425.893866 L 478.101976 386.503349 L 547.999532 370.49921 L 588.993654 449.89311 Z M 492.602445 455.004963 " stroke="#000000" stroke-width="3" stroke-opacity="1" stroke-miterlimit="10"/><path stroke-linecap="round" transform="matrix(0.280433, 0, 0, 0.280445, 43.24487, 81.607055)" fill-opacity="1" fill="#ffffff" fill-rule="nonzero" stroke-linejoin="round" d="M 466.401309 471.106603 L 292.897133 484.004629 L 289.999825 459.406449 L 320.60264 440.505129 L 402.200863 465.200811 Z M 466.401309 471.106603 " stroke="#000000" stroke-width="3" stroke-opacity="1" stroke-miterlimit="10"/><g fill="#ffffff" fill-opacity="1"><g transform="translate(71.796457, 130.288879)"><g><path d="M -11.984375 -8.640625 C -12.359375 -8.890625 -12.59375 -9.242188 -12.6875 -9.703125 C -12.78125 -10.160156 -12.703125 -10.582031 -12.453125 -10.96875 L -6.65625 -19.796875 C -6.414062 -20.171875 -6.066406 -20.398438 -5.609375 -20.484375 C -5.148438 -20.578125 -4.734375 -20.5 -4.359375 -20.25 C -3.972656 -20 -3.734375 -19.648438 -3.640625 -19.203125 C -3.554688 -18.753906 -3.632812 -18.34375 -3.875 -17.96875 L -5.796875 -15.046875 L 3.765625 -8.78125 C 4.179688 -8.5 4.441406 -8.113281 4.546875 -7.625 C 4.660156 -7.144531 4.578125 -6.695312 4.296875 -6.28125 C 4.023438 -5.863281 3.644531 -5.601562 3.15625 -5.5 C 2.664062 -5.394531 2.210938 -5.484375 1.796875 -5.765625 L -7.765625 -12.03125 L -9.671875 -9.140625 C -9.921875 -8.753906 -10.269531 -8.507812 -10.71875 -8.40625 C -11.175781 -8.3125 -11.597656 -8.390625 -11.984375 -8.640625 Z M -11.984375 -8.640625 "/></g></g></g><g fill="#ffffff" fill-opacity="1"><g transform="translate(82.272963, 114.815957)"><g><path d="M -1.78125 -5.171875 C -1.625 -5.335938 -1.460938 -5.457031 -1.296875 -5.53125 C -1.140625 -5.601562 -0.992188 -5.664062 -0.859375 -5.71875 C -0.0859375 -5.863281 0.625 -6.101562 1.28125 -6.4375 C 1.9375 -6.78125 2.53125 -7.25 3.0625 -7.84375 C 3.5625 -8.40625 3.847656 -8.929688 3.921875 -9.421875 C 3.992188 -9.910156 3.851562 -10.316406 3.5 -10.640625 L 3.453125 -10.671875 C 3.273438 -10.835938 3.09375 -10.945312 2.90625 -11 C 2.71875 -11.050781 2.476562 -11.039062 2.1875 -10.96875 C 1.90625 -10.90625 1.5625 -10.765625 1.15625 -10.546875 C 0.757812 -10.328125 0.269531 -10.015625 -0.3125 -9.609375 C -1.007812 -9.128906 -1.675781 -8.71875 -2.3125 -8.375 C -2.945312 -8.039062 -3.554688 -7.820312 -4.140625 -7.71875 C -4.734375 -7.625 -5.316406 -7.660156 -5.890625 -7.828125 C -6.472656 -7.992188 -7.070312 -8.347656 -7.6875 -8.890625 L -7.71875 -8.921875 C -8.28125 -9.429688 -8.691406 -9.988281 -8.953125 -10.59375 C -9.210938 -11.207031 -9.332031 -11.847656 -9.3125 -12.515625 C -9.300781 -13.191406 -9.144531 -13.867188 -8.84375 -14.546875 C -8.550781 -15.222656 -8.125 -15.878906 -7.5625 -16.515625 C -6.238281 -17.992188 -4.71875 -18.960938 -3 -19.421875 C -2.78125 -19.484375 -2.523438 -19.5 -2.234375 -19.46875 C -1.941406 -19.4375 -1.664062 -19.304688 -1.40625 -19.078125 C -1.050781 -18.765625 -0.863281 -18.375 -0.84375 -17.90625 C -0.820312 -17.445312 -0.972656 -17.039062 -1.296875 -16.6875 C -1.515625 -16.445312 -1.785156 -16.285156 -2.109375 -16.203125 C -3.441406 -15.796875 -4.476562 -15.175781 -5.21875 -14.34375 C -5.6875 -13.820312 -5.9375 -13.34375 -5.96875 -12.90625 C -6 -12.46875 -5.863281 -12.113281 -5.5625 -11.84375 L -5.53125 -11.8125 C -5.3125 -11.613281 -5.097656 -11.488281 -4.890625 -11.4375 C -4.691406 -11.382812 -4.445312 -11.410156 -4.15625 -11.515625 C -3.863281 -11.617188 -3.507812 -11.789062 -3.09375 -12.03125 C -2.675781 -12.269531 -2.160156 -12.59375 -1.546875 -13 C -0.835938 -13.46875 -0.164062 -13.851562 0.46875 -14.15625 C 1.101562 -14.457031 1.710938 -14.644531 2.296875 -14.71875 C 2.890625 -14.800781 3.453125 -14.753906 3.984375 -14.578125 C 4.515625 -14.398438 5.046875 -14.070312 5.578125 -13.59375 L 5.609375 -13.5625 C 6.210938 -13.007812 6.648438 -12.410156 6.921875 -11.765625 C 7.203125 -11.117188 7.320312 -10.453125 7.28125 -9.765625 C 7.25 -9.085938 7.070312 -8.398438 6.75 -7.703125 C 6.4375 -7.003906 5.984375 -6.320312 5.390625 -5.65625 C 4.671875 -4.863281 3.835938 -4.179688 2.890625 -3.609375 C 1.941406 -3.046875 0.910156 -2.632812 -0.203125 -2.375 C -0.441406 -2.320312 -0.691406 -2.328125 -0.953125 -2.390625 C -1.210938 -2.460938 -1.445312 -2.59375 -1.65625 -2.78125 C -2.007812 -3.09375 -2.195312 -3.476562 -2.21875 -3.9375 C -2.238281 -4.40625 -2.09375 -4.816406 -1.78125 -5.171875 Z M -1.78125 -5.171875 "/></g></g></g><g fill="#ffffff" fill-opacity="1"><g transform="translate(94.29601, 101.092462)"><g><path d="M -8.328125 -12.265625 C -8.628906 -12.671875 -8.734375 -13.117188 -8.640625 -13.609375 C -8.554688 -14.097656 -8.316406 -14.492188 -7.921875 -14.796875 C -7.585938 -15.046875 -7.222656 -15.164062 -6.828125 -15.15625 C -6.429688 -15.15625 -6.070312 -15.046875 -5.75 -14.828125 L 2.953125 -8.78125 L -0.484375 -18.71875 C -0.617188 -19.132812 -0.640625 -19.539062 -0.546875 -19.9375 C -0.460938 -20.34375 -0.238281 -20.6875 0.125 -20.96875 L 0.34375 -21.140625 C 0.695312 -21.410156 1.078125 -21.535156 1.484375 -21.515625 C 1.890625 -21.503906 2.28125 -21.375 2.65625 -21.125 L 11.3125 -15.15625 L 7.828125 -25.140625 C 7.703125 -25.503906 7.675781 -25.875 7.75 -26.25 C 7.832031 -26.625 8.054688 -26.945312 8.421875 -27.21875 C 8.816406 -27.53125 9.25 -27.65625 9.71875 -27.59375 C 10.195312 -27.539062 10.585938 -27.316406 10.890625 -26.921875 C 10.953125 -26.835938 11.007812 -26.734375 11.0625 -26.609375 C 11.113281 -26.492188 11.164062 -26.378906 11.21875 -26.265625 L 15.375 -13.21875 C 15.5 -12.757812 15.515625 -12.320312 15.421875 -11.90625 C 15.335938 -11.5 15.117188 -11.160156 14.765625 -10.890625 L 14.46875 -10.671875 C 14.113281 -10.398438 13.734375 -10.273438 13.328125 -10.296875 C 12.921875 -10.316406 12.507812 -10.460938 12.09375 -10.734375 L 3.828125 -16.25 L 6.9375 -6.8125 C 7.082031 -6.332031 7.109375 -5.894531 7.015625 -5.5 C 6.929688 -5.101562 6.710938 -4.769531 6.359375 -4.5 L 6.0625 -4.28125 C 5.71875 -4.007812 5.332031 -3.882812 4.90625 -3.90625 C 4.488281 -3.9375 4.078125 -4.070312 3.671875 -4.3125 L -7.796875 -11.796875 C -7.898438 -11.878906 -7.992188 -11.957031 -8.078125 -12.03125 C -8.171875 -12.101562 -8.253906 -12.179688 -8.328125 -12.265625 Z M -8.328125 -12.265625 "/></g></g></g><g fill="#ffffff" fill-opacity="1"><g transform="translate(118.078521, 84.273845)"><g/></g></g><g fill="#ffffff" fill-opacity="1"><g transform="translate(127.498527, 79.148452)"><g><path d="M -3.375 -14.375 C -3.550781 -14.832031 -3.535156 -15.285156 -3.328125 -15.734375 C -3.128906 -16.191406 -2.796875 -16.507812 -2.328125 -16.6875 L 3 -18.71875 C 3.820312 -19.03125 4.617188 -19.21875 5.390625 -19.28125 C 6.171875 -19.351562 6.898438 -19.28125 7.578125 -19.0625 C 8.265625 -18.84375 8.875 -18.46875 9.40625 -17.9375 C 9.945312 -17.414062 10.382812 -16.722656 10.71875 -15.859375 L 10.734375 -15.8125 C 11.203125 -14.582031 11.300781 -13.488281 11.03125 -12.53125 C 10.769531 -11.570312 10.242188 -10.726562 9.453125 -10 L 12.890625 -8.03125 C 13.117188 -7.882812 13.320312 -7.734375 13.5 -7.578125 C 13.675781 -7.421875 13.816406 -7.210938 13.921875 -6.953125 C 14.097656 -6.484375 14.078125 -6.039062 13.859375 -5.625 C 13.640625 -5.21875 13.328125 -4.9375 12.921875 -4.78125 C 12.546875 -4.632812 12.191406 -4.59375 11.859375 -4.65625 C 11.535156 -4.726562 11.226562 -4.851562 10.9375 -5.03125 L 6.03125 -7.921875 L 3.34375 -6.890625 L 4.625 -3.546875 C 4.800781 -3.078125 4.785156 -2.613281 4.578125 -2.15625 C 4.378906 -1.707031 4.046875 -1.394531 3.578125 -1.21875 C 3.109375 -1.039062 2.644531 -1.050781 2.1875 -1.25 C 1.738281 -1.457031 1.425781 -1.796875 1.25 -2.265625 Z M 0.53125 -14.296875 L 2.203125 -9.875 L 5.625 -11.1875 C 6.457031 -11.5 7.019531 -11.9375 7.3125 -12.5 C 7.613281 -13.070312 7.640625 -13.6875 7.390625 -14.34375 L 7.375 -14.390625 C 7.09375 -15.140625 6.648438 -15.601562 6.046875 -15.78125 C 5.441406 -15.96875 4.71875 -15.898438 3.875 -15.578125 Z M 0.53125 -14.296875 "/></g></g></g><g fill="#ffffff" fill-opacity="1"><g transform="translate(146.645229, 72.188667)"><g><path d="M 1.546875 -2.1875 L -1.0625 -14.71875 C -1.15625 -15.207031 -1.0625 -15.660156 -0.78125 -16.078125 C -0.507812 -16.492188 -0.128906 -16.75 0.359375 -16.84375 L 9.28125 -18.703125 C 9.71875 -18.796875 10.117188 -18.71875 10.484375 -18.46875 C 10.859375 -18.226562 11.09375 -17.890625 11.1875 -17.453125 C 11.28125 -17.003906 11.203125 -16.597656 10.953125 -16.234375 C 10.710938 -15.878906 10.375 -15.65625 9.9375 -15.5625 L 2.765625 -14.078125 L 3.4375 -10.8125 L 9.5625 -12.078125 C 10.007812 -12.171875 10.414062 -12.09375 10.78125 -11.84375 C 11.15625 -11.601562 11.390625 -11.265625 11.484375 -10.828125 C 11.578125 -10.378906 11.5 -9.972656 11.25 -9.609375 C 11.007812 -9.253906 10.664062 -9.03125 10.21875 -8.9375 L 4.09375 -7.671875 L 4.796875 -4.296875 L 12.078125 -5.8125 C 12.523438 -5.894531 12.929688 -5.816406 13.296875 -5.578125 C 13.660156 -5.335938 13.890625 -4.992188 13.984375 -4.546875 C 14.078125 -4.109375 14.003906 -3.703125 13.765625 -3.328125 C 13.523438 -2.960938 13.179688 -2.738281 12.734375 -2.65625 L 3.703125 -0.765625 C 3.210938 -0.671875 2.753906 -0.757812 2.328125 -1.03125 C 1.910156 -1.3125 1.648438 -1.695312 1.546875 -2.1875 Z M 1.546875 -2.1875 "/></g></g></g><g fill="#ffffff" fill-opacity="1"><g transform="translate(165.465164, 68.546078)"><g><path d="M 1.21875 -14.703125 C 1.195312 -15.203125 1.351562 -15.632812 1.6875 -16 C 2.03125 -16.375 2.453125 -16.570312 2.953125 -16.59375 L 7.84375 -16.84375 C 8.820312 -16.894531 9.703125 -16.804688 10.484375 -16.578125 C 11.273438 -16.347656 11.953125 -15.992188 12.515625 -15.515625 C 13.085938 -15.046875 13.535156 -14.46875 13.859375 -13.78125 C 14.179688 -13.101562 14.363281 -12.34375 14.40625 -11.5 L 14.40625 -11.453125 C 14.457031 -10.492188 14.328125 -9.644531 14.015625 -8.90625 C 13.710938 -8.164062 13.273438 -7.539062 12.703125 -7.03125 C 12.128906 -6.53125 11.441406 -6.132812 10.640625 -5.84375 C 9.847656 -5.5625 8.988281 -5.394531 8.0625 -5.34375 L 5.328125 -5.203125 L 5.5 -1.953125 C 5.519531 -1.453125 5.363281 -1.015625 5.03125 -0.640625 C 4.695312 -0.273438 4.28125 -0.078125 3.78125 -0.046875 C 3.28125 -0.0234375 2.84375 -0.179688 2.46875 -0.515625 C 2.101562 -0.847656 1.910156 -1.265625 1.890625 -1.765625 Z M 5.171875 -8.40625 L 8.03125 -8.5625 C 8.9375 -8.601562 9.625 -8.875 10.09375 -9.375 C 10.570312 -9.882812 10.789062 -10.488281 10.75 -11.1875 L 10.75 -11.234375 C 10.707031 -12.054688 10.410156 -12.664062 9.859375 -13.0625 C 9.316406 -13.457031 8.59375 -13.628906 7.6875 -13.578125 L 4.90625 -13.4375 Z M 5.171875 -8.40625 "/></g></g></g><g fill="#ffffff" fill-opacity="1"><g transform="translate(184.826905, 68.047033)"><g/></g></g><g fill="#ffffff" fill-opacity="1"><g transform="translate(195.577832, 68.791535)"><g><path d="M 3.5 -4.1875 C 3.726562 -4.144531 3.914062 -4.070312 4.0625 -3.96875 C 4.21875 -3.863281 4.351562 -3.765625 4.46875 -3.671875 C 4.988281 -3.097656 5.5625 -2.613281 6.1875 -2.21875 C 6.8125 -1.832031 7.519531 -1.566406 8.3125 -1.421875 C 9.050781 -1.273438 9.644531 -1.296875 10.09375 -1.484375 C 10.550781 -1.679688 10.820312 -2.015625 10.90625 -2.484375 L 10.921875 -2.53125 C 10.960938 -2.757812 10.960938 -2.96875 10.921875 -3.15625 C 10.878906 -3.351562 10.75 -3.554688 10.53125 -3.765625 C 10.320312 -3.972656 10.019531 -4.191406 9.625 -4.421875 C 9.238281 -4.660156 8.722656 -4.921875 8.078125 -5.203125 C 7.296875 -5.566406 6.597656 -5.929688 5.984375 -6.296875 C 5.378906 -6.660156 4.878906 -7.066406 4.484375 -7.515625 C 4.085938 -7.972656 3.8125 -8.492188 3.65625 -9.078125 C 3.507812 -9.671875 3.515625 -10.367188 3.671875 -11.171875 L 3.671875 -11.21875 C 3.816406 -11.957031 4.082031 -12.59375 4.46875 -13.125 C 4.863281 -13.664062 5.351562 -14.101562 5.9375 -14.4375 C 6.519531 -14.769531 7.175781 -14.984375 7.90625 -15.078125 C 8.644531 -15.179688 9.429688 -15.15625 10.265625 -15 C 12.210938 -14.625 13.828125 -13.820312 15.109375 -12.59375 C 15.273438 -12.425781 15.421875 -12.210938 15.546875 -11.953125 C 15.671875 -11.691406 15.695312 -11.382812 15.625 -11.03125 C 15.539062 -10.570312 15.304688 -10.210938 14.921875 -9.953125 C 14.535156 -9.703125 14.109375 -9.625 13.640625 -9.71875 C 13.316406 -9.769531 13.035156 -9.914062 12.796875 -10.15625 C 11.765625 -11.09375 10.703125 -11.664062 9.609375 -11.875 C 8.921875 -12.007812 8.378906 -11.972656 7.984375 -11.765625 C 7.585938 -11.566406 7.347656 -11.269531 7.265625 -10.875 L 7.265625 -10.828125 C 7.203125 -10.546875 7.203125 -10.300781 7.265625 -10.09375 C 7.335938 -9.882812 7.488281 -9.679688 7.71875 -9.484375 C 7.957031 -9.296875 8.285156 -9.082031 8.703125 -8.84375 C 9.128906 -8.613281 9.675781 -8.34375 10.34375 -8.03125 C 11.113281 -7.65625 11.789062 -7.269531 12.375 -6.875 C 12.957031 -6.488281 13.429688 -6.0625 13.796875 -5.59375 C 14.171875 -5.132812 14.414062 -4.628906 14.53125 -4.078125 C 14.65625 -3.535156 14.648438 -2.910156 14.515625 -2.203125 L 14.515625 -2.15625 C 14.359375 -1.363281 14.070312 -0.679688 13.65625 -0.109375 C 13.25 0.453125 12.742188 0.894531 12.140625 1.21875 C 11.535156 1.539062 10.851562 1.742188 10.09375 1.828125 C 9.332031 1.910156 8.507812 1.867188 7.625 1.703125 C 6.570312 1.503906 5.5625 1.144531 4.59375 0.625 C 3.625 0.101562 2.738281 -0.566406 1.9375 -1.390625 C 1.769531 -1.578125 1.644531 -1.796875 1.5625 -2.046875 C 1.488281 -2.304688 1.476562 -2.570312 1.53125 -2.84375 C 1.625 -3.3125 1.859375 -3.671875 2.234375 -3.921875 C 2.617188 -4.179688 3.039062 -4.269531 3.5 -4.1875 Z M 3.5 -4.1875 "/></g></g></g><g fill="#ffffff" fill-opacity="1"><g transform="translate(213.686776, 72.507823)"><g><path d="M 2.46875 -1.046875 L 6.75 -13.125 C 6.914062 -13.59375 7.222656 -13.929688 7.671875 -14.140625 C 8.128906 -14.347656 8.59375 -14.367188 9.0625 -14.203125 L 17.640625 -11.15625 C 18.066406 -11 18.375 -10.722656 18.5625 -10.328125 C 18.75 -9.929688 18.765625 -9.519531 18.609375 -9.09375 C 18.460938 -8.664062 18.191406 -8.359375 17.796875 -8.171875 C 17.398438 -7.992188 16.988281 -7.984375 16.5625 -8.140625 L 9.65625 -10.59375 L 8.546875 -7.453125 L 14.453125 -5.359375 C 14.890625 -5.203125 15.195312 -4.921875 15.375 -4.515625 C 15.5625 -4.117188 15.582031 -3.707031 15.4375 -3.28125 C 15.28125 -2.851562 15.003906 -2.546875 14.609375 -2.359375 C 14.222656 -2.179688 13.8125 -2.171875 13.375 -2.328125 L 7.46875 -4.421875 L 6.3125 -1.171875 L 13.328125 1.328125 C 13.753906 1.472656 14.0625 1.742188 14.25 2.140625 C 14.445312 2.535156 14.46875 2.953125 14.3125 3.390625 C 14.164062 3.804688 13.890625 4.109375 13.484375 4.296875 C 13.085938 4.484375 12.675781 4.503906 12.25 4.359375 L 3.5625 1.265625 C 3.09375 1.097656 2.75 0.785156 2.53125 0.328125 C 2.320312 -0.117188 2.300781 -0.578125 2.46875 -1.046875 Z M 2.46875 -1.046875 "/></g></g></g><g fill="#ffffff" fill-opacity="1"><g transform="translate(231.642323, 79.122408)"><g><path d="M 8.75 -11.890625 C 8.988281 -12.328125 9.34375 -12.613281 9.8125 -12.75 C 10.289062 -12.882812 10.75 -12.832031 11.1875 -12.59375 L 16.203125 -9.859375 C 16.960938 -9.429688 17.617188 -8.941406 18.171875 -8.390625 C 18.734375 -7.835938 19.148438 -7.234375 19.421875 -6.578125 C 19.691406 -5.929688 19.804688 -5.234375 19.765625 -4.484375 C 19.722656 -3.734375 19.476562 -2.953125 19.03125 -2.140625 L 19 -2.09375 C 18.375 -0.9375 17.609375 -0.148438 16.703125 0.265625 C 15.796875 0.691406 14.804688 0.84375 13.734375 0.71875 L 14.46875 4.609375 C 14.507812 4.878906 14.523438 5.128906 14.515625 5.359375 C 14.515625 5.597656 14.445312 5.84375 14.3125 6.09375 C 14.070312 6.53125 13.726562 6.796875 13.28125 6.890625 C 12.832031 6.992188 12.414062 6.941406 12.03125 6.734375 C 11.675781 6.546875 11.414062 6.300781 11.25 6 C 11.082031 5.707031 10.96875 5.394531 10.90625 5.0625 L 9.9375 -0.546875 L 7.40625 -1.9375 L 5.6875 1.203125 C 5.445312 1.640625 5.085938 1.929688 4.609375 2.078125 C 4.140625 2.222656 3.6875 2.175781 3.25 1.9375 C 2.8125 1.695312 2.519531 1.332031 2.375 0.84375 C 2.238281 0.363281 2.289062 -0.09375 2.53125 -0.53125 Z M 11.21875 -8.890625 L 8.953125 -4.75 L 12.171875 -2.984375 C 12.953125 -2.554688 13.65625 -2.410156 14.28125 -2.546875 C 14.90625 -2.691406 15.382812 -3.066406 15.71875 -3.671875 L 15.734375 -3.71875 C 16.117188 -4.425781 16.179688 -5.066406 15.921875 -5.640625 C 15.671875 -6.222656 15.15625 -6.726562 14.375 -7.15625 Z M 11.21875 -8.890625 "/></g></g></g><g fill="#ffffff" fill-opacity="1"><g transform="translate(249.352113, 89.121665)"><g><path d="M 12.28125 -11.40625 C 12.65625 -11.125 12.882812 -10.789062 12.96875 -10.40625 C 13.0625 -10.03125 13.050781 -9.660156 12.9375 -9.296875 L 9.609375 1.609375 L 19.53125 -4.296875 C 19.800781 -4.441406 20.125 -4.515625 20.5 -4.515625 C 20.882812 -4.515625 21.25 -4.378906 21.59375 -4.109375 C 21.988281 -3.804688 22.21875 -3.421875 22.28125 -2.953125 C 22.351562 -2.484375 22.234375 -2.050781 21.921875 -1.65625 C 21.835938 -1.550781 21.738281 -1.453125 21.625 -1.359375 C 21.507812 -1.265625 21.394531 -1.195312 21.28125 -1.15625 L 9.125 5.65625 C 8.226562 6.164062 7.398438 6.125 6.640625 5.53125 L 6.453125 5.390625 C 5.691406 4.785156 5.445312 3.988281 5.71875 3 L 9.40625 -10.3125 C 9.4375 -10.46875 9.476562 -10.609375 9.53125 -10.734375 C 9.59375 -10.867188 9.675781 -11 9.78125 -11.125 C 10.082031 -11.507812 10.472656 -11.726562 10.953125 -11.78125 C 11.441406 -11.84375 11.882812 -11.71875 12.28125 -11.40625 Z M 12.28125 -11.40625 "/></g></g></g><g fill="#ffffff" fill-opacity="1"><g transform="translate(265.237641, 101.986069)"><g><path d="M 2.671875 0.203125 L 12.078125 -8.5 C 12.441406 -8.832031 12.867188 -8.988281 13.359375 -8.96875 C 13.859375 -8.945312 14.273438 -8.75 14.609375 -8.375 L 20.796875 -1.6875 C 21.097656 -1.363281 21.238281 -0.976562 21.21875 -0.53125 C 21.207031 -0.09375 21.039062 0.273438 20.71875 0.578125 C 20.382812 0.890625 20 1.03125 19.5625 1 C 19.125 0.976562 18.753906 0.804688 18.453125 0.484375 L 13.484375 -4.90625 L 11.03125 -2.625 L 15.28125 1.984375 C 15.59375 2.316406 15.738281 2.703125 15.71875 3.140625 C 15.707031 3.585938 15.535156 3.960938 15.203125 4.265625 C 14.867188 4.578125 14.484375 4.71875 14.046875 4.6875 C 13.609375 4.664062 13.234375 4.488281 12.921875 4.15625 L 8.671875 -0.453125 L 6.140625 1.890625 L 11.1875 7.359375 C 11.5 7.691406 11.644531 8.078125 11.625 8.515625 C 11.613281 8.960938 11.441406 9.34375 11.109375 9.65625 C 10.773438 9.957031 10.390625 10.097656 9.953125 10.078125 C 9.515625 10.054688 9.140625 9.878906 8.828125 9.546875 L 2.5625 2.78125 C 2.226562 2.40625 2.070312 1.96875 2.09375 1.46875 C 2.113281 0.96875 2.304688 0.546875 2.671875 0.203125 Z M 2.671875 0.203125 "/></g></g></g><g fill="#ffffff" fill-opacity="1"><g transform="translate(278.070107, 116.17981)"><g><path d="M 13.265625 -6.46875 C 13.679688 -6.738281 14.132812 -6.820312 14.625 -6.71875 C 15.113281 -6.625 15.492188 -6.367188 15.765625 -5.953125 L 18.921875 -1.203125 C 19.410156 -0.472656 19.769531 0.257812 20 1 C 20.238281 1.75 20.328125 2.476562 20.265625 3.1875 C 20.203125 3.894531 19.972656 4.570312 19.578125 5.21875 C 19.191406 5.863281 18.613281 6.441406 17.84375 6.953125 L 17.796875 6.984375 C 16.710938 7.703125 15.671875 8.035156 14.671875 7.984375 C 13.671875 7.941406 12.722656 7.613281 11.828125 7 L 10.6875 10.796875 C 10.59375 11.054688 10.488281 11.289062 10.375 11.5 C 10.257812 11.707031 10.085938 11.890625 9.859375 12.046875 C 9.441406 12.316406 9.007812 12.390625 8.5625 12.265625 C 8.113281 12.148438 7.769531 11.910156 7.53125 11.546875 C 7.300781 11.210938 7.179688 10.878906 7.171875 10.546875 C 7.171875 10.210938 7.21875 9.878906 7.3125 9.546875 L 9.0625 4.140625 L 7.46875 1.734375 L 4.484375 3.71875 C 4.066406 3.988281 3.613281 4.078125 3.125 3.984375 C 2.644531 3.890625 2.265625 3.632812 1.984375 3.21875 C 1.710938 2.800781 1.625 2.347656 1.71875 1.859375 C 1.8125 1.367188 2.066406 0.988281 2.484375 0.71875 Z M 14.0625 -2.65625 L 10.125 -0.046875 L 12.15625 3.015625 C 12.644531 3.753906 13.195312 4.203125 13.8125 4.359375 C 14.4375 4.523438 15.039062 4.414062 15.625 4.03125 L 15.65625 4 C 16.320312 3.5625 16.675781 3.023438 16.71875 2.390625 C 16.769531 1.765625 16.546875 1.082031 16.046875 0.34375 Z M 14.0625 -2.65625 "/></g></g></g><g fill="#ffffff" fill-opacity="1"><g transform="translate(93.597865, 289.881571)"><g><path d="M 8.734375 -9.5 C 8.984375 -9.851562 9.320312 -10.066406 9.75 -10.140625 C 10.175781 -10.222656 10.566406 -10.132812 10.921875 -9.875 C 11.273438 -9.632812 11.488281 -9.300781 11.5625 -8.875 C 11.644531 -8.445312 11.5625 -8.054688 11.3125 -7.703125 L 8.5625 -3.78125 L 16.59375 -5.171875 C 16.851562 -5.203125 17.097656 -5.203125 17.328125 -5.171875 C 17.554688 -5.148438 17.785156 -5.066406 18.015625 -4.921875 C 18.367188 -4.660156 18.570312 -4.335938 18.625 -3.953125 C 18.6875 -3.566406 18.609375 -3.210938 18.390625 -2.890625 C 18.242188 -2.691406 18.070312 -2.546875 17.875 -2.453125 C 17.675781 -2.359375 17.457031 -2.289062 17.21875 -2.25 L 11.8125 -1.484375 L 12.234375 5.515625 C 12.242188 5.703125 12.226562 5.890625 12.1875 6.078125 C 12.15625 6.273438 12.078125 6.46875 11.953125 6.65625 C 11.703125 7.019531 11.367188 7.234375 10.953125 7.296875 C 10.546875 7.367188 10.148438 7.269531 9.765625 7 C 9.515625 6.832031 9.347656 6.632812 9.265625 6.40625 C 9.179688 6.175781 9.132812 5.914062 9.125 5.625 L 8.84375 -1.078125 L 6.4375 -0.734375 L 4.796875 1.609375 C 4.546875 1.953125 4.207031 2.160156 3.78125 2.234375 C 3.351562 2.316406 2.960938 2.238281 2.609375 2 C 2.253906 1.738281 2.035156 1.394531 1.953125 0.96875 C 1.878906 0.539062 1.96875 0.15625 2.21875 -0.1875 Z M 8.734375 -9.5 "/></g></g></g><g fill="#ffffff" fill-opacity="1"><g transform="translate(108.694609, 300.195338)"><g><path d="M 1.734375 -1.375 L 11.28125 -9.0625 C 11.625 -9.320312 11.984375 -9.476562 12.359375 -9.53125 C 12.734375 -9.59375 13.109375 -9.523438 13.484375 -9.328125 L 13.65625 -9.234375 C 14.039062 -9.035156 14.316406 -8.769531 14.484375 -8.4375 C 14.648438 -8.101562 14.71875 -7.722656 14.6875 -7.296875 L 13.953125 4.9375 C 13.910156 5.25 13.863281 5.457031 13.8125 5.5625 C 13.613281 5.9375 13.316406 6.1875 12.921875 6.3125 C 12.535156 6.445312 12.160156 6.421875 11.796875 6.234375 C 11.472656 6.066406 11.25 5.835938 11.125 5.546875 C 11 5.253906 10.945312 4.9375 10.96875 4.59375 L 11.140625 2.171875 L 5.578125 -0.703125 L 3.609375 0.890625 C 3.347656 1.109375 3.066406 1.234375 2.765625 1.265625 C 2.460938 1.304688 2.164062 1.253906 1.875 1.109375 C 1.507812 0.921875 1.269531 0.632812 1.15625 0.25 C 1.050781 -0.125 1.085938 -0.488281 1.265625 -0.84375 C 1.316406 -0.9375 1.378906 -1.03125 1.453125 -1.125 C 1.535156 -1.21875 1.628906 -1.300781 1.734375 -1.375 Z M 7.875 -2.640625 L 11.375 -0.84375 L 11.78125 -5.90625 Z M 7.875 -2.640625 "/></g></g></g><g fill="#ffffff" fill-opacity="1"><g transform="translate(126.074745, 308.935342)"><g><path d="M 2.0625 -0.78125 L 5.734375 -11.515625 C 5.878906 -11.929688 6.144531 -12.234375 6.53125 -12.421875 C 6.925781 -12.617188 7.332031 -12.644531 7.75 -12.5 L 8.0625 -12.390625 C 8.382812 -12.273438 8.628906 -12.101562 8.796875 -11.875 C 8.960938 -11.65625 9.082031 -11.410156 9.15625 -11.140625 L 10.734375 -4.09375 L 16.34375 -8.703125 C 16.820312 -9.109375 17.347656 -9.210938 17.921875 -9.015625 L 18.25 -8.90625 C 18.65625 -8.757812 18.953125 -8.488281 19.140625 -8.09375 C 19.335938 -7.707031 19.363281 -7.304688 19.21875 -6.890625 L 15.5625 3.8125 C 15.425781 4.21875 15.160156 4.515625 14.765625 4.703125 C 14.367188 4.898438 13.96875 4.925781 13.5625 4.78125 C 13.15625 4.644531 12.863281 4.378906 12.6875 3.984375 C 12.507812 3.597656 12.488281 3.203125 12.625 2.796875 L 14.921875 -3.921875 L 10.9375 -0.8125 C 10.707031 -0.632812 10.46875 -0.507812 10.21875 -0.4375 C 9.976562 -0.375 9.722656 -0.390625 9.453125 -0.484375 C 9.179688 -0.578125 8.96875 -0.722656 8.8125 -0.921875 C 8.664062 -1.128906 8.550781 -1.375 8.46875 -1.65625 L 7.265625 -6.484375 L 4.96875 0.21875 C 4.832031 0.632812 4.578125 0.929688 4.203125 1.109375 C 3.828125 1.296875 3.429688 1.316406 3.015625 1.171875 C 2.597656 1.023438 2.300781 0.765625 2.125 0.390625 C 1.945312 0.0234375 1.925781 -0.363281 2.0625 -0.78125 Z M 2.0625 -0.78125 "/></g></g></g><g fill="#ffffff" fill-opacity="1"><g transform="translate(146.409973, 315.35401)"><g><path d="M 4.546875 -12.109375 C 4.640625 -12.535156 4.867188 -12.863281 5.234375 -13.09375 C 5.597656 -13.320312 5.992188 -13.390625 6.421875 -13.296875 C 6.835938 -13.203125 7.164062 -12.972656 7.40625 -12.609375 C 7.644531 -12.253906 7.71875 -11.863281 7.625 -11.4375 L 5.1875 -0.34375 C 5.09375 0.0703125 4.859375 0.398438 4.484375 0.640625 C 4.117188 0.878906 3.726562 0.953125 3.3125 0.859375 C 2.882812 0.765625 2.550781 0.53125 2.3125 0.15625 C 2.082031 -0.207031 2.015625 -0.597656 2.109375 -1.015625 Z M 4.546875 -12.109375 "/></g></g></g><g fill="#ffffff" fill-opacity="1"><g transform="translate(156.587442, 317.553416)"><g><path d="M 3.234375 -12.5 C 3.285156 -12.9375 3.484375 -13.285156 3.828125 -13.546875 C 4.171875 -13.804688 4.554688 -13.910156 4.984375 -13.859375 C 5.410156 -13.804688 5.757812 -13.613281 6.03125 -13.28125 C 6.300781 -12.945312 6.410156 -12.5625 6.359375 -12.125 L 5.15625 -2.25 L 10.90625 -1.546875 C 11.300781 -1.492188 11.617188 -1.3125 11.859375 -1 C 12.097656 -0.695312 12.191406 -0.347656 12.140625 0.046875 C 12.085938 0.429688 11.910156 0.742188 11.609375 0.984375 C 11.304688 1.234375 10.957031 1.332031 10.5625 1.28125 L 3.25 0.390625 C 2.820312 0.335938 2.472656 0.140625 2.203125 -0.203125 C 1.929688 -0.546875 1.820312 -0.925781 1.875 -1.34375 Z M 3.234375 -12.5 "/></g></g></g><g fill="#ffffff" fill-opacity="1"><g transform="translate(172.643573, 319.185305)"><g><path d="M 2.671875 0.203125 L 2.671875 0.078125 C 2.273438 -0.0351562 1.941406 -0.25 1.671875 -0.5625 C 1.398438 -0.875 1.269531 -1.242188 1.28125 -1.671875 C 1.300781 -2.179688 1.46875 -2.582031 1.78125 -2.875 C 2.101562 -3.164062 2.515625 -3.300781 3.015625 -3.28125 C 3.367188 -3.269531 3.660156 -3.191406 3.890625 -3.046875 C 4.128906 -2.910156 4.3125 -2.726562 4.4375 -2.5 C 4.5625 -2.269531 4.648438 -2.015625 4.703125 -1.734375 C 4.753906 -1.460938 4.773438 -1.175781 4.765625 -0.875 C 4.742188 -0.363281 4.679688 0.144531 4.578125 0.65625 C 4.472656 1.164062 4.300781 1.617188 4.0625 2.015625 C 3.820312 2.421875 3.503906 2.75 3.109375 3 C 2.722656 3.25 2.238281 3.363281 1.65625 3.34375 C 1.425781 3.34375 1.238281 3.28125 1.09375 3.15625 C 0.945312 3.039062 0.878906 2.867188 0.890625 2.640625 C 0.898438 2.378906 0.992188 2.195312 1.171875 2.09375 C 1.347656 2 1.546875 1.894531 1.765625 1.78125 C 1.984375 1.664062 2.179688 1.5 2.359375 1.28125 C 2.546875 1.0625 2.648438 0.703125 2.671875 0.203125 Z M 2.671875 0.203125 "/></g></g></g><g fill="#ffffff" fill-opacity="1"><g transform="translate(182.118139, 319.578946)"><g><path d="M 7.5 -15.125 C 8.59375 -15.207031 9.609375 -15.09375 10.546875 -14.78125 C 11.492188 -14.46875 12.328125 -14.015625 13.046875 -13.421875 C 13.773438 -12.828125 14.363281 -12.097656 14.8125 -11.234375 C 15.257812 -10.367188 15.523438 -9.429688 15.609375 -8.421875 L 15.609375 -8.390625 C 15.691406 -7.367188 15.578125 -6.394531 15.265625 -5.46875 C 14.953125 -4.550781 14.484375 -3.734375 13.859375 -3.015625 C 13.242188 -2.304688 12.488281 -1.71875 11.59375 -1.25 C 10.707031 -0.789062 9.710938 -0.519531 8.609375 -0.4375 C 7.523438 -0.34375 6.503906 -0.453125 5.546875 -0.765625 C 4.597656 -1.085938 3.765625 -1.546875 3.046875 -2.140625 C 2.328125 -2.742188 1.742188 -3.472656 1.296875 -4.328125 C 0.859375 -5.179688 0.597656 -6.117188 0.515625 -7.140625 L 0.515625 -7.1875 C 0.429688 -8.1875 0.546875 -9.144531 0.859375 -10.0625 C 1.171875 -10.988281 1.628906 -11.8125 2.234375 -12.53125 C 2.847656 -13.25 3.601562 -13.835938 4.5 -14.296875 C 5.40625 -14.765625 6.40625 -15.039062 7.5 -15.125 Z M 8.4375 -3.3125 C 9.070312 -3.363281 9.640625 -3.523438 10.140625 -3.796875 C 10.640625 -4.078125 11.0625 -4.429688 11.40625 -4.859375 C 11.75 -5.296875 12 -5.789062 12.15625 -6.34375 C 12.320312 -6.90625 12.378906 -7.488281 12.328125 -8.09375 L 12.328125 -8.140625 C 12.273438 -8.734375 12.125 -9.289062 11.875 -9.8125 C 11.632812 -10.332031 11.300781 -10.78125 10.875 -11.15625 C 10.457031 -11.539062 9.976562 -11.832031 9.4375 -12.03125 C 8.894531 -12.226562 8.304688 -12.300781 7.671875 -12.25 C 7.046875 -12.195312 6.484375 -12.035156 5.984375 -11.765625 C 5.484375 -11.492188 5.0625 -11.140625 4.71875 -10.703125 C 4.375 -10.265625 4.117188 -9.769531 3.953125 -9.21875 C 3.785156 -8.664062 3.726562 -8.085938 3.78125 -7.484375 L 3.78125 -7.453125 C 3.832031 -6.835938 3.984375 -6.265625 4.234375 -5.734375 C 4.484375 -5.210938 4.816406 -4.765625 5.234375 -4.390625 C 5.648438 -4.015625 6.128906 -3.726562 6.671875 -3.53125 C 7.222656 -3.332031 7.8125 -3.257812 8.4375 -3.3125 Z M 8.4375 -3.3125 "/></g></g></g><g fill="#ffffff" fill-opacity="1"><g transform="translate(203.103061, 317.508219)"><g><path d="M 1.375 -4.515625 C 1.570312 -4.566406 1.742188 -4.578125 1.890625 -4.546875 C 2.046875 -4.515625 2.179688 -4.476562 2.296875 -4.4375 C 2.910156 -4.164062 3.53125 -3.976562 4.15625 -3.875 C 4.789062 -3.78125 5.445312 -3.804688 6.125 -3.953125 C 6.757812 -4.097656 7.226562 -4.320312 7.53125 -4.625 C 7.832031 -4.9375 7.941406 -5.296875 7.859375 -5.703125 L 7.84375 -5.75 C 7.800781 -5.945312 7.726562 -6.113281 7.625 -6.25 C 7.519531 -6.382812 7.347656 -6.5 7.109375 -6.59375 C 6.867188 -6.6875 6.550781 -6.753906 6.15625 -6.796875 C 5.769531 -6.847656 5.269531 -6.882812 4.65625 -6.90625 C 3.914062 -6.914062 3.234375 -6.960938 2.609375 -7.046875 C 1.992188 -7.140625 1.453125 -7.300781 0.984375 -7.53125 C 0.523438 -7.757812 0.140625 -8.082031 -0.171875 -8.5 C -0.492188 -8.914062 -0.734375 -9.46875 -0.890625 -10.15625 L -0.90625 -10.203125 C -1.039062 -10.835938 -1.039062 -11.429688 -0.90625 -11.984375 C -0.78125 -12.546875 -0.539062 -13.0625 -0.1875 -13.53125 C 0.15625 -14 0.601562 -14.394531 1.15625 -14.71875 C 1.707031 -15.050781 2.34375 -15.296875 3.0625 -15.453125 C 4.75 -15.816406 6.304688 -15.726562 7.734375 -15.1875 C 7.929688 -15.113281 8.125 -14.992188 8.3125 -14.828125 C 8.5 -14.660156 8.625 -14.421875 8.6875 -14.109375 C 8.769531 -13.710938 8.703125 -13.347656 8.484375 -13.015625 C 8.265625 -12.691406 7.957031 -12.488281 7.5625 -12.40625 C 7.289062 -12.34375 7.015625 -12.351562 6.734375 -12.4375 C 5.597656 -12.84375 4.5625 -12.941406 3.625 -12.734375 C 3.019531 -12.609375 2.59375 -12.394531 2.34375 -12.09375 C 2.09375 -11.800781 2.007812 -11.484375 2.09375 -11.140625 L 2.09375 -11.09375 C 2.144531 -10.851562 2.226562 -10.664062 2.34375 -10.53125 C 2.46875 -10.394531 2.65625 -10.285156 2.90625 -10.203125 C 3.164062 -10.128906 3.503906 -10.070312 3.921875 -10.03125 C 4.335938 -9.988281 4.863281 -9.953125 5.5 -9.921875 C 6.238281 -9.890625 6.90625 -9.816406 7.5 -9.703125 C 8.101562 -9.597656 8.628906 -9.421875 9.078125 -9.171875 C 9.523438 -8.929688 9.890625 -8.613281 10.171875 -8.21875 C 10.460938 -7.820312 10.675781 -7.320312 10.8125 -6.71875 L 10.8125 -6.6875 C 10.96875 -5.988281 10.976562 -5.34375 10.84375 -4.75 C 10.71875 -4.15625 10.46875 -3.625 10.09375 -3.15625 C 9.71875 -2.695312 9.238281 -2.300781 8.65625 -1.96875 C 8.082031 -1.644531 7.421875 -1.40625 6.671875 -1.25 C 5.753906 -1.039062 4.816406 -0.976562 3.859375 -1.0625 C 2.910156 -1.15625 1.984375 -1.390625 1.078125 -1.765625 C 0.867188 -1.859375 0.6875 -1.992188 0.53125 -2.171875 C 0.382812 -2.347656 0.285156 -2.554688 0.234375 -2.796875 C 0.148438 -3.191406 0.21875 -3.554688 0.4375 -3.890625 C 0.664062 -4.222656 0.976562 -4.429688 1.375 -4.515625 Z M 1.375 -4.515625 "/></g></g></g><g fill="#ffffff" fill-opacity="1"><g transform="translate(219.440254, 313.74924)"><g><path d="M -2.65625 -12.625 C -2.800781 -13.039062 -2.78125 -13.441406 -2.59375 -13.828125 C -2.414062 -14.210938 -2.117188 -14.476562 -1.703125 -14.625 C -1.296875 -14.769531 -0.894531 -14.75 -0.5 -14.5625 C -0.113281 -14.382812 0.148438 -14.085938 0.296875 -13.671875 L 1.890625 -9.171875 L 5.421875 -16.515625 C 5.535156 -16.753906 5.671875 -16.957031 5.828125 -17.125 C 5.992188 -17.289062 6.203125 -17.421875 6.453125 -17.515625 C 6.867188 -17.660156 7.25 -17.644531 7.59375 -17.46875 C 7.9375 -17.289062 8.175781 -17.019531 8.3125 -16.65625 C 8.394531 -16.414062 8.414062 -16.1875 8.375 -15.96875 C 8.34375 -15.757812 8.269531 -15.550781 8.15625 -15.34375 L 5.640625 -10.484375 L 11.609375 -6.765625 C 11.753906 -6.660156 11.894531 -6.539062 12.03125 -6.40625 C 12.175781 -6.269531 12.285156 -6.09375 12.359375 -5.875 C 12.503906 -5.457031 12.484375 -5.0625 12.296875 -4.6875 C 12.117188 -4.3125 11.8125 -4.046875 11.375 -3.890625 C 11.09375 -3.785156 10.832031 -3.765625 10.59375 -3.828125 C 10.363281 -3.890625 10.128906 -4.003906 9.890625 -4.171875 L 4.265625 -7.8125 L 3.125 -5.65625 L 4.078125 -2.96875 C 4.222656 -2.5625 4.203125 -2.160156 4.015625 -1.765625 C 3.835938 -1.378906 3.546875 -1.113281 3.140625 -0.96875 C 2.722656 -0.820312 2.316406 -0.84375 1.921875 -1.03125 C 1.535156 -1.21875 1.269531 -1.515625 1.125 -1.921875 Z M -2.65625 -12.625 "/></g></g></g><g fill="#ffffff" fill-opacity="1"><g transform="translate(236.602307, 307.444149)"><g><path d="M -0.109375 -2.21875 L -0.828125 -14.4375 C -0.835938 -14.875 -0.753906 -15.257812 -0.578125 -15.59375 C -0.410156 -15.9375 -0.140625 -16.203125 0.234375 -16.390625 L 0.40625 -16.484375 C 0.789062 -16.679688 1.164062 -16.75 1.53125 -16.6875 C 1.894531 -16.625 2.242188 -16.457031 2.578125 -16.1875 L 12.125 -8.5 C 12.351562 -8.28125 12.492188 -8.117188 12.546875 -8.015625 C 12.742188 -7.640625 12.78125 -7.253906 12.65625 -6.859375 C 12.539062 -6.472656 12.296875 -6.179688 11.921875 -5.984375 C 11.597656 -5.816406 11.28125 -5.765625 10.96875 -5.828125 C 10.664062 -5.898438 10.375 -6.046875 10.09375 -6.265625 L 8.234375 -7.8125 L 2.65625 -4.9375 L 2.828125 -2.421875 C 2.859375 -2.078125 2.800781 -1.769531 2.65625 -1.5 C 2.507812 -1.238281 2.289062 -1.035156 2 -0.890625 C 1.632812 -0.703125 1.265625 -0.671875 0.890625 -0.796875 C 0.515625 -0.921875 0.234375 -1.160156 0.046875 -1.515625 C -0.00390625 -1.609375 -0.0390625 -1.710938 -0.0625 -1.828125 C -0.09375 -1.953125 -0.109375 -2.082031 -0.109375 -2.21875 Z M 2.421875 -7.9375 L 5.921875 -9.734375 L 2.015625 -13.03125 Z M 2.421875 -7.9375 "/></g></g></g><g fill="#ffffff" fill-opacity="1"><g transform="translate(253.707162, 298.325208)"><g><path d="M -5.875 -11.34375 C -6.125 -11.707031 -6.207031 -12.097656 -6.125 -12.515625 C -6.039062 -12.941406 -5.820312 -13.28125 -5.46875 -13.53125 L -1.421875 -16.375 C -0.796875 -16.800781 -0.164062 -17.125 0.46875 -17.34375 C 1.101562 -17.570312 1.726562 -17.664062 2.34375 -17.625 C 2.96875 -17.582031 3.5625 -17.398438 4.125 -17.078125 C 4.695312 -16.753906 5.210938 -16.269531 5.671875 -15.625 L 5.6875 -15.578125 C 6.34375 -14.648438 6.660156 -13.75 6.640625 -12.875 C 6.617188 -12.007812 6.347656 -11.179688 5.828125 -10.390625 L 9.15625 -9.46875 C 9.375 -9.394531 9.570312 -9.304688 9.75 -9.203125 C 9.9375 -9.109375 10.097656 -8.96875 10.234375 -8.78125 C 10.484375 -8.414062 10.5625 -8.035156 10.46875 -7.640625 C 10.375 -7.253906 10.171875 -6.953125 9.859375 -6.734375 C 9.566406 -6.523438 9.273438 -6.414062 8.984375 -6.40625 C 8.691406 -6.40625 8.40625 -6.441406 8.125 -6.515625 L 3.40625 -7.9375 L 1.359375 -6.515625 L 3.140625 -3.953125 C 3.390625 -3.609375 3.476562 -3.21875 3.40625 -2.78125 C 3.332031 -2.351562 3.117188 -2.015625 2.765625 -1.765625 C 2.410156 -1.515625 2.015625 -1.425781 1.578125 -1.5 C 1.148438 -1.582031 0.8125 -1.796875 0.5625 -2.140625 Z M -2.5625 -12.125 L -0.234375 -8.78125 L 2.359375 -10.59375 C 2.992188 -11.039062 3.378906 -11.53125 3.515625 -12.0625 C 3.648438 -12.601562 3.539062 -13.125 3.1875 -13.625 L 3.171875 -13.65625 C 2.773438 -14.226562 2.300781 -14.519531 1.75 -14.53125 C 1.207031 -14.550781 0.617188 -14.34375 -0.015625 -13.90625 Z M -2.5625 -12.125 "/></g></g></g></svg>