<svg xmlns="http://www.w3.org/2000/svg" xmlns:xlink="http://www.w3.org/1999/xlink" width="180" zoomAndPan="magnify" viewBox="0 0 135 135.000003" height="180" preserveAspectRatio="xMidYMid meet" version="1.0"><defs><g/><clipPath id="4b952ff6a8"><path d="M 0.496094 0 L 129 0 L 129 134 L 0.496094 134 Z M 0.496094 0 " clip-rule="nonzero"/></clipPath><clipPath id="e697c1833c"><path d="M 69 4 L 134.503906 4 L 134.503906 70 L 69 70 Z M 69 4 " clip-rule="nonzero"/></clipPath><clipPath id="e39f88cffa"><path d="M 29.128906 53.640625 L 105.8125 53.640625 L 105.8125 86.398438 L 29.128906 86.398438 Z M 29.128906 53.640625 " clip-rule="nonzero"/></clipPath><clipPath id="ce079ca7d7"><path d="M 45 43.152344 L 51 43.152344 L 51 49 L 45 49 Z M 45 43.152344 " clip-rule="nonzero"/></clipPath><clipPath id="cd8d40eca9"><path d="M 41 43.152344 L 60 43.152344 L 60 58 L 41 58 Z M 41 43.152344 " clip-rule="nonzero"/></clipPath><clipPath id="106268b661"><path d="M 41 43.152344 L 61 43.152344 L 61 59 L 41 59 Z M 41 43.152344 " clip-rule="nonzero"/></clipPath><clipPath id="201f0481e7"><path d="M 22 86 L 53 86 L 53 90.800781 L 22 90.800781 Z M 22 86 " clip-rule="nonzero"/></clipPath><clipPath id="0afd560831"><path d="M 22 86 L 54 86 L 54 90.800781 L 22 90.800781 Z M 22 86 " clip-rule="nonzero"/></clipPath><clipPath id="102745e884"><path d="M 19.796875 85 L 23 85 L 23 88 L 19.796875 88 Z M 19.796875 85 " clip-rule="nonzero"/></clipPath><clipPath id="21a7609c30"><path d="M 19.796875 85 L 24 85 L 24 89 L 19.796875 89 Z M 19.796875 85 " clip-rule="nonzero"/></clipPath><clipPath id="628a88a643"><path d="M 51 88 L 100 88 L 100 90.800781 L 51 90.800781 Z M 51 88 " clip-rule="nonzero"/></clipPath><clipPath id="f01c5450a5"><path d="M 112 79 L 115.09375 79 L 115.09375 85 L 112 85 Z M 112 79 " clip-rule="nonzero"/></clipPath></defs><g clip-path="url(#4b952ff6a8)"><path fill="#112241" d="M 62.425781 129.351562 C 60.988281 129.289062 59.566406 129.003906 58.15625 128.742188 C 56.753906 128.398438 55.351562 128.09375 53.980469 127.660156 C 53.523438 127.222656 53.007812 126.949219 52.453125 126.75 C 51.910156 126.535156 51.332031 126.378906 50.738281 126.222656 C 49.699219 125.964844 48.648438 125.585938 47.789062 124.75 C 53.882812 126.875 60.417969 128.046875 67.234375 128.046875 C 68.46875 128.046875 69.691406 127.996094 70.90625 127.921875 C 68.199219 129.183594 65.289062 129.5625 62.425781 129.351562 Z M 34.117188 118.214844 L 33.261719 117.75 C 32.703125 117.433594 32.136719 117.101562 31.59375 116.746094 C 28.660156 114.734375 25.835938 112.515625 23.195312 110.0625 C 19.945312 107.074219 16.734375 103.824219 14.433594 99.945312 C 14.035156 99.238281 13.605469 98.554688 13.246094 97.828125 L 12.171875 95.644531 C 11.53125 94.160156 10.890625 92.671875 10.382812 91.136719 C 9.34375 88.078125 8.527344 84.953125 7.996094 81.78125 C 7.929688 81.496094 8.199219 81.140625 8.714844 79.890625 C 10.3125 84.03125 10.929688 87.472656 12.34375 90.664062 C 12.429688 90.847656 12.511719 91.035156 12.597656 91.21875 C 17.277344 102.769531 25.511719 112.5 35.949219 119.046875 L 34.992188 118.625 Z M 7.402344 47.085938 C 7.308594 46.972656 7.214844 46.796875 7.234375 46.671875 C 7.316406 46.25 7.378906 45.800781 7.558594 45.414062 C 9.347656 41.625 11.53125 38.054688 13.972656 34.792969 C 14.996094 35.296875 15.132812 35.867188 14.765625 36.371094 C 12.324219 39.816406 10.160156 43.5 8.339844 47.621094 C 7.640625 47.230469 7.488281 47.183594 7.402344 47.085938 Z M 42.085938 6.84375 L 42.207031 7.136719 C 41.714844 7.332031 41.222656 7.515625 40.746094 7.738281 L 40.621094 7.453125 C 41.097656 7.226562 41.59375 7.042969 42.085938 6.84375 Z M 126.863281 69.105469 C 126.613281 69.609375 126.367188 70.078125 126.132812 70.539062 C 126.148438 70.0625 126.167969 69.589844 126.167969 69.105469 C 126.167969 36.554688 99.78125 10.167969 67.234375 10.167969 C 66.652344 10.167969 66.089844 10.191406 65.511719 10.214844 C 65.460938 10.082031 65.414062 9.960938 65.367188 9.847656 C 66.328125 9.492188 67.335938 9.566406 68.367188 9.710938 C 69.410156 9.835938 70.46875 9.9375 71.625 9.644531 C 71.15625 9.015625 70.945312 8.496094 70.660156 8.433594 C 69.710938 8.230469 68.730469 8.195312 67.757812 8.171875 C 64.832031 8.214844 61.910156 8.378906 59.023438 8.84375 C 56.136719 9.277344 53.269531 9.898438 50.488281 10.773438 C 50.097656 10.894531 49.71875 11.082031 49.359375 11.289062 C 48.816406 11.625 48.699219 12.386719 48.933594 13.078125 C 41.59375 15.472656 34.890625 19.269531 29.132812 24.15625 C 29.234375 24.046875 29.332031 23.929688 29.441406 23.824219 C 31.496094 21.847656 33.765625 20.089844 36.113281 18.4375 C 37.441406 17.527344 38.738281 16.535156 40.128906 15.683594 L 39.867188 15.195312 C 37.367188 16.191406 34.957031 17.417969 32.59375 18.757812 L 32.425781 18.496094 C 36.636719 15.425781 41.265625 12.921875 46.136719 10.988281 C 45.382812 10.648438 44.734375 10.730469 44.15625 10.960938 C 36.96875 13.941406 30.335938 18.257812 24.855469 23.703125 C 22.277344 26.265625 19.582031 28.574219 16.695312 30.921875 C 16.90625 30.175781 17.265625 29.535156 17.722656 28.980469 C 19.90625 26.402344 22.472656 24.207031 24.800781 21.8125 C 26.792969 19.777344 29.0625 18.015625 31.308594 16.238281 C 31.871094 15.792969 32.445312 15.371094 33.007812 14.914062 C 33.566406 14.460938 34.121094 14.003906 34.683594 13.554688 C 35.246094 13.09375 35.792969 12.617188 36.332031 12.113281 C 36.886719 11.636719 37.429688 11.132812 37.957031 10.601562 C 38.28125 10.285156 38.660156 10 39.0625 9.804688 C 42.125 8.1875 45.203125 6.53125 48.460938 5.1875 C 51.707031 3.828125 55.167969 2.875 58.734375 2.757812 C 59.113281 2.746094 59.476562 2.566406 60.480469 2.316406 C 59.085938 2.207031 57.832031 2.375 56.664062 2.46875 C 55.5 2.59375 54.40625 2.59375 53.261719 2.128906 C 57.019531 1.21875 60.867188 0.621094 64.742188 0.339844 C 63.855469 0.078125 62.964844 0.00390625 62.085938 0 C 61.210938 0.00390625 60.332031 0.0351562 59.46875 0.195312 C 49.65625 1.570312 40.175781 5.078125 31.996094 10.4375 C 28.707031 12.609375 25.757812 15.238281 23.097656 18.0625 C 22.679688 18.511719 22.269531 18.988281 21.929688 19.515625 C 21.597656 20.042969 21.3125 20.605469 21.105469 21.175781 C 20.210938 23.609375 18.625 25.292969 16.832031 26.964844 C 16.265625 27.46875 15.734375 28.007812 15.183594 28.53125 C 14.640625 29.066406 14.097656 29.605469 13.632812 30.207031 C 11.492188 32.792969 9.589844 35.585938 7.878906 38.507812 C 7.007812 39.964844 6.253906 41.480469 5.484375 43 C 4.792969 44.550781 4.082031 46.101562 3.511719 47.707031 C 2.910156 49.21875 2.53125 50.808594 2.136719 52.386719 C 1.828125 53.984375 1.503906 55.578125 1.304688 57.1875 L 1.089844 58.792969 C 1.035156 59.332031 1.003906 59.871094 0.964844 60.410156 C 0.886719 61.484375 0.820312 62.558594 0.820312 63.632812 C 0.703125 67.003906 0.910156 70.367188 1.320312 73.683594 C 1.707031 77.003906 2.414062 80.277344 3.3125 83.472656 C 3.398438 83.765625 3.511719 84.042969 3.601562 84.328125 C 4.585938 87.34375 5.777344 90.261719 7.199219 93.050781 C 8.59375 95.851562 10.160156 98.539062 11.878906 101.109375 C 15.421875 106.519531 19.550781 111.566406 24.523438 115.613281 C 28.007812 118.453125 31.972656 120.644531 36.046875 122.296875 C 39.914062 123.84375 42.675781 126.488281 45.960938 129.605469 C 45.039062 129.3125 44.234375 128.949219 43.4375 128.644531 C 43.042969 128.488281 42.660156 128.335938 42.277344 128.183594 C 41.898438 128.023438 41.527344 127.863281 41.152344 127.707031 C 40.207031 127.320312 39.234375 126.828125 38.246094 126.746094 C 36.351562 126.640625 34.78125 125.789062 33.242188 124.847656 C 29.054688 122.191406 25.183594 119.058594 21.695312 115.558594 C 21.566406 115.425781 21.339844 115.386719 20.871094 115.125 C 21.484375 115.828125 21.945312 116.214844 22.28125 116.699219 C 22.5625 117.097656 23.304688 117.378906 22.539062 118.382812 C 17.15625 113.242188 12.683594 107.253906 9.113281 100.796875 C 5.578125 94.308594 2.863281 87.394531 0.929688 80.128906 C 1.003906 80.894531 1.105469 81.664062 1.234375 82.421875 C 1.363281 83.179688 1.550781 83.933594 1.71875 84.683594 C 3.976562 94.601562 8.546875 104.011719 15.007812 111.890625 C 18.242188 115.816406 21.972656 119.335938 26.066406 122.335938 C 28.101562 123.847656 30.265625 125.1875 32.46875 126.425781 C 33.597656 127.003906 34.707031 127.609375 35.855469 128.132812 C 37.011719 128.632812 38.152344 129.175781 39.339844 129.597656 C 42.414062 130.804688 45.578125 131.738281 48.769531 132.457031 C 51.953125 133.199219 55.195312 133.621094 58.425781 133.800781 C 62.472656 134.015625 66.542969 133.789062 70.417969 132.894531 C 73.65625 132.125 76.789062 131.175781 79.832031 130.097656 C 82.871094 128.988281 85.8125 127.746094 88.707031 126.425781 C 93.054688 124.402344 97.140625 121.929688 100.964844 119.15625 C 101.785156 118.519531 102.730469 118.042969 103.644531 117.515625 C 104.535156 116.957031 105.441406 116.402344 106.128906 115.628906 C 108.976562 112.46875 112.382812 110.105469 115.332031 107.03125 C 114.613281 108.164062 113.78125 109.222656 112.960938 110.292969 C 112.542969 110.820312 112.089844 111.320312 111.648438 111.832031 C 111.207031 112.339844 110.757812 112.847656 110.277344 113.316406 C 109.789062 113.808594 109.265625 114.273438 108.738281 114.738281 C 108.183594 115.179688 107.625 115.628906 107.046875 116.089844 C 106.492188 116.5625 105.894531 117.03125 105.3125 117.5625 C 104.734375 118.097656 104.167969 118.699219 103.582031 119.347656 C 104.78125 119.507812 105.445312 119.769531 105.820312 119.554688 C 106.902344 118.949219 108.042969 118.375 109.089844 117.679688 C 109.617188 117.339844 110.144531 116.992188 110.636719 116.605469 C 111.128906 116.207031 111.59375 115.796875 112.035156 115.351562 C 116.996094 110.253906 120.988281 104.25 123.683594 97.773438 C 124.929688 94.820312 125.90625 91.765625 126.570312 88.660156 C 127.246094 85.5625 127.722656 82.445312 127.910156 79.324219 C 127.984375 78.621094 128.003906 77.914062 128.027344 77.203125 C 128.046875 76.496094 128.09375 75.796875 128.09375 75.089844 C 128.0625 73.675781 128.078125 72.277344 127.925781 70.878906 C 127.882812 70.441406 127.445312 70.027344 126.863281 69.105469 " fill-opacity="1" fill-rule="nonzero"/></g><g clip-path="url(#e697c1833c)"><path fill="#112241" d="M 116.425781 25.300781 C 115.667969 24.417969 114.835938 23.601562 114.042969 22.746094 L 114.257812 22.527344 C 115.054688 23.386719 115.894531 24.203125 116.65625 25.089844 Z M 134.136719 60.996094 C 133.863281 57.589844 133.238281 54.214844 132.371094 50.898438 C 131.957031 49.230469 131.414062 47.605469 130.871094 45.976562 C 130.257812 44.378906 129.664062 42.765625 128.925781 41.21875 C 124.988281 32.570312 119.175781 24.746094 111.894531 18.710938 C 106.925781 14.554688 101.207031 11.128906 94.976562 9.652344 C 90.53125 8.601562 86.308594 7.34375 81.960938 6.3125 C 77.878906 5.339844 73.6875 4.953125 69.527344 4.890625 C 70.261719 5.019531 70.992188 5.144531 71.71875 5.277344 C 72.445312 5.402344 73.175781 5.492188 73.902344 5.589844 C 75.347656 5.847656 76.808594 5.984375 78.25 6.257812 C 81.441406 6.777344 84.601562 7.523438 87.664062 8.578125 C 88.21875 8.765625 88.773438 8.972656 89.207031 9.328125 C 89.636719 9.695312 89.957031 10.203125 90.058594 10.949219 C 90.265625 12.441406 91.347656 12.691406 92.480469 13.066406 C 94.777344 13.753906 97.136719 14.546875 99.101562 15.917969 C 103.285156 18.921875 107.007812 22.320312 110.878906 25.640625 C 112.035156 26.671875 112.984375 27.925781 113.910156 29.164062 C 115.21875 30.839844 116.347656 32.632812 117.503906 34.390625 C 117.765625 34.765625 118.339844 34.9375 118.753906 35.226562 C 118.140625 33.050781 116.953125 31.308594 115.671875 29.667969 C 114.957031 28.765625 114.195312 27.910156 113.441406 27.042969 C 112.640625 26.214844 111.871094 25.363281 111.046875 24.5625 C 109.507812 23.050781 107.90625 21.601562 106.246094 20.226562 C 105.398438 19.519531 104.457031 18.925781 103.546875 18.296875 C 103.101562 17.980469 102.671875 17.632812 102.28125 17.234375 C 101.878906 16.855469 101.507812 16.425781 101.191406 15.914062 C 104.425781 17.398438 107.578125 19.15625 110.539062 21.257812 C 113.480469 23.363281 116.234375 25.800781 118.65625 28.558594 C 121.027344 31.277344 123.113281 34.273438 124.847656 37.464844 C 126.578125 40.652344 128 44.011719 129.15625 47.441406 C 129.433594 48.320312 129.726562 49.191406 129.921875 50.085938 C 130.128906 50.988281 130.3125 51.882812 130.476562 52.78125 C 130.609375 53.683594 130.722656 54.59375 130.832031 55.5 C 130.945312 56.398438 130.96875 57.316406 131.039062 58.21875 C 131.230469 61.84375 131.140625 65.410156 131.148438 68.957031 C 132.621094 69.378906 133.441406 68.882812 133.621094 67.871094 C 133.808594 66.75 134.035156 65.609375 134.105469 64.457031 C 134.207031 63.300781 134.269531 62.140625 134.136719 60.996094 " fill-opacity="1" fill-rule="nonzero"/></g><path fill="#112241" d="M 95.546875 6.59375 C 92.550781 4.765625 89.535156 3.007812 85.53125 2.316406 C 86.351562 2.960938 86.550781 3.238281 86.824219 3.316406 C 89.792969 4.234375 92.726562 5.285156 95.546875 6.59375 " fill-opacity="1" fill-rule="nonzero"/><path fill="#112241" d="M 57.769531 6.484375 C 57.234375 6.5625 56.703125 6.667969 56.167969 6.757812 L 56.226562 7.082031 C 56.742188 6.992188 57.261719 6.890625 57.777344 6.8125 L 59.34375 6.617188 L 60.902344 6.421875 L 62.46875 6.300781 L 62.59375 5.960938 L 60.984375 6.085938 C 60.445312 6.132812 59.910156 6.21875 59.375 6.28125 L 57.769531 6.484375 " fill-opacity="1" fill-rule="nonzero"/><path fill="#112241" d="M 75.601562 8.414062 C 75.3125 8.441406 75.035156 8.523438 74.753906 8.585938 C 75.105469 8.628906 75.460938 8.675781 75.894531 8.734375 C 75.746094 8.566406 75.667969 8.402344 75.601562 8.414062 " fill-opacity="1" fill-rule="nonzero"/><path fill="#112241" d="M 75 10.21875 C 75.035156 10.324219 75.066406 10.511719 75.121094 10.515625 C 75.34375 10.539062 75.578125 10.5 75.808594 10.492188 C 75.769531 10.386719 75.738281 10.207031 75.683594 10.199219 C 75.460938 10.175781 75.222656 10.207031 75 10.21875 " fill-opacity="1" fill-rule="nonzero"/><path fill="#112241" d="M 81.714844 9.757812 L 82.027344 9.773438 L 81.816406 9.558594 Z M 81.714844 9.757812 " fill-opacity="1" fill-rule="nonzero"/><g clip-path="url(#e39f88cffa)"><path fill="#112241" d="M 103.496094 78.910156 C 102.523438 82.222656 101.039062 85.363281 99.195312 88.257812 C 97.671875 90.613281 95.941406 92.828125 93.996094 94.839844 C 93.746094 95.113281 93.464844 95.359375 93.199219 95.621094 C 92.925781 95.875 92.664062 96.140625 92.386719 96.386719 L 91.121094 97.488281 L 90.683594 97.835938 L 89.8125 98.53125 C 89.515625 98.757812 89.210938 98.972656 88.910156 99.195312 C 88.316406 99.648438 87.6875 100.046875 87.070312 100.464844 C 86.984375 100.523438 86.890625 100.585938 86.792969 100.652344 C 86.691406 100.714844 86.585938 100.777344 86.476562 100.839844 C 86.261719 100.972656 86.027344 101.113281 85.777344 101.261719 C 85.285156 101.570312 84.703125 101.863281 84.070312 102.195312 C 83.914062 102.277344 83.753906 102.367188 83.585938 102.445312 C 83.417969 102.523438 83.246094 102.605469 83.074219 102.6875 C 82.722656 102.847656 82.359375 103.015625 81.988281 103.1875 C 81.21875 103.488281 80.421875 103.847656 79.550781 104.125 C 76.105469 105.375 71.8125 106.144531 67.5 106.164062 C 63.1875 106.144531 58.890625 105.375 55.449219 104.125 C 54.578125 103.847656 53.777344 103.488281 53.011719 103.1875 C 52.636719 103.015625 52.277344 102.847656 51.925781 102.6875 C 51.75 102.605469 51.578125 102.523438 51.410156 102.445312 C 51.242188 102.367188 51.085938 102.277344 50.925781 102.195312 C 50.296875 101.863281 49.714844 101.570312 49.222656 101.261719 C 48.972656 101.113281 48.738281 100.972656 48.519531 100.839844 C 48.414062 100.777344 48.308594 100.714844 48.207031 100.652344 C 48.109375 100.585938 48.015625 100.523438 47.925781 100.464844 C 45.585938 98.929688 43.386719 97.1875 41.386719 95.226562 C 39.277344 93.121094 37.429688 90.761719 35.804688 88.257812 C 33.960938 85.363281 32.476562 82.222656 31.503906 78.910156 C 30.488281 75.609375 30.023438 72.144531 29.992188 68.679688 C 30.023438 65.214844 30.488281 61.75 31.503906 58.445312 C 32.476562 55.136719 33.960938 51.992188 35.804688 49.097656 C 37.328125 46.742188 39.058594 44.53125 41 42.515625 C 41.253906 42.242188 41.535156 41.996094 41.800781 41.734375 C 42.074219 41.480469 42.335938 41.21875 42.613281 40.96875 L 43.878906 39.867188 L 44.316406 39.519531 L 45.1875 38.824219 C 45.484375 38.597656 45.789062 38.382812 46.089844 38.164062 C 46.679688 37.707031 47.308594 37.308594 47.925781 36.890625 C 48.015625 36.832031 48.109375 36.769531 48.207031 36.703125 C 48.308594 36.644531 48.410156 36.578125 48.519531 36.515625 C 48.738281 36.382812 48.972656 36.246094 49.222656 36.09375 C 49.714844 35.785156 50.296875 35.496094 50.925781 35.160156 C 51.085938 35.078125 51.242188 34.988281 51.410156 34.910156 C 51.578125 34.832031 51.75 34.75 51.925781 34.671875 C 52.277344 34.507812 52.636719 34.339844 53.011719 34.167969 C 53.777344 33.867188 54.578125 33.507812 55.449219 33.230469 C 58.890625 31.980469 63.1875 31.210938 67.5 31.191406 C 71.808594 31.210938 76.105469 31.980469 79.546875 33.230469 C 80.421875 33.507812 81.21875 33.867188 81.988281 34.167969 C 82.359375 34.339844 82.722656 34.507812 83.074219 34.671875 C 83.246094 34.75 83.417969 34.832031 83.585938 34.910156 C 83.753906 34.988281 83.914062 35.078125 84.070312 35.160156 C 84.699219 35.496094 85.285156 35.785156 85.777344 36.09375 C 86.027344 36.246094 86.261719 36.382812 86.476562 36.515625 C 86.585938 36.578125 86.691406 36.640625 86.792969 36.703125 C 86.890625 36.769531 86.980469 36.832031 87.070312 36.890625 C 89.414062 38.425781 91.613281 40.167969 93.613281 42.128906 C 95.722656 44.234375 97.566406 46.59375 99.195312 49.097656 C 101.039062 51.992188 102.523438 55.136719 103.496094 58.445312 C 104.507812 61.75 104.976562 65.214844 105.007812 68.679688 C 104.976562 72.144531 104.507812 75.609375 103.496094 78.910156 Z M 105.867188 68.652344 L 105.867188 68.648438 C 105.835938 65.113281 105.359375 61.570312 104.332031 58.195312 C 103.339844 54.808594 101.820312 51.597656 99.929688 48.644531 L 99.019531 47.277344 C 99.019531 47.277344 98.753906 46.910156 98.359375 46.355469 C 97.980469 45.792969 97.398438 45.101562 96.84375 44.386719 C 96.246094 43.710938 95.671875 43.011719 95.191406 42.535156 C 94.722656 42.042969 94.410156 41.71875 94.410156 41.71875 C 94.410156 41.71875 94.332031 41.636719 94.1875 41.5 C 94.046875 41.363281 93.84375 41.167969 93.597656 40.929688 C 93.125 40.449219 92.433594 39.863281 91.757812 39.265625 C 91.410156 38.976562 91.054688 38.699219 90.722656 38.433594 C 90.558594 38.304688 90.398438 38.175781 90.246094 38.054688 C 90.085938 37.941406 89.9375 37.835938 89.800781 37.734375 C 89.25 37.339844 88.886719 37.074219 88.886719 37.074219 C 88.886719 37.074219 88.804688 37.007812 88.675781 36.925781 C 88.546875 36.839844 88.378906 36.726562 88.207031 36.613281 C 87.867188 36.382812 87.527344 36.15625 87.527344 36.15625 C 87.433594 36.09375 87.339844 36.03125 87.242188 35.960938 C 87.136719 35.902344 87.03125 35.835938 86.921875 35.769531 C 86.699219 35.636719 86.457031 35.492188 86.203125 35.339844 C 85.699219 35.019531 85.105469 34.722656 84.460938 34.378906 C 84.296875 34.292969 84.136719 34.203125 83.964844 34.121094 C 83.792969 34.039062 83.617188 33.957031 83.4375 33.875 C 83.082031 33.710938 82.710938 33.539062 82.328125 33.359375 C 81.542969 33.050781 80.722656 32.683594 79.832031 32.398438 C 76.308594 31.117188 71.910156 30.324219 67.5 30.308594 C 63.089844 30.324219 58.6875 31.117188 55.167969 32.398438 C 54.273438 32.683594 53.457031 33.050781 52.671875 33.359375 C 52.289062 33.539062 51.917969 33.710938 51.558594 33.875 C 51.382812 33.960938 51.207031 34.039062 51.035156 34.121094 C 50.863281 34.203125 50.699219 34.292969 50.539062 34.378906 C 49.894531 34.722656 49.296875 35.019531 48.796875 35.339844 C 48.539062 35.492188 48.300781 35.636719 48.078125 35.769531 C 47.96875 35.835938 47.859375 35.902344 47.757812 35.960938 C 47.660156 36.03125 47.5625 36.09375 47.472656 36.15625 C 47.472656 36.15625 47.132812 36.382812 46.789062 36.613281 C 46.621094 36.726562 46.449219 36.839844 46.320312 36.925781 C 46.191406 37.007812 46.113281 37.074219 46.113281 37.074219 C 46.113281 37.074219 45.746094 37.339844 45.199219 37.734375 C 45.058594 37.835938 44.910156 37.941406 44.753906 38.054688 C 44.601562 38.175781 44.441406 38.304688 44.277344 38.433594 C 43.945312 38.699219 43.589844 38.976562 43.242188 39.265625 C 42.5625 39.863281 41.875 40.449219 41.398438 40.929688 C 41.15625 41.167969 40.953125 41.363281 40.8125 41.5 C 40.667969 41.636719 40.589844 41.71875 40.589844 41.71875 C 40.589844 41.71875 40.277344 42.042969 39.808594 42.535156 C 39.324219 43.011719 38.753906 43.710938 38.152344 44.386719 C 37.597656 45.101562 37.015625 45.792969 36.636719 46.355469 C 36.242188 46.910156 35.980469 47.277344 35.980469 47.277344 L 35.070312 48.644531 C 33.179688 51.597656 31.660156 54.808594 30.667969 58.195312 C 29.636719 61.570312 29.160156 65.113281 29.128906 68.648438 L 29.128906 68.707031 C 29.160156 72.246094 29.636719 75.785156 30.667969 79.160156 C 31.660156 82.546875 33.179688 85.757812 35.070312 88.710938 L 35.980469 90.078125 C 35.980469 90.078125 36.242188 90.445312 36.636719 91 C 37.019531 91.5625 37.597656 92.253906 38.152344 92.96875 C 38.753906 93.644531 39.324219 94.347656 39.808594 94.824219 C 40.277344 95.3125 40.589844 95.636719 40.589844 95.636719 C 40.589844 95.636719 40.667969 95.71875 40.8125 95.855469 C 40.953125 95.992188 41.15625 96.1875 41.398438 96.425781 C 41.875 96.910156 42.5625 97.492188 43.242188 98.089844 C 43.589844 98.378906 43.945312 98.65625 44.277344 98.921875 C 44.441406 99.054688 44.601562 99.179688 44.753906 99.300781 C 44.910156 99.414062 45.058594 99.523438 45.199219 99.621094 C 45.746094 100.019531 46.113281 100.28125 46.113281 100.28125 C 46.113281 100.28125 46.191406 100.347656 46.320312 100.429688 C 46.449219 100.515625 46.621094 100.628906 46.789062 100.742188 C 47.132812 100.972656 47.472656 101.199219 47.472656 101.199219 C 47.5625 101.261719 47.660156 101.324219 47.757812 101.394531 C 47.859375 101.457031 47.96875 101.519531 48.078125 101.585938 C 48.300781 101.722656 48.539062 101.863281 48.796875 102.019531 C 49.300781 102.335938 49.894531 102.636719 50.539062 102.976562 C 50.699219 103.0625 50.863281 103.152344 51.035156 103.234375 C 51.207031 103.316406 51.382812 103.398438 51.558594 103.480469 C 51.917969 103.644531 52.289062 103.816406 52.671875 103.996094 C 53.457031 104.304688 54.273438 104.671875 55.167969 104.957031 C 58.6875 106.238281 63.089844 107.03125 67.5 107.046875 C 71.910156 107.03125 76.308594 106.238281 79.832031 104.957031 C 80.722656 104.671875 81.542969 104.304688 82.328125 103.996094 C 82.710938 103.816406 83.082031 103.644531 83.4375 103.480469 C 83.617188 103.398438 83.792969 103.316406 83.964844 103.234375 C 84.136719 103.152344 84.296875 103.0625 84.460938 102.976562 C 85.105469 102.636719 85.699219 102.335938 86.203125 102.019531 C 86.457031 101.863281 86.699219 101.71875 86.921875 101.585938 C 87.03125 101.519531 87.136719 101.457031 87.242188 101.394531 C 87.339844 101.324219 87.4375 101.261719 87.527344 101.199219 C 87.527344 101.199219 87.867188 100.972656 88.207031 100.742188 C 88.378906 100.628906 88.550781 100.515625 88.675781 100.429688 C 88.804688 100.347656 88.886719 100.28125 88.886719 100.28125 C 88.886719 100.28125 89.25 100.019531 89.800781 99.621094 C 89.9375 99.523438 90.085938 99.414062 90.246094 99.300781 C 90.398438 99.179688 90.558594 99.054688 90.722656 98.921875 C 91.054688 98.65625 91.410156 98.378906 91.757812 98.089844 C 92.433594 97.492188 93.125 96.910156 93.597656 96.425781 C 93.84375 96.1875 94.046875 95.992188 94.1875 95.855469 C 94.332031 95.71875 94.410156 95.636719 94.410156 95.636719 C 94.410156 95.636719 94.722656 95.3125 95.191406 94.824219 C 95.671875 94.347656 96.246094 93.644531 96.84375 92.96875 C 97.398438 92.253906 97.980469 91.5625 98.359375 91 C 98.753906 90.445312 99.019531 90.078125 99.019531 90.078125 L 99.929688 88.710938 C 101.820312 85.757812 103.339844 82.546875 104.332031 79.160156 C 105.359375 75.785156 105.835938 72.242188 105.867188 68.707031 L 105.867188 68.703125 L 105.871094 68.679688 L 105.867188 68.652344 " fill-opacity="1" fill-rule="nonzero"/></g><path stroke-linecap="round" transform="matrix(0.100088, 0, 0, 0.100101, 15.954808, 30.850023)" fill-opacity="1" fill="#ffffff" fill-rule="nonzero" stroke-linejoin="round" d="M 321.18379 171.483594 L 287.814832 253.081235 L 281.999657 213.78481 L 295.113072 175.893223 Z M 321.18379 171.483594 " stroke="#000000" stroke-width="3" stroke-opacity="1" stroke-miterlimit="10"/><g clip-path="url(#ce079ca7d7)"><path stroke-linecap="round" transform="matrix(0.100088, 0, 0, 0.100101, 15.954808, 30.850023)" fill-opacity="1" fill="#ffffff" fill-rule="nonzero" stroke-linejoin="round" d="M 340.30752 124.811773 L 321.18379 171.483594 L 295.113072 175.893223 Z M 340.30752 124.811773 " stroke="#000000" stroke-width="3" stroke-opacity="1" stroke-miterlimit="10"/></g><g clip-path="url(#cd8d40eca9)"><path fill="#ffffff" d="M 59.933594 50.640625 L 56.070312 53.191406 L 53.589844 53.78125 L 49.605469 56.957031 L 41.558594 57.9375 L 44.761719 56.183594 L 48.101562 48.015625 L 50.015625 43.34375 Z M 59.933594 50.640625 " fill-opacity="1" fill-rule="nonzero"/></g><g clip-path="url(#106268b661)"><path stroke-linecap="round" transform="matrix(0.100088, 0, 0, 0.100101, 15.954808, 30.850023)" fill="none" stroke-linejoin="round" d="M 439.399663 197.707226 L 400.800951 223.189416 L 376.018158 229.081929 L 336.209578 260.80784 L 255.811856 270.602679 L 287.814832 253.081235 L 321.18379 171.483594 L 340.30752 124.811773 Z M 439.399663 197.707226 " stroke="#000000" stroke-width="3" stroke-opacity="1" stroke-miterlimit="10"/></g><path stroke-linecap="round" transform="matrix(0.100088, 0, 0, 0.100101, 15.954808, 30.850023)" fill-opacity="1" fill="#a3a3a3" fill-rule="nonzero" stroke-linejoin="round" d="M 217.993704 299.792079 L 166.086437 284.49496 L 104.890501 247.500908 L 111.408181 234.193976 L 203.319169 270.602679 Z M 217.993704 299.792079 " stroke="#000000" stroke-width="3" stroke-opacity="1" stroke-miterlimit="10"/><path stroke-linecap="round" transform="matrix(0.100088, 0, 0, 0.100101, 15.954808, 30.850023)" fill-opacity="1" fill="#686868" fill-rule="nonzero" stroke-linejoin="round" d="M 336.209578 260.80784 L 269.003327 299.792079 L 217.993704 299.792079 L 203.319169 270.602679 L 255.811856 270.602679 Z M 336.209578 260.80784 " stroke="#000000" stroke-width="3" stroke-opacity="1" stroke-miterlimit="10"/><path stroke-linecap="round" transform="matrix(0.100088, 0, 0, 0.100101, 15.954808, 30.850023)" fill-opacity="1" fill="#b8b9bd" fill-rule="nonzero" stroke-linejoin="round" d="M 336.209578 260.80784 L 328.794254 303.499289 L 269.003327 299.792079 Z M 336.209578 260.80784 " stroke="#000000" stroke-width="3" stroke-opacity="1" stroke-miterlimit="10"/><path stroke-linecap="round" transform="matrix(0.100088, 0, 0, 0.100101, 15.954808, 30.850023)" fill-opacity="1" fill="#848484" fill-rule="nonzero" stroke-linejoin="round" d="M 479.48144 315.089198 L 422.695671 309.196685 L 328.794254 303.499289 L 336.209578 260.80784 L 376.018158 229.081929 Z M 479.48144 315.089198 " stroke="#000000" stroke-width="3" stroke-opacity="1" stroke-miterlimit="10"/><path stroke-linecap="round" transform="matrix(0.100088, 0, 0, 0.100101, 15.954808, 30.850023)" fill-opacity="1" fill="#686868" fill-rule="nonzero" stroke-linejoin="round" d="M 734.685665 385.409115 L 662.483827 383.809162 L 479.48144 315.089198 L 376.018158 229.081929 L 400.800951 223.189416 Z M 734.685665 385.409115 " stroke="#000000" stroke-width="3" stroke-opacity="1" stroke-miterlimit="10"/><path stroke-linecap="round" transform="matrix(0.100088, 0, 0, 0.100101, 15.954808, 30.850023)" fill-opacity="1" fill="#ffffff" fill-rule="nonzero" stroke-linejoin="round" d="M 734.685665 385.409115 L 439.399663 197.707226 L 459.811318 197.707226 L 704.712145 342.015248 L 722.196698 365.390182 Z M 734.685665 385.409115 " stroke="#000000" stroke-width="3" stroke-opacity="1" stroke-miterlimit="10"/><path stroke-linecap="round" transform="matrix(0.100088, 0, 0, 0.100101, 15.954808, 30.850023)" fill-opacity="1" fill="#686868" fill-rule="nonzero" stroke-linejoin="round" d="M 259.402434 363.204879 L 83.386062 291.089892 L 104.890501 247.500908 L 166.086437 284.49496 Z M 259.402434 363.204879 " stroke="#000000" stroke-width="3" stroke-opacity="1" stroke-miterlimit="10"/><path stroke-linecap="round" transform="matrix(0.100088, 0, 0, 0.100101, 15.954808, 30.850023)" fill-opacity="1" fill="#848484" fill-rule="nonzero" stroke-linejoin="round" d="M 328.794254 303.499289 L 318.685996 360.980553 L 259.402434 363.204879 L 166.086437 284.49496 L 217.993704 299.792079 L 269.003327 299.792079 Z M 328.794254 303.499289 " stroke="#000000" stroke-width="3" stroke-opacity="1" stroke-miterlimit="10"/><path stroke-linecap="round" transform="matrix(0.100088, 0, 0, 0.100101, 15.954808, 30.850023)" fill-opacity="1" fill="#a3a3a3" fill-rule="nonzero" stroke-linejoin="round" d="M 734.685665 385.409115 L 731.680507 409.798654 L 662.483827 383.809162 Z M 734.685665 385.409115 " stroke="#000000" stroke-width="3" stroke-opacity="1" stroke-miterlimit="10"/><path stroke-linecap="round" transform="matrix(0.100088, 0, 0, 0.100101, 15.954808, 30.850023)" fill-opacity="1" fill="#ffffff" fill-rule="nonzero" stroke-linejoin="round" d="M 869.488447 400.394048 L 845.798438 406.40363 L 734.685665 385.409115 L 722.196698 365.390182 Z M 869.488447 400.394048 " stroke="#000000" stroke-width="3" stroke-opacity="1" stroke-miterlimit="10"/><path stroke-linecap="round" transform="matrix(0.100088, 0, 0, 0.100101, 15.954808, 30.850023)" fill-opacity="1" fill="#ffffff" fill-rule="nonzero" stroke-linejoin="round" d="M 927.796309 404.686607 L 925.61074 414.208282 L 918.3125 419.983725 L 845.798438 406.40363 L 869.488447 400.394048 Z M 927.796309 404.686607 " stroke="#000000" stroke-width="3" stroke-opacity="1" stroke-miterlimit="10"/><path stroke-linecap="round" transform="matrix(0.100088, 0, 0, 0.100101, 15.954808, 30.850023)" fill-opacity="1" fill="#a3a3a3" fill-rule="nonzero" stroke-linejoin="round" d="M 965.692517 457.211917 L 964.911956 465.211686 L 925.61074 414.208282 L 927.796309 404.686607 L 958.394277 426.61768 Z M 965.692517 457.211917 " stroke="#000000" stroke-width="3" stroke-opacity="1" stroke-miterlimit="10"/><path stroke-linecap="round" transform="matrix(0.100088, 0, 0, 0.100101, 15.954808, 30.850023)" fill-opacity="1" fill="#ced9ea" fill-rule="nonzero" stroke-linejoin="round" d="M 968.58059 535.882813 L 830.109174 576.818214 L 632.588364 573.111004 L 816.293255 554.106676 L 963.506947 511.883507 Z M 968.58059 535.882813 " stroke="#000000" stroke-width="3" stroke-opacity="1" stroke-miterlimit="10"/><path stroke-linecap="round" transform="matrix(0.100088, 0, 0, 0.100101, 15.954808, 30.850023)" fill-opacity="1" fill="#ffffff" fill-rule="nonzero" stroke-linejoin="round" d="M 245.703599 538.614441 L 69.882367 554.106676 L 42.914005 546.106907 L 48.807236 478.90885 L 94.509048 490.693876 Z M 245.703599 538.614441 " stroke="#000000" stroke-width="3" stroke-opacity="1" stroke-miterlimit="10"/><path stroke-linecap="round" transform="matrix(0.100088, 0, 0, 0.100101, 15.954808, 30.850023)" fill-opacity="1" fill="#ffffff" fill-rule="nonzero" stroke-linejoin="round" d="M 94.704188 466.69457 L 94.509048 490.693876 L 48.807236 478.90885 L 48.807236 464.509267 L 54.583383 455.807079 Z M 94.704188 466.69457 " stroke="#000000" stroke-width="3" stroke-opacity="1" stroke-miterlimit="10"/><path stroke-linecap="round" transform="matrix(0.100088, 0, 0, 0.100101, 15.954808, 30.850023)" fill-opacity="1" fill="#686868" fill-rule="nonzero" stroke-linejoin="round" d="M 92.596675 456.314382 L 54.583383 455.69001 L 66.213733 326.015711 C 74.995038 369.487624 83.81537 412.881492 92.596675 456.314382 Z M 92.596675 456.314382 " stroke="#000000" stroke-width="3" stroke-opacity="1" stroke-miterlimit="10"/><path stroke-linecap="round" transform="matrix(0.100088, 0, 0, 0.100101, 15.954808, 30.850023)" fill-opacity="1" fill="#848484" fill-rule="nonzero" stroke-linejoin="round" d="M 94.704188 466.69457 L 54.583383 455.807079 L 92.596675 456.392428 C 93.299179 459.787452 94.001684 463.182476 94.704188 466.69457 Z M 94.704188 466.69457 " stroke="#000000" stroke-width="3" stroke-opacity="1" stroke-miterlimit="10"/><path stroke-linecap="round" transform="matrix(0.100088, 0, 0, 0.100101, 15.954808, 30.850023)" fill-opacity="1" fill="#ffffff" fill-rule="nonzero" stroke-linejoin="round" d="M 327.896609 405.506095 C 282.116741 385.994464 236.180762 366.599903 190.400894 347.088272 C 153.285247 331.283851 116.208627 315.5965 79.210064 299.792079 L 83.503146 291.089892 L 259.48049 363.204879 Z M 327.896609 405.506095 " stroke="#000000" stroke-width="3" stroke-opacity="1" stroke-miterlimit="10"/><path stroke-linecap="round" transform="matrix(0.100088, 0, 0, 0.100101, 15.954808, 30.850023)" fill-opacity="1" fill="#686868" fill-rule="nonzero" stroke-linejoin="round" d="M 190.400894 347.010226 L 66.213733 326.015711 L 79.09298 299.792079 C 116.208627 315.518453 153.285247 331.283851 190.400894 347.010226 Z M 190.400894 347.010226 " stroke="#000000" stroke-width="3" stroke-opacity="1" stroke-miterlimit="10"/><path stroke-linecap="round" transform="matrix(0.100088, 0, 0, 0.100101, 15.954808, 30.850023)" fill-opacity="1" fill="#686868" fill-rule="nonzero" stroke-linejoin="round" d="M 478.115459 386.501767 L 402.20596 465.211686 L 320.598369 440.509961 L 410.987264 421.505632 L 435.809085 414.208282 Z M 478.115459 386.501767 " stroke="#000000" stroke-width="3" stroke-opacity="1" stroke-miterlimit="10"/><path stroke-linecap="round" transform="matrix(0.100088, 0, 0, 0.100101, 15.954808, 30.850023)" fill-opacity="1" fill="#a3a3a3" fill-rule="nonzero" stroke-linejoin="round" d="M 478.115459 386.501767 L 435.809085 414.208282 L 435.809085 355.712413 Z M 478.115459 386.501767 " stroke="#000000" stroke-width="3" stroke-opacity="1" stroke-miterlimit="10"/><path stroke-linecap="round" transform="matrix(0.100088, 0, 0, 0.100101, 15.954808, 30.850023)" fill-opacity="1" fill="#b8b9bd" fill-rule="nonzero" stroke-linejoin="round" d="M 498.488086 425.915261 L 402.20596 465.211686 L 478.115459 386.501767 Z M 498.488086 425.915261 " stroke="#000000" stroke-width="3" stroke-opacity="1" stroke-miterlimit="10"/><path stroke-linecap="round" transform="matrix(0.100088, 0, 0, 0.100101, 15.954808, 30.850023)" fill-opacity="1" fill="#ffffff" fill-rule="nonzero" stroke-linejoin="round" d="M 816.293255 554.106676 L 632.588364 573.111004 L 642.306341 535.219417 Z M 816.293255 554.106676 " stroke="#000000" stroke-width="3" stroke-opacity="1" stroke-miterlimit="10"/><g clip-path="url(#201f0481e7)"><path fill="#bac1d3" d="M 52.855469 88.65625 L 51.765625 90.628906 L 34.839844 89.75 L 22.289062 87.996094 L 22.949219 86.316406 L 34.332031 87.488281 Z M 52.855469 88.65625 " fill-opacity="1" fill-rule="nonzero"/></g><g clip-path="url(#0afd560831)"><path stroke-linecap="round" transform="matrix(0.100088, 0, 0, 0.100101, 15.954808, 30.850023)" fill="none" stroke-linejoin="round" d="M 368.68089 577.48161 L 357.792073 597.188357 L 188.683661 588.408123 L 63.286632 570.886678 L 69.882367 554.106676 L 183.610018 565.813654 Z M 368.68089 577.48161 " stroke="#000000" stroke-width="3" stroke-opacity="1" stroke-miterlimit="10"/></g><g clip-path="url(#102745e884)"><path fill="#a4abba" d="M 22.949219 86.316406 L 22.289062 87.996094 L 19.957031 86.828125 L 20.25 85.515625 Z M 22.949219 86.316406 " fill-opacity="1" fill-rule="nonzero"/></g><g clip-path="url(#21a7609c30)"><path stroke-linecap="round" transform="matrix(0.100088, 0, 0, 0.100101, 15.954808, 30.850023)" fill="none" stroke-linejoin="round" d="M 69.882367 554.106676 L 63.286632 570.886678 L 39.986904 559.218723 L 42.914005 546.106907 Z M 69.882367 554.106676 " stroke="#000000" stroke-width="3" stroke-opacity="1" stroke-miterlimit="10"/></g><g clip-path="url(#628a88a643)"><path stroke-linecap="round" transform="matrix(0.100088, 0, 0, 0.100101, 15.954808, 30.850023)" fill-opacity="1" fill="#a4abba" fill-rule="nonzero" stroke-linejoin="round" d="M 830.109174 576.818214 L 634.500737 597.188357 L 357.792073 597.188357 L 368.68089 577.48161 L 632.588364 573.111004 Z M 830.109174 576.818214 " stroke="#000000" stroke-width="3" stroke-opacity="1" stroke-miterlimit="10"/></g><path fill="#bac1d3" d="M 114.941406 81.722656 L 112.898438 84.492188 L 112.390625 82.089844 L 114.792969 79.96875 Z M 114.941406 81.722656 " fill-opacity="1" fill-rule="nonzero"/><g clip-path="url(#f01c5450a5)"><path stroke-linecap="round" transform="matrix(0.100088, 0, 0, 0.100101, 15.954808, 30.850023)" fill="none" stroke-linejoin="round" d="M 988.992245 508.21532 L 968.58059 535.882813 L 963.506947 511.883507 L 987.50918 490.693876 Z M 988.992245 508.21532 " stroke="#000000" stroke-width="3" stroke-opacity="1" stroke-miterlimit="10"/></g><path stroke-linecap="round" transform="matrix(0.100088, 0, 0, 0.100101, 15.954808, 30.850023)" fill-opacity="1" fill="#ffffff" fill-rule="nonzero" stroke-linejoin="round" d="M 987.50918 490.693876 L 963.506947 511.883507 L 938.685127 495.805923 L 981.694005 481.991688 Z M 987.50918 490.693876 " stroke="#000000" stroke-width="3" stroke-opacity="1" stroke-miterlimit="10"/><path stroke-linecap="round" transform="matrix(0.100088, 0, 0, 0.100101, 15.954808, 30.850023)" fill-opacity="1" fill="#ffffff" fill-rule="nonzero" stroke-linejoin="round" d="M 981.694005 481.991688 L 938.685127 495.805923 L 964.911956 465.211686 L 965.692517 457.211917 L 980.21094 467.396988 Z M 981.694005 481.991688 " stroke="#000000" stroke-width="3" stroke-opacity="1" stroke-miterlimit="10"/><path stroke-linecap="round" transform="matrix(0.100088, 0, 0, 0.100101, 15.954808, 30.850023)" fill-opacity="1" fill="#848484" fill-rule="nonzero" stroke-linejoin="round" d="M 290.000402 459.39722 L 92.596675 456.314382 C 83.81537 412.881492 74.995038 369.487624 66.213733 326.015711 L 263.383292 414.715585 Z M 290.000402 459.39722 " stroke="#000000" stroke-width="3" stroke-opacity="1" stroke-miterlimit="10"/><path stroke-linecap="round" transform="matrix(0.100088, 0, 0, 0.100101, 15.954808, 30.850023)" fill-opacity="1" fill="#848484" fill-rule="nonzero" stroke-linejoin="round" d="M 410.987264 421.505632 L 320.598369 440.509961 L 190.400894 347.010226 C 236.180762 366.482833 282.116741 385.994464 327.896609 405.389025 C 355.606504 410.813259 383.316398 416.081399 410.987264 421.505632 Z M 410.987264 421.505632 " stroke="#000000" stroke-width="3" stroke-opacity="1" stroke-miterlimit="10"/><path stroke-linecap="round" transform="matrix(0.100088, 0, 0, 0.100101, 15.954808, 30.850023)" fill-opacity="1" fill="#ffffff" fill-rule="nonzero" stroke-linejoin="round" d="M 368.68089 577.48161 L 183.610018 565.813654 L 69.882367 554.106676 L 245.703599 538.614441 Z M 368.68089 577.48161 " stroke="#000000" stroke-width="3" stroke-opacity="1" stroke-miterlimit="10"/><path stroke-linecap="round" transform="matrix(0.100088, 0, 0, 0.100101, 15.954808, 30.850023)" fill-opacity="1" fill="#ffffff" fill-rule="nonzero" stroke-linejoin="round" d="M 642.306341 535.219417 L 632.588364 573.111004 L 368.68089 577.48161 L 245.703599 538.614441 L 481.003533 517.697973 Z M 642.306341 535.219417 " stroke="#000000" stroke-width="3" stroke-opacity="1" stroke-miterlimit="10"/><path stroke-linecap="round" transform="matrix(0.100088, 0, 0, 0.100101, 15.954808, 30.850023)" fill-opacity="1" fill="#ffffff" fill-rule="nonzero" stroke-linejoin="round" d="M 734.685665 385.409115 L 400.800951 223.189416 L 439.399663 197.707226 Z M 734.685665 385.409115 " stroke="#000000" stroke-width="3" stroke-opacity="1" stroke-miterlimit="10"/><path stroke-linecap="round" transform="matrix(0.100088, 0, 0, 0.100101, 15.954808, 30.850023)" fill-opacity="1" fill="#ffffff" fill-rule="nonzero" stroke-linejoin="round" d="M 410.987264 421.505632 C 383.316398 416.081399 355.606504 410.813259 327.896609 405.506095 L 259.402434 363.204879 L 318.685996 360.980553 Z M 410.987264 421.505632 " stroke="#000000" stroke-width="3" stroke-opacity="1" stroke-miterlimit="10"/><path stroke-linecap="round" transform="matrix(0.100088, 0, 0, 0.100101, 15.954808, 30.850023)" fill-opacity="1" fill="#b8b9bd" fill-rule="nonzero" stroke-linejoin="round" d="M 292.888475 483.981874 L 94.704188 466.69457 C 94.001684 463.182476 93.299179 459.787452 92.596675 456.314382 L 290.000402 459.39722 Z M 292.888475 483.981874 " stroke="#000000" stroke-width="3" stroke-opacity="1" stroke-miterlimit="10"/><path stroke-linecap="round" transform="matrix(0.100088, 0, 0, 0.100101, 15.954808, 30.850023)" fill-opacity="1" fill="#b8b9bd" fill-rule="nonzero" stroke-linejoin="round" d="M 320.598369 440.509961 L 290.000402 459.39722 L 263.500376 414.715585 Z M 320.598369 440.509961 " stroke="#000000" stroke-width="3" stroke-opacity="1" stroke-miterlimit="10"/><path stroke-linecap="round" transform="matrix(0.100088, 0, 0, 0.100101, 15.954808, 30.850023)" fill-opacity="1" fill="#a3a3a3" fill-rule="nonzero" stroke-linejoin="round" d="M 320.598369 440.509961 L 263.500376 414.715585 L 66.213733 326.015711 L 190.400894 347.010226 Z M 320.598369 440.509961 " stroke="#000000" stroke-width="3" stroke-opacity="1" stroke-miterlimit="10"/><path stroke-linecap="round" transform="matrix(0.100088, 0, 0, 0.100101, 15.954808, 30.850023)" fill-opacity="1" fill="#848484" fill-rule="nonzero" stroke-linejoin="round" d="M 498.488086 425.915261 L 492.594855 454.987591 L 466.407053 471.104198 L 402.20596 465.211686 Z M 498.488086 425.915261 " stroke="#000000" stroke-width="3" stroke-opacity="1" stroke-miterlimit="10"/><path stroke-linecap="round" transform="matrix(0.100088, 0, 0, 0.100101, 15.954808, 30.850023)" fill-opacity="1" fill="#ffffff" fill-rule="nonzero" stroke-linejoin="round" d="M 918.3125 419.983725 L 781.285121 438.988054 L 761.888195 427.593261 L 845.798438 406.40363 Z M 918.3125 419.983725 " stroke="#000000" stroke-width="3" stroke-opacity="1" stroke-miterlimit="10"/><path stroke-linecap="round" transform="matrix(0.100088, 0, 0, 0.100101, 15.954808, 30.850023)" fill-opacity="1" fill="#ffffff" fill-rule="nonzero" stroke-linejoin="round" d="M 845.798438 406.40363 L 761.888195 427.593261 L 731.680507 409.798654 L 734.685665 385.409115 Z M 845.798438 406.40363 " stroke="#000000" stroke-width="3" stroke-opacity="1" stroke-miterlimit="10"/><path stroke-linecap="round" transform="matrix(0.100088, 0, 0, 0.100101, 15.954808, 30.850023)" fill-opacity="1" fill="#848484" fill-rule="nonzero" stroke-linejoin="round" d="M 662.483827 383.809162 L 584.505843 382.092138 L 548.014644 370.502229 L 479.48144 315.089198 Z M 662.483827 383.809162 " stroke="#000000" stroke-width="3" stroke-opacity="1" stroke-miterlimit="10"/><path stroke-linecap="round" transform="matrix(0.100088, 0, 0, 0.100101, 15.954808, 30.850023)" fill-opacity="1" fill="#b8b9bd" fill-rule="nonzero" stroke-linejoin="round" d="M 717.084027 438.988054 L 720.011129 462.284941 L 584.505843 382.092138 L 662.483827 383.809162 L 731.680507 409.798654 Z M 717.084027 438.988054 " stroke="#000000" stroke-width="3" stroke-opacity="1" stroke-miterlimit="10"/><path stroke-linecap="round" transform="matrix(0.100088, 0, 0, 0.100101, 15.954808, 30.850023)" fill-opacity="1" fill="#ffffff" fill-rule="nonzero" stroke-linejoin="round" d="M 781.285121 438.988054 L 763.800568 450.616986 L 745.691566 471.104198 L 720.011129 462.284941 L 717.084027 438.988054 L 761.888195 427.593261 Z M 781.285121 438.988054 " stroke="#000000" stroke-width="3" stroke-opacity="1" stroke-miterlimit="10"/><path stroke-linecap="round" transform="matrix(0.100088, 0, 0, 0.100101, 15.954808, 30.850023)" fill-opacity="1" fill="#ffffff" fill-rule="nonzero" stroke-linejoin="round" d="M 761.888195 427.593261 L 717.084027 438.988054 L 731.680507 409.798654 Z M 761.888195 427.593261 " stroke="#000000" stroke-width="3" stroke-opacity="1" stroke-miterlimit="10"/><path stroke-linecap="round" transform="matrix(0.100088, 0, 0, 0.100101, 15.954808, 30.850023)" fill-opacity="1" fill="#ffffff" fill-rule="nonzero" stroke-linejoin="round" d="M 795.803544 516.215089 L 645.701778 522.107601 L 632.588364 505.990994 L 792.915471 498.810714 Z M 795.803544 516.215089 " stroke="#000000" stroke-width="3" stroke-opacity="1" stroke-miterlimit="10"/><path stroke-linecap="round" transform="matrix(0.100088, 0, 0, 0.100101, 15.954808, 30.850023)" fill-opacity="1" fill="#848484" fill-rule="nonzero" stroke-linejoin="round" d="M 918.3125 419.983725 L 792.915471 498.810714 L 763.800568 450.616986 L 781.285121 438.988054 Z M 918.3125 419.983725 " stroke="#000000" stroke-width="3" stroke-opacity="1" stroke-miterlimit="10"/><path stroke-linecap="round" transform="matrix(0.100088, 0, 0, 0.100101, 15.954808, 30.850023)" fill-opacity="1" fill="#b8b9bd" fill-rule="nonzero" stroke-linejoin="round" d="M 964.911956 465.211686 L 935.797053 475.396757 L 792.915471 498.810714 L 918.3125 419.983725 L 925.61074 414.208282 Z M 964.911956 465.211686 " stroke="#000000" stroke-width="3" stroke-opacity="1" stroke-miterlimit="10"/><path stroke-linecap="round" transform="matrix(0.100088, 0, 0, 0.100101, 15.954808, 30.850023)" fill-opacity="1" fill="#ffffff" fill-rule="nonzero" stroke-linejoin="round" d="M 964.911956 465.211686 L 938.685127 495.805923 L 795.803544 516.215089 L 792.915471 498.810714 L 935.797053 475.396757 Z M 964.911956 465.211686 " stroke="#000000" stroke-width="3" stroke-opacity="1" stroke-miterlimit="10"/><path stroke-linecap="round" transform="matrix(0.100088, 0, 0, 0.100101, 15.954808, 30.850023)" fill-opacity="1" fill="#ffffff" fill-rule="nonzero" stroke-linejoin="round" d="M 963.506947 511.883507 L 816.293255 554.106676 L 642.306341 535.219417 L 645.701778 522.107601 L 795.803544 516.215089 L 938.685127 495.805923 Z M 963.506947 511.883507 " stroke="#000000" stroke-width="3" stroke-opacity="1" stroke-miterlimit="10"/><path stroke-linecap="round" transform="matrix(0.100088, 0, 0, 0.100101, 15.954808, 30.850023)" fill-opacity="1" fill="#848484" fill-rule="nonzero" stroke-linejoin="round" d="M 720.011129 462.284941 L 684.183406 472.704152 L 588.994065 449.914567 L 584.505843 382.092138 Z M 720.011129 462.284941 " stroke="#000000" stroke-width="3" stroke-opacity="1" stroke-miterlimit="10"/><path stroke-linecap="round" transform="matrix(0.100088, 0, 0, 0.100101, 15.954808, 30.850023)" fill-opacity="1" fill="#686868" fill-rule="nonzero" stroke-linejoin="round" d="M 792.915471 498.810714 L 684.183406 472.704152 L 720.011129 462.284941 L 745.691566 471.104198 L 763.800568 450.616986 Z M 792.915471 498.810714 " stroke="#000000" stroke-width="3" stroke-opacity="1" stroke-miterlimit="10"/><path stroke-linecap="round" transform="matrix(0.100088, 0, 0, 0.100101, 15.954808, 30.850023)" fill-opacity="1" fill="#ffffff" fill-rule="nonzero" stroke-linejoin="round" d="M 645.701778 522.107601 L 642.306341 535.219417 L 481.003533 517.697973 Z M 645.701778 522.107601 " stroke="#000000" stroke-width="3" stroke-opacity="1" stroke-miterlimit="10"/><path stroke-linecap="round" transform="matrix(0.100088, 0, 0, 0.100101, 15.954808, 30.850023)" fill-opacity="1" fill="#ffffff" fill-rule="nonzero" stroke-linejoin="round" d="M 588.994065 449.914567 L 578.495527 503.493505 L 492.594855 454.987591 Z M 588.994065 449.914567 " stroke="#000000" stroke-width="3" stroke-opacity="1" stroke-miterlimit="10"/><path stroke-linecap="round" transform="matrix(0.100088, 0, 0, 0.100101, 15.954808, 30.850023)" fill-opacity="1" fill="#ffffff" fill-rule="nonzero" stroke-linejoin="round" d="M 684.183406 472.704152 L 578.495527 503.493505 L 588.994065 449.914567 Z M 684.183406 472.704152 " stroke="#000000" stroke-width="3" stroke-opacity="1" stroke-miterlimit="10"/><path stroke-linecap="round" transform="matrix(0.100088, 0, 0, 0.100101, 15.954808, 30.850023)" fill-opacity="1" fill="#ffffff" fill-rule="nonzero" stroke-linejoin="round" d="M 578.495527 503.493505 L 466.407053 471.104198 L 492.594855 454.987591 Z M 578.495527 503.493505 " stroke="#000000" stroke-width="3" stroke-opacity="1" stroke-miterlimit="10"/><path stroke-linecap="round" transform="matrix(0.100088, 0, 0, 0.100101, 15.954808, 30.850023)" fill-opacity="1" fill="#ffffff" fill-rule="nonzero" stroke-linejoin="round" d="M 792.915471 498.810714 L 632.588364 505.990994 L 479.48144 500.215551 L 292.888475 483.981874 L 466.407053 471.104198 L 578.495527 503.493505 L 684.183406 472.704152 Z M 792.915471 498.810714 " stroke="#000000" stroke-width="3" stroke-opacity="1" stroke-miterlimit="10"/><path stroke-linecap="round" transform="matrix(0.100088, 0, 0, 0.100101, 15.954808, 30.850023)" fill-opacity="1" fill="#ffffff" fill-rule="nonzero" stroke-linejoin="round" d="M 645.701778 522.107601 L 481.003533 517.697973 L 94.509048 490.693876 L 94.704188 466.69457 L 292.888475 483.981874 L 479.48144 500.215551 L 632.588364 505.990994 Z M 645.701778 522.107601 " stroke="#000000" stroke-width="3" stroke-opacity="1" stroke-miterlimit="10"/><path stroke-linecap="round" transform="matrix(0.100088, 0, 0, 0.100101, 15.954808, 30.850023)" fill-opacity="1" fill="#ffffff" fill-rule="nonzero" stroke-linejoin="round" d="M 481.003533 517.697973 L 245.703599 538.614441 L 94.509048 490.693876 Z M 481.003533 517.697973 " stroke="#000000" stroke-width="3" stroke-opacity="1" stroke-miterlimit="10"/><path stroke-linecap="round" transform="matrix(0.100088, 0, 0, 0.100101, 15.954808, 30.850023)" fill-opacity="1" fill="#ffffff" fill-rule="nonzero" stroke-linejoin="round" d="M 287.814832 253.081235 L 255.811856 270.602679 L 281.999657 213.78481 Z M 287.814832 253.081235 " stroke="#000000" stroke-width="3" stroke-opacity="1" stroke-miterlimit="10"/><path stroke-linecap="round" transform="matrix(0.100088, 0, 0, 0.100101, 15.954808, 30.850023)" fill-opacity="1" fill="#686868" fill-rule="nonzero" stroke-linejoin="round" d="M 422.695671 309.196685 L 318.685996 360.980553 L 328.794254 303.499289 Z M 422.695671 309.196685 " stroke="#000000" stroke-width="3" stroke-opacity="1" stroke-miterlimit="10"/><path stroke-linecap="round" transform="matrix(0.100088, 0, 0, 0.100101, 15.954808, 30.850023)" fill-opacity="1" fill="#ffffff" fill-rule="nonzero" stroke-linejoin="round" d="M 422.695671 309.196685 L 410.987264 421.505632 L 318.685996 360.980553 Z M 422.695671 309.196685 " stroke="#000000" stroke-width="3" stroke-opacity="1" stroke-miterlimit="10"/><path stroke-linecap="round" transform="matrix(0.100088, 0, 0, 0.100101, 15.954808, 30.850023)" fill-opacity="1" fill="#ffffff" fill-rule="nonzero" stroke-linejoin="round" d="M 479.48144 315.089198 L 435.809085 355.712413 L 435.809085 414.208282 L 410.987264 421.505632 L 422.695671 309.196685 Z M 479.48144 315.089198 " stroke="#000000" stroke-width="3" stroke-opacity="1" stroke-miterlimit="10"/><path stroke-linecap="round" transform="matrix(0.100088, 0, 0, 0.100101, 15.954808, 30.850023)" fill-opacity="1" fill="#ffffff" fill-rule="nonzero" stroke-linejoin="round" d="M 548.014644 370.502229 L 478.115459 386.501767 L 435.809085 355.712413 L 479.48144 315.089198 Z M 548.014644 370.502229 " stroke="#000000" stroke-width="3" stroke-opacity="1" stroke-miterlimit="10"/><path stroke-linecap="round" transform="matrix(0.100088, 0, 0, 0.100101, 15.954808, 30.850023)" fill-opacity="1" fill="#686868" fill-rule="nonzero" stroke-linejoin="round" d="M 588.994065 449.914567 L 548.014644 370.502229 L 584.505843 382.092138 Z M 588.994065 449.914567 " stroke="#000000" stroke-width="3" stroke-opacity="1" stroke-miterlimit="10"/><path stroke-linecap="round" transform="matrix(0.100088, 0, 0, 0.100101, 15.954808, 30.850023)" fill-opacity="1" fill="#ffffff" fill-rule="nonzero" stroke-linejoin="round" d="M 492.594855 454.987591 L 498.488086 425.915261 L 478.115459 386.501767 L 548.014644 370.502229 L 588.994065 449.914567 Z M 492.594855 454.987591 " stroke="#000000" stroke-width="3" stroke-opacity="1" stroke-miterlimit="10"/><path stroke-linecap="round" transform="matrix(0.100088, 0, 0, 0.100101, 15.954808, 30.850023)" fill-opacity="1" fill="#ffffff" fill-rule="nonzero" stroke-linejoin="round" d="M 466.407053 471.104198 L 292.888475 483.981874 L 290.000402 459.39722 L 320.598369 440.509961 L 402.20596 465.211686 Z M 466.407053 471.104198 " stroke="#000000" stroke-width="3" stroke-opacity="1" stroke-miterlimit="10"/><g fill="#ffffff" fill-opacity="1"><g transform="translate(26.152996, 48.234062)"><g><path d="M -4.296875 -3.09375 C -4.421875 -3.1875 -4.5 -3.3125 -4.53125 -3.46875 C -4.5625 -3.632812 -4.535156 -3.78125 -4.453125 -3.90625 L -2.375 -7.078125 C -2.289062 -7.203125 -2.164062 -7.28125 -2 -7.3125 C -1.832031 -7.351562 -1.6875 -7.328125 -1.5625 -7.234375 C -1.414062 -7.148438 -1.328125 -7.023438 -1.296875 -6.859375 C -1.273438 -6.703125 -1.304688 -6.5625 -1.390625 -6.4375 L -2.078125 -5.390625 L 1.34375 -3.140625 C 1.488281 -3.046875 1.582031 -2.910156 1.625 -2.734375 C 1.664062 -2.554688 1.632812 -2.390625 1.53125 -2.234375 C 1.4375 -2.085938 1.300781 -2 1.125 -1.96875 C 0.945312 -1.9375 0.785156 -1.96875 0.640625 -2.0625 L -2.78125 -4.3125 L -3.46875 -3.265625 C -3.550781 -3.140625 -3.671875 -3.054688 -3.828125 -3.015625 C -3.992188 -2.984375 -4.148438 -3.007812 -4.296875 -3.09375 Z M -4.296875 -3.09375 "/></g></g></g><g fill="#ffffff" fill-opacity="1"><g transform="translate(29.896808, 42.704764)"><g><path d="M -0.625 -1.84375 C -0.570312 -1.90625 -0.515625 -1.945312 -0.453125 -1.96875 C -0.398438 -2 -0.347656 -2.019531 -0.296875 -2.03125 C -0.0234375 -2.09375 0.222656 -2.179688 0.453125 -2.296875 C 0.679688 -2.421875 0.890625 -2.585938 1.078125 -2.796875 C 1.253906 -2.992188 1.359375 -3.179688 1.390625 -3.359375 C 1.429688 -3.535156 1.382812 -3.6875 1.25 -3.8125 C 1.1875 -3.875 1.117188 -3.914062 1.046875 -3.9375 C 0.972656 -3.957031 0.882812 -3.953125 0.78125 -3.921875 C 0.675781 -3.898438 0.550781 -3.847656 0.40625 -3.765625 C 0.269531 -3.679688 0.0976562 -3.566406 -0.109375 -3.421875 C -0.359375 -3.253906 -0.597656 -3.109375 -0.828125 -2.984375 C -1.054688 -2.867188 -1.273438 -2.789062 -1.484375 -2.75 C -1.691406 -2.71875 -1.898438 -2.726562 -2.109375 -2.78125 C -2.316406 -2.84375 -2.53125 -2.972656 -2.75 -3.171875 L -2.765625 -3.1875 C -2.960938 -3.363281 -3.101562 -3.5625 -3.1875 -3.78125 C -3.28125 -4.007812 -3.328125 -4.242188 -3.328125 -4.484375 C -3.328125 -4.722656 -3.273438 -4.960938 -3.171875 -5.203125 C -3.066406 -5.441406 -2.910156 -5.675781 -2.703125 -5.90625 C -2.234375 -6.425781 -1.691406 -6.769531 -1.078125 -6.9375 C -0.992188 -6.96875 -0.898438 -6.976562 -0.796875 -6.96875 C -0.703125 -6.957031 -0.609375 -6.90625 -0.515625 -6.8125 C -0.390625 -6.707031 -0.316406 -6.570312 -0.296875 -6.40625 C -0.285156 -6.238281 -0.335938 -6.09375 -0.453125 -5.96875 C -0.535156 -5.875 -0.632812 -5.816406 -0.75 -5.796875 C -1.226562 -5.648438 -1.597656 -5.429688 -1.859375 -5.140625 C -2.023438 -4.953125 -2.113281 -4.773438 -2.125 -4.609375 C -2.132812 -4.453125 -2.085938 -4.328125 -1.984375 -4.234375 L -1.96875 -4.21875 C -1.894531 -4.15625 -1.820312 -4.113281 -1.75 -4.09375 C -1.675781 -4.070312 -1.585938 -4.078125 -1.484375 -4.109375 C -1.378906 -4.148438 -1.253906 -4.210938 -1.109375 -4.296875 C -0.960938 -4.378906 -0.78125 -4.492188 -0.5625 -4.640625 C -0.300781 -4.804688 -0.0546875 -4.945312 0.171875 -5.0625 C 0.398438 -5.175781 0.617188 -5.242188 0.828125 -5.265625 C 1.035156 -5.285156 1.234375 -5.265625 1.421875 -5.203125 C 1.617188 -5.140625 1.816406 -5.023438 2.015625 -4.859375 L 2.015625 -4.84375 C 2.234375 -4.644531 2.390625 -4.429688 2.484375 -4.203125 C 2.578125 -3.972656 2.617188 -3.738281 2.609375 -3.5 C 2.609375 -3.257812 2.546875 -3.015625 2.421875 -2.765625 C 2.296875 -2.515625 2.128906 -2.269531 1.921875 -2.03125 C 1.671875 -1.75 1.375 -1.503906 1.03125 -1.296875 C 0.695312 -1.085938 0.328125 -0.941406 -0.078125 -0.859375 C -0.160156 -0.835938 -0.242188 -0.835938 -0.328125 -0.859375 C -0.421875 -0.878906 -0.507812 -0.921875 -0.59375 -0.984375 C -0.71875 -1.097656 -0.78125 -1.238281 -0.78125 -1.40625 C -0.789062 -1.582031 -0.738281 -1.726562 -0.625 -1.84375 Z M -0.625 -1.84375 "/></g></g></g><g fill="#ffffff" fill-opacity="1"><g transform="translate(34.193277, 37.800638)"><g><path d="M -2.984375 -4.390625 C -3.097656 -4.523438 -3.132812 -4.679688 -3.09375 -4.859375 C -3.0625 -5.035156 -2.96875 -5.179688 -2.8125 -5.296875 C -2.695312 -5.378906 -2.566406 -5.421875 -2.421875 -5.421875 C -2.285156 -5.421875 -2.164062 -5.382812 -2.0625 -5.3125 L 1.0625 -3.15625 L -0.15625 -6.6875 C -0.207031 -6.84375 -0.21875 -6.988281 -0.1875 -7.125 C -0.164062 -7.269531 -0.0859375 -7.390625 0.046875 -7.484375 L 0.125 -7.546875 C 0.257812 -7.648438 0.394531 -7.695312 0.53125 -7.6875 C 0.675781 -7.675781 0.816406 -7.625 0.953125 -7.53125 L 4.046875 -5.421875 L 2.796875 -9 C 2.753906 -9.125 2.75 -9.253906 2.78125 -9.390625 C 2.8125 -9.523438 2.894531 -9.640625 3.03125 -9.734375 C 3.164062 -9.847656 3.3125 -9.894531 3.46875 -9.875 C 3.632812 -9.851562 3.773438 -9.769531 3.890625 -9.625 C 3.910156 -9.59375 3.929688 -9.554688 3.953125 -9.515625 C 3.972656 -9.472656 3.988281 -9.429688 4 -9.390625 L 5.484375 -4.71875 C 5.546875 -4.5625 5.554688 -4.40625 5.515625 -4.25 C 5.484375 -4.101562 5.40625 -3.984375 5.28125 -3.890625 L 5.171875 -3.8125 C 5.046875 -3.71875 4.910156 -3.675781 4.765625 -3.6875 C 4.617188 -3.695312 4.472656 -3.742188 4.328125 -3.828125 L 1.375 -5.8125 L 2.484375 -2.4375 C 2.535156 -2.269531 2.546875 -2.113281 2.515625 -1.96875 C 2.484375 -1.820312 2.40625 -1.703125 2.28125 -1.609375 L 2.171875 -1.53125 C 2.046875 -1.4375 1.910156 -1.394531 1.765625 -1.40625 C 1.617188 -1.414062 1.46875 -1.460938 1.3125 -1.546875 L -2.796875 -4.21875 C -2.828125 -4.238281 -2.859375 -4.265625 -2.890625 -4.296875 C -2.929688 -4.328125 -2.960938 -4.359375 -2.984375 -4.390625 Z M -2.984375 -4.390625 "/></g></g></g><g fill="#ffffff" fill-opacity="1"><g transform="translate(42.692024, 31.790452)"><g/></g></g><g fill="#ffffff" fill-opacity="1"><g transform="translate(46.058296, 29.958877)"><g><path d="M -1.203125 -5.140625 C -1.265625 -5.304688 -1.257812 -5.46875 -1.1875 -5.625 C -1.125 -5.789062 -1.007812 -5.90625 -0.84375 -5.96875 L 1.078125 -6.6875 C 1.367188 -6.800781 1.648438 -6.867188 1.921875 -6.890625 C 2.203125 -6.921875 2.460938 -6.894531 2.703125 -6.8125 C 2.953125 -6.726562 3.171875 -6.59375 3.359375 -6.40625 C 3.554688 -6.226562 3.710938 -5.984375 3.828125 -5.671875 L 3.84375 -5.671875 C 4.007812 -5.222656 4.046875 -4.820312 3.953125 -4.46875 C 3.859375 -4.125 3.671875 -3.820312 3.390625 -3.5625 L 4.609375 -2.890625 C 4.691406 -2.828125 4.765625 -2.765625 4.828125 -2.703125 C 4.890625 -2.648438 4.941406 -2.578125 4.984375 -2.484375 C 5.046875 -2.316406 5.035156 -2.160156 4.953125 -2.015625 C 4.867188 -1.867188 4.753906 -1.765625 4.609375 -1.703125 C 4.472656 -1.648438 4.347656 -1.632812 4.234375 -1.65625 C 4.117188 -1.675781 4.007812 -1.722656 3.90625 -1.796875 L 2.15625 -2.828125 L 1.203125 -2.46875 L 1.65625 -1.28125 C 1.726562 -1.113281 1.722656 -0.945312 1.640625 -0.78125 C 1.566406 -0.613281 1.441406 -0.5 1.265625 -0.4375 C 1.097656 -0.375 0.9375 -0.378906 0.78125 -0.453125 C 0.625 -0.523438 0.507812 -0.644531 0.4375 -0.8125 Z M 0.203125 -5.109375 L 0.796875 -3.53125 L 2.015625 -4 C 2.304688 -4.101562 2.503906 -4.253906 2.609375 -4.453125 C 2.722656 -4.660156 2.734375 -4.882812 2.640625 -5.125 L 2.640625 -5.15625 C 2.535156 -5.414062 2.375 -5.578125 2.15625 -5.640625 C 1.945312 -5.703125 1.691406 -5.675781 1.390625 -5.5625 Z M 0.203125 -5.109375 "/></g></g></g><g fill="#ffffff" fill-opacity="1"><g transform="translate(52.900426, 27.471777)"><g><path d="M 0.5625 -0.765625 L -0.375 -5.265625 C -0.414062 -5.441406 -0.382812 -5.601562 -0.28125 -5.75 C -0.1875 -5.894531 -0.0546875 -5.988281 0.109375 -6.03125 L 3.3125 -6.6875 C 3.457031 -6.71875 3.597656 -6.691406 3.734375 -6.609375 C 3.878906 -6.523438 3.96875 -6.40625 4 -6.25 C 4.03125 -6.082031 4 -5.929688 3.90625 -5.796875 C 3.8125 -5.671875 3.691406 -5.59375 3.546875 -5.5625 L 0.96875 -5.03125 L 1.21875 -3.859375 L 3.421875 -4.3125 C 3.578125 -4.34375 3.722656 -4.316406 3.859375 -4.234375 C 3.992188 -4.160156 4.078125 -4.039062 4.109375 -3.875 C 4.148438 -3.707031 4.125 -3.5625 4.03125 -3.4375 C 3.9375 -3.3125 3.8125 -3.234375 3.65625 -3.203125 L 1.453125 -2.75 L 1.703125 -1.53125 L 4.3125 -2.078125 C 4.46875 -2.109375 4.613281 -2.078125 4.75 -1.984375 C 4.882812 -1.898438 4.96875 -1.78125 5 -1.625 C 5.039062 -1.46875 5.015625 -1.320312 4.921875 -1.1875 C 4.828125 -1.0625 4.703125 -0.984375 4.546875 -0.953125 L 1.3125 -0.28125 C 1.144531 -0.238281 0.984375 -0.265625 0.828125 -0.359375 C 0.679688 -0.453125 0.59375 -0.585938 0.5625 -0.765625 Z M 0.5625 -0.765625 "/></g></g></g><g fill="#ffffff" fill-opacity="1"><g transform="translate(59.625785, 26.170086)"><g><path d="M 0.4375 -5.265625 C 0.425781 -5.441406 0.476562 -5.597656 0.59375 -5.734375 C 0.71875 -5.867188 0.867188 -5.9375 1.046875 -5.9375 L 2.8125 -6.03125 C 3.164062 -6.050781 3.484375 -6.019531 3.765625 -5.9375 C 4.046875 -5.851562 4.285156 -5.722656 4.484375 -5.546875 C 4.691406 -5.378906 4.851562 -5.171875 4.96875 -4.921875 C 5.082031 -4.679688 5.144531 -4.410156 5.15625 -4.109375 L 5.171875 -4.09375 C 5.179688 -3.75 5.128906 -3.445312 5.015625 -3.1875 C 4.910156 -2.925781 4.753906 -2.703125 4.546875 -2.515625 C 4.335938 -2.328125 4.085938 -2.179688 3.796875 -2.078125 C 3.515625 -1.984375 3.210938 -1.929688 2.890625 -1.921875 L 1.90625 -1.875 L 1.96875 -0.703125 C 1.976562 -0.523438 1.921875 -0.367188 1.796875 -0.234375 C 1.679688 -0.0976562 1.53125 -0.0234375 1.34375 -0.015625 C 1.164062 -0.015625 1.007812 -0.0703125 0.875 -0.1875 C 0.75 -0.300781 0.679688 -0.445312 0.671875 -0.625 Z M 1.859375 -3.015625 L 2.875 -3.0625 C 3.195312 -3.070312 3.441406 -3.164062 3.609375 -3.34375 C 3.785156 -3.53125 3.867188 -3.75 3.859375 -4 L 3.859375 -4.015625 C 3.835938 -4.304688 3.726562 -4.519531 3.53125 -4.65625 C 3.34375 -4.800781 3.085938 -4.867188 2.765625 -4.859375 L 1.765625 -4.8125 Z M 1.859375 -3.015625 "/></g></g></g><g fill="#ffffff" fill-opacity="1"><g transform="translate(66.544764, 25.991754)"><g/></g></g><g fill="#ffffff" fill-opacity="1"><g transform="translate(70.386633, 26.257803)"><g><path d="M 1.265625 -1.5 C 1.347656 -1.476562 1.414062 -1.445312 1.46875 -1.40625 C 1.519531 -1.375 1.554688 -1.335938 1.578125 -1.296875 C 1.773438 -1.097656 1.984375 -0.929688 2.203125 -0.796875 C 2.429688 -0.660156 2.6875 -0.566406 2.96875 -0.515625 C 3.226562 -0.460938 3.441406 -0.46875 3.609375 -0.53125 C 3.773438 -0.59375 3.875 -0.710938 3.90625 -0.890625 L 3.921875 -0.90625 C 3.929688 -0.988281 3.925781 -1.066406 3.90625 -1.140625 C 3.894531 -1.210938 3.847656 -1.285156 3.765625 -1.359375 C 3.691406 -1.429688 3.585938 -1.503906 3.453125 -1.578125 C 3.316406 -1.660156 3.128906 -1.753906 2.890625 -1.859375 C 2.609375 -1.992188 2.351562 -2.125 2.125 -2.25 C 1.90625 -2.382812 1.726562 -2.53125 1.59375 -2.6875 C 1.457031 -2.84375 1.359375 -3.03125 1.296875 -3.25 C 1.242188 -3.46875 1.242188 -3.71875 1.296875 -4 L 1.296875 -4.015625 C 1.347656 -4.285156 1.445312 -4.515625 1.59375 -4.703125 C 1.738281 -4.890625 1.914062 -5.039062 2.125 -5.15625 C 2.332031 -5.269531 2.566406 -5.34375 2.828125 -5.375 C 3.097656 -5.414062 3.378906 -5.410156 3.671875 -5.359375 C 4.367188 -5.222656 4.945312 -4.9375 5.40625 -4.5 C 5.46875 -4.445312 5.519531 -4.375 5.5625 -4.28125 C 5.601562 -4.1875 5.609375 -4.070312 5.578125 -3.9375 C 5.546875 -3.78125 5.460938 -3.65625 5.328125 -3.5625 C 5.191406 -3.46875 5.039062 -3.4375 4.875 -3.46875 C 4.75 -3.488281 4.648438 -3.539062 4.578125 -3.625 C 4.203125 -3.957031 3.820312 -4.160156 3.4375 -4.234375 C 3.1875 -4.273438 2.988281 -4.257812 2.84375 -4.1875 C 2.707031 -4.125 2.628906 -4.019531 2.609375 -3.875 L 2.609375 -3.859375 C 2.585938 -3.765625 2.585938 -3.679688 2.609375 -3.609375 C 2.628906 -3.535156 2.679688 -3.460938 2.765625 -3.390625 C 2.847656 -3.328125 2.960938 -3.25 3.109375 -3.15625 C 3.265625 -3.070312 3.457031 -2.976562 3.6875 -2.875 C 3.96875 -2.726562 4.210938 -2.585938 4.421875 -2.453125 C 4.628906 -2.316406 4.796875 -2.164062 4.921875 -2 C 5.054688 -1.832031 5.144531 -1.648438 5.1875 -1.453125 C 5.238281 -1.265625 5.238281 -1.039062 5.1875 -0.78125 L 5.1875 -0.765625 C 5.132812 -0.484375 5.035156 -0.238281 4.890625 -0.03125 C 4.742188 0.164062 4.5625 0.320312 4.34375 0.4375 C 4.125 0.550781 3.875 0.617188 3.59375 0.640625 C 3.320312 0.671875 3.035156 0.660156 2.734375 0.609375 C 2.347656 0.535156 1.984375 0.40625 1.640625 0.21875 C 1.296875 0.03125 0.984375 -0.207031 0.703125 -0.5 C 0.628906 -0.5625 0.578125 -0.640625 0.546875 -0.734375 C 0.523438 -0.828125 0.523438 -0.925781 0.546875 -1.03125 C 0.578125 -1.1875 0.660156 -1.3125 0.796875 -1.40625 C 0.941406 -1.5 1.097656 -1.53125 1.265625 -1.5 Z M 1.265625 -1.5 "/></g></g></g><g fill="#ffffff" fill-opacity="1"><g transform="translate(76.857921, 27.585829)"><g><path d="M 0.875 -0.375 L 2.40625 -4.703125 C 2.46875 -4.867188 2.578125 -4.988281 2.734375 -5.0625 C 2.898438 -5.132812 3.066406 -5.140625 3.234375 -5.078125 L 6.3125 -3.984375 C 6.457031 -3.929688 6.566406 -3.832031 6.640625 -3.6875 C 6.710938 -3.550781 6.71875 -3.40625 6.65625 -3.25 C 6.601562 -3.09375 6.503906 -2.984375 6.359375 -2.921875 C 6.210938 -2.859375 6.066406 -2.851562 5.921875 -2.90625 L 3.453125 -3.78125 L 3.0625 -2.65625 L 5.171875 -1.90625 C 5.316406 -1.851562 5.425781 -1.753906 5.5 -1.609375 C 5.570312 -1.472656 5.578125 -1.328125 5.515625 -1.171875 C 5.460938 -1.015625 5.363281 -0.90625 5.21875 -0.84375 C 5.070312 -0.78125 4.925781 -0.773438 4.78125 -0.828125 L 2.671875 -1.578125 L 2.265625 -0.421875 L 4.765625 0.453125 C 4.921875 0.515625 5.03125 0.617188 5.09375 0.765625 C 5.164062 0.910156 5.175781 1.054688 5.125 1.203125 C 5.070312 1.359375 4.972656 1.46875 4.828125 1.53125 C 4.679688 1.601562 4.53125 1.609375 4.375 1.546875 L 1.265625 0.453125 C 1.097656 0.390625 0.972656 0.273438 0.890625 0.109375 C 0.816406 -0.046875 0.8125 -0.207031 0.875 -0.375 Z M 0.875 -0.375 "/></g></g></g><g fill="#ffffff" fill-opacity="1"><g transform="translate(83.274393, 29.949569)"><g><path d="M 3.125 -4.25 C 3.207031 -4.40625 3.332031 -4.507812 3.5 -4.5625 C 3.675781 -4.613281 3.835938 -4.597656 3.984375 -4.515625 L 5.78125 -3.53125 C 6.0625 -3.375 6.300781 -3.195312 6.5 -3 C 6.695312 -2.8125 6.84375 -2.597656 6.9375 -2.359375 C 7.039062 -2.117188 7.082031 -1.863281 7.0625 -1.59375 C 7.050781 -1.332031 6.96875 -1.054688 6.8125 -0.765625 L 6.796875 -0.75 C 6.578125 -0.34375 6.300781 -0.0625 5.96875 0.09375 C 5.644531 0.25 5.289062 0.304688 4.90625 0.265625 L 5.171875 1.640625 C 5.179688 1.742188 5.1875 1.835938 5.1875 1.921875 C 5.195312 2.003906 5.175781 2.085938 5.125 2.171875 C 5.039062 2.328125 4.914062 2.421875 4.75 2.453125 C 4.59375 2.492188 4.441406 2.476562 4.296875 2.40625 C 4.171875 2.332031 4.078125 2.242188 4.015625 2.140625 C 3.953125 2.035156 3.910156 1.921875 3.890625 1.796875 L 3.5625 -0.1875 L 2.65625 -0.6875 L 2.03125 0.4375 C 1.945312 0.59375 1.820312 0.695312 1.65625 0.75 C 1.488281 0.800781 1.320312 0.78125 1.15625 0.6875 C 1.007812 0.601562 0.90625 0.476562 0.84375 0.3125 C 0.789062 0.144531 0.804688 -0.015625 0.890625 -0.171875 Z M 4 -3.171875 L 3.203125 -1.6875 L 4.359375 -1.046875 C 4.628906 -0.898438 4.875 -0.851562 5.09375 -0.90625 C 5.320312 -0.957031 5.492188 -1.09375 5.609375 -1.3125 L 5.625 -1.34375 C 5.757812 -1.582031 5.78125 -1.800781 5.6875 -2 C 5.59375 -2.207031 5.40625 -2.390625 5.125 -2.546875 Z M 4 -3.171875 "/></g></g></g><g fill="#ffffff" fill-opacity="1"><g transform="translate(89.603029, 33.522834)"><g><path d="M 4.390625 -4.078125 C 4.523438 -3.972656 4.601562 -3.851562 4.625 -3.71875 C 4.65625 -3.582031 4.65625 -3.445312 4.625 -3.3125 L 3.4375 0.578125 L 6.984375 -1.546875 C 7.078125 -1.597656 7.191406 -1.617188 7.328125 -1.609375 C 7.472656 -1.609375 7.609375 -1.5625 7.734375 -1.46875 C 7.867188 -1.351562 7.945312 -1.210938 7.96875 -1.046875 C 8 -0.890625 7.957031 -0.738281 7.84375 -0.59375 C 7.820312 -0.5625 7.785156 -0.523438 7.734375 -0.484375 C 7.679688 -0.453125 7.640625 -0.429688 7.609375 -0.421875 L 3.265625 2.03125 C 2.941406 2.207031 2.644531 2.191406 2.375 1.984375 L 2.296875 1.921875 C 2.023438 1.710938 1.945312 1.429688 2.0625 1.078125 L 3.359375 -3.671875 C 3.367188 -3.734375 3.382812 -3.785156 3.40625 -3.828125 C 3.425781 -3.878906 3.453125 -3.925781 3.484375 -3.96875 C 3.597656 -4.101562 3.742188 -4.179688 3.921875 -4.203125 C 4.097656 -4.222656 4.253906 -4.179688 4.390625 -4.078125 Z M 4.390625 -4.078125 "/></g></g></g><g fill="#ffffff" fill-opacity="1"><g transform="translate(95.279779, 38.119966)"><g><path d="M 0.953125 0.078125 L 4.328125 -3.046875 C 4.453125 -3.160156 4.601562 -3.210938 4.78125 -3.203125 C 4.957031 -3.191406 5.101562 -3.125 5.21875 -3 L 7.4375 -0.59375 C 7.550781 -0.476562 7.601562 -0.335938 7.59375 -0.171875 C 7.582031 -0.015625 7.519531 0.113281 7.40625 0.21875 C 7.28125 0.332031 7.140625 0.382812 6.984375 0.375 C 6.835938 0.363281 6.707031 0.300781 6.59375 0.1875 L 4.8125 -1.75 L 3.9375 -0.9375 L 5.46875 0.71875 C 5.570312 0.832031 5.617188 0.96875 5.609375 1.125 C 5.609375 1.28125 5.550781 1.414062 5.4375 1.53125 C 5.3125 1.644531 5.171875 1.691406 5.015625 1.671875 C 4.859375 1.660156 4.726562 1.597656 4.625 1.484375 L 3.09375 -0.171875 L 2.1875 0.671875 L 4 2.625 C 4.113281 2.75 4.164062 2.890625 4.15625 3.046875 C 4.15625 3.210938 4.097656 3.347656 3.984375 3.453125 C 3.859375 3.566406 3.71875 3.617188 3.5625 3.609375 C 3.40625 3.597656 3.269531 3.53125 3.15625 3.40625 L 0.90625 0.984375 C 0.789062 0.859375 0.738281 0.707031 0.75 0.53125 C 0.757812 0.351562 0.828125 0.203125 0.953125 0.078125 Z M 0.953125 0.078125 "/></g></g></g><g fill="#ffffff" fill-opacity="1"><g transform="translate(99.865498, 43.192144)"><g><path d="M 4.75 -2.328125 C 4.894531 -2.421875 5.050781 -2.445312 5.21875 -2.40625 C 5.394531 -2.375 5.535156 -2.28125 5.640625 -2.125 L 6.765625 -0.421875 C 6.941406 -0.160156 7.070312 0.0976562 7.15625 0.359375 C 7.238281 0.628906 7.269531 0.890625 7.25 1.140625 C 7.226562 1.398438 7.144531 1.644531 7 1.875 C 6.863281 2.101562 6.660156 2.304688 6.390625 2.484375 L 6.375 2.5 C 5.976562 2.757812 5.597656 2.878906 5.234375 2.859375 C 4.878906 2.847656 4.539062 2.734375 4.21875 2.515625 L 3.828125 3.859375 C 3.785156 3.953125 3.742188 4.035156 3.703125 4.109375 C 3.660156 4.179688 3.597656 4.25 3.515625 4.3125 C 3.367188 4.40625 3.21875 4.429688 3.0625 4.390625 C 2.90625 4.347656 2.785156 4.257812 2.703125 4.125 C 2.617188 4.007812 2.570312 3.890625 2.5625 3.765625 C 2.550781 3.648438 2.566406 3.53125 2.609375 3.40625 L 3.25 1.46875 L 2.671875 0.625 L 1.609375 1.34375 C 1.453125 1.4375 1.289062 1.46875 1.125 1.4375 C 0.957031 1.40625 0.820312 1.3125 0.71875 1.15625 C 0.613281 1 0.578125 0.832031 0.609375 0.65625 C 0.640625 0.476562 0.734375 0.34375 0.890625 0.25 Z M 5.03125 -0.9375 L 3.625 0 L 4.34375 1.078125 C 4.519531 1.335938 4.71875 1.5 4.9375 1.5625 C 5.15625 1.625 5.367188 1.585938 5.578125 1.453125 L 5.59375 1.4375 C 5.832031 1.28125 5.960938 1.085938 5.984375 0.859375 C 6.003906 0.640625 5.921875 0.394531 5.734375 0.125 Z M 5.03125 -0.9375 "/></g></g></g><g fill="#ffffff" fill-opacity="1"><g transform="translate(33.943795, 105.264973)"><g><path d="M 3.125 -3.390625 C 3.207031 -3.515625 3.320312 -3.59375 3.46875 -3.625 C 3.625 -3.65625 3.765625 -3.625 3.890625 -3.53125 C 4.023438 -3.4375 4.101562 -3.3125 4.125 -3.15625 C 4.15625 -3 4.128906 -2.859375 4.046875 -2.734375 L 3.0625 -1.34375 L 5.921875 -1.84375 C 6.015625 -1.863281 6.101562 -1.863281 6.1875 -1.84375 C 6.269531 -1.832031 6.351562 -1.800781 6.4375 -1.75 C 6.5625 -1.664062 6.632812 -1.550781 6.65625 -1.40625 C 6.675781 -1.269531 6.644531 -1.144531 6.5625 -1.03125 C 6.519531 -0.957031 6.460938 -0.898438 6.390625 -0.859375 C 6.316406 -0.828125 6.238281 -0.804688 6.15625 -0.796875 L 4.21875 -0.546875 L 4.359375 1.96875 C 4.378906 2.039062 4.378906 2.109375 4.359375 2.171875 C 4.347656 2.234375 4.316406 2.300781 4.265625 2.375 C 4.179688 2.5 4.0625 2.570312 3.90625 2.59375 C 3.757812 2.625 3.617188 2.59375 3.484375 2.5 C 3.390625 2.4375 3.332031 2.363281 3.3125 2.28125 C 3.289062 2.195312 3.273438 2.113281 3.265625 2.03125 L 3.15625 -0.375 L 2.296875 -0.25 L 1.71875 0.578125 C 1.625 0.703125 1.5 0.773438 1.34375 0.796875 C 1.195312 0.828125 1.054688 0.796875 0.921875 0.703125 C 0.796875 0.609375 0.71875 0.484375 0.6875 0.328125 C 0.664062 0.179688 0.703125 0.046875 0.796875 -0.078125 Z M 3.125 -3.390625 "/></g></g></g><g fill="#ffffff" fill-opacity="1"><g transform="translate(39.33866, 108.950622)"><g><path d="M 0.625 -0.484375 L 4.03125 -3.234375 C 4.144531 -3.335938 4.269531 -3.394531 4.40625 -3.40625 C 4.539062 -3.425781 4.675781 -3.398438 4.8125 -3.328125 L 4.875 -3.296875 C 5.007812 -3.234375 5.109375 -3.140625 5.171875 -3.015625 C 5.234375 -2.898438 5.257812 -2.757812 5.25 -2.59375 L 4.984375 1.765625 C 4.972656 1.878906 4.957031 1.957031 4.9375 2 C 4.863281 2.132812 4.753906 2.222656 4.609375 2.265625 C 4.472656 2.304688 4.34375 2.296875 4.21875 2.234375 C 4.09375 2.171875 4.007812 2.085938 3.96875 1.984375 C 3.925781 1.878906 3.910156 1.757812 3.921875 1.625 L 3.96875 0.765625 L 1.984375 -0.25 L 1.296875 0.3125 C 1.191406 0.394531 1.085938 0.441406 0.984375 0.453125 C 0.878906 0.472656 0.773438 0.457031 0.671875 0.40625 C 0.546875 0.34375 0.460938 0.238281 0.421875 0.09375 C 0.378906 -0.0390625 0.390625 -0.175781 0.453125 -0.3125 C 0.472656 -0.332031 0.492188 -0.359375 0.515625 -0.390625 C 0.546875 -0.421875 0.582031 -0.453125 0.625 -0.484375 Z M 2.796875 -0.9375 L 4.046875 -0.296875 L 4.203125 -2.125 Z M 2.796875 -0.9375 "/></g></g></g><g fill="#ffffff" fill-opacity="1"><g transform="translate(45.549501, 112.073904)"><g><path d="M 0.734375 -0.265625 L 2.0625 -4.109375 C 2.101562 -4.242188 2.191406 -4.347656 2.328125 -4.421875 C 2.472656 -4.492188 2.617188 -4.503906 2.765625 -4.453125 L 2.890625 -4.40625 C 2.992188 -4.375 3.078125 -4.316406 3.140625 -4.234375 C 3.203125 -4.160156 3.242188 -4.078125 3.265625 -3.984375 L 3.828125 -1.46875 L 5.828125 -3.09375 C 6.003906 -3.238281 6.195312 -3.273438 6.40625 -3.203125 L 6.515625 -3.15625 C 6.660156 -3.113281 6.765625 -3.019531 6.828125 -2.875 C 6.898438 -2.738281 6.914062 -2.601562 6.875 -2.46875 L 5.5625 1.359375 C 5.507812 1.503906 5.410156 1.609375 5.265625 1.671875 C 5.128906 1.742188 4.988281 1.757812 4.84375 1.71875 C 4.695312 1.664062 4.585938 1.566406 4.515625 1.421875 C 4.453125 1.285156 4.445312 1.144531 4.5 1 L 5.3125 -1.390625 L 3.921875 -0.296875 C 3.828125 -0.222656 3.738281 -0.175781 3.65625 -0.15625 C 3.570312 -0.132812 3.476562 -0.140625 3.375 -0.171875 C 3.28125 -0.203125 3.203125 -0.253906 3.140625 -0.328125 C 3.085938 -0.398438 3.050781 -0.492188 3.03125 -0.609375 L 2.59375 -2.328125 L 1.765625 0.078125 C 1.722656 0.222656 1.632812 0.328125 1.5 0.390625 C 1.363281 0.460938 1.222656 0.472656 1.078125 0.421875 C 0.929688 0.367188 0.828125 0.273438 0.765625 0.140625 C 0.703125 0.015625 0.691406 -0.117188 0.734375 -0.265625 Z M 0.734375 -0.265625 "/></g></g></g><g fill="#ffffff" fill-opacity="1"><g transform="translate(52.816354, 114.367627)"><g><path d="M 1.625 -4.3125 C 1.65625 -4.46875 1.734375 -4.582031 1.859375 -4.65625 C 1.992188 -4.738281 2.132812 -4.765625 2.28125 -4.734375 C 2.4375 -4.703125 2.554688 -4.625 2.640625 -4.5 C 2.722656 -4.375 2.75 -4.234375 2.71875 -4.078125 L 1.84375 -0.125 C 1.8125 0.0195312 1.726562 0.132812 1.59375 0.21875 C 1.46875 0.3125 1.328125 0.34375 1.171875 0.3125 C 1.023438 0.28125 0.910156 0.195312 0.828125 0.0625 C 0.742188 -0.0703125 0.71875 -0.210938 0.75 -0.359375 Z M 1.625 -4.3125 "/></g></g></g><g fill="#ffffff" fill-opacity="1"><g transform="translate(56.453301, 115.153605)"><g><path d="M 1.15625 -4.453125 C 1.175781 -4.609375 1.25 -4.734375 1.375 -4.828125 C 1.5 -4.929688 1.632812 -4.972656 1.78125 -4.953125 C 1.9375 -4.929688 2.0625 -4.859375 2.15625 -4.734375 C 2.25 -4.617188 2.285156 -4.484375 2.265625 -4.328125 L 1.84375 -0.8125 L 3.890625 -0.5625 C 4.035156 -0.539062 4.148438 -0.472656 4.234375 -0.359375 C 4.328125 -0.253906 4.363281 -0.132812 4.34375 0 C 4.320312 0.144531 4.253906 0.257812 4.140625 0.34375 C 4.035156 0.4375 3.910156 0.472656 3.765625 0.453125 L 1.15625 0.140625 C 1.007812 0.117188 0.890625 0.0507812 0.796875 -0.0625 C 0.703125 -0.1875 0.660156 -0.328125 0.671875 -0.484375 Z M 1.15625 -4.453125 "/></g></g></g><g fill="#ffffff" fill-opacity="1"><g transform="translate(62.191014, 115.736757)"><g><path d="M 0.953125 0.078125 L 0.953125 0.03125 C 0.804688 -0.0195312 0.6875 -0.0976562 0.59375 -0.203125 C 0.5 -0.304688 0.453125 -0.4375 0.453125 -0.59375 C 0.460938 -0.769531 0.523438 -0.910156 0.640625 -1.015625 C 0.753906 -1.128906 0.898438 -1.179688 1.078125 -1.171875 C 1.203125 -1.171875 1.304688 -1.144531 1.390625 -1.09375 C 1.472656 -1.039062 1.535156 -0.972656 1.578125 -0.890625 C 1.628906 -0.816406 1.660156 -0.726562 1.671875 -0.625 C 1.691406 -0.519531 1.703125 -0.414062 1.703125 -0.3125 C 1.691406 -0.132812 1.664062 0.046875 1.625 0.234375 C 1.59375 0.421875 1.53125 0.585938 1.4375 0.734375 C 1.351562 0.878906 1.242188 0.992188 1.109375 1.078125 C 0.972656 1.160156 0.800781 1.195312 0.59375 1.1875 C 0.507812 1.1875 0.441406 1.164062 0.390625 1.125 C 0.335938 1.082031 0.3125 1.023438 0.3125 0.953125 C 0.3125 0.859375 0.34375 0.789062 0.40625 0.75 C 0.476562 0.71875 0.550781 0.675781 0.625 0.625 C 0.707031 0.582031 0.78125 0.523438 0.84375 0.453125 C 0.90625 0.378906 0.941406 0.253906 0.953125 0.078125 Z M 0.953125 0.078125 "/></g></g></g><g fill="#ffffff" fill-opacity="1"><g transform="translate(65.576773, 115.877423)"><g><path d="M 2.671875 -5.40625 C 3.066406 -5.4375 3.429688 -5.394531 3.765625 -5.28125 C 4.109375 -5.175781 4.40625 -5.007812 4.65625 -4.78125 C 4.914062 -4.5625 5.125 -4.300781 5.28125 -4 C 5.445312 -3.695312 5.546875 -3.363281 5.578125 -3 L 5.578125 -2.984375 C 5.609375 -2.628906 5.566406 -2.285156 5.453125 -1.953125 C 5.347656 -1.628906 5.179688 -1.335938 4.953125 -1.078125 C 4.734375 -0.828125 4.460938 -0.617188 4.140625 -0.453125 C 3.816406 -0.285156 3.457031 -0.1875 3.0625 -0.15625 C 2.675781 -0.125 2.3125 -0.164062 1.96875 -0.28125 C 1.632812 -0.394531 1.335938 -0.554688 1.078125 -0.765625 C 0.828125 -0.984375 0.625 -1.242188 0.46875 -1.546875 C 0.3125 -1.859375 0.21875 -2.191406 0.1875 -2.546875 L 0.1875 -2.5625 C 0.15625 -2.925781 0.191406 -3.269531 0.296875 -3.59375 C 0.410156 -3.925781 0.578125 -4.222656 0.796875 -4.484375 C 1.023438 -4.742188 1.296875 -4.953125 1.609375 -5.109375 C 1.921875 -5.273438 2.273438 -5.375 2.671875 -5.40625 Z M 3 -1.1875 C 3.226562 -1.195312 3.429688 -1.25 3.609375 -1.34375 C 3.796875 -1.445312 3.945312 -1.578125 4.0625 -1.734375 C 4.1875 -1.890625 4.28125 -2.066406 4.34375 -2.265625 C 4.40625 -2.460938 4.425781 -2.664062 4.40625 -2.875 L 4.40625 -2.890625 C 4.382812 -3.109375 4.328125 -3.3125 4.234375 -3.5 C 4.140625 -3.6875 4.019531 -3.847656 3.875 -3.984375 C 3.726562 -4.117188 3.554688 -4.21875 3.359375 -4.28125 C 3.171875 -4.351562 2.960938 -4.382812 2.734375 -4.375 C 2.515625 -4.351562 2.3125 -4.289062 2.125 -4.1875 C 1.945312 -4.09375 1.796875 -3.96875 1.671875 -3.8125 C 1.554688 -3.65625 1.46875 -3.476562 1.40625 -3.28125 C 1.351562 -3.09375 1.335938 -2.890625 1.359375 -2.671875 L 1.359375 -2.65625 C 1.378906 -2.445312 1.429688 -2.25 1.515625 -2.0625 C 1.609375 -1.875 1.726562 -1.710938 1.875 -1.578125 C 2.019531 -1.441406 2.1875 -1.335938 2.375 -1.265625 C 2.570312 -1.191406 2.78125 -1.164062 3 -1.1875 Z M 3 -1.1875 "/></g></g></g><g fill="#ffffff" fill-opacity="1"><g transform="translate(73.075804, 115.137431)"><g><path d="M 0.5 -1.609375 C 0.570312 -1.628906 0.628906 -1.632812 0.671875 -1.625 C 0.722656 -1.613281 0.769531 -1.601562 0.8125 -1.59375 C 1.039062 -1.488281 1.265625 -1.421875 1.484375 -1.390625 C 1.710938 -1.359375 1.941406 -1.367188 2.171875 -1.421875 C 2.410156 -1.472656 2.582031 -1.550781 2.6875 -1.65625 C 2.789062 -1.757812 2.828125 -1.882812 2.796875 -2.03125 L 2.796875 -2.046875 C 2.773438 -2.117188 2.742188 -2.179688 2.703125 -2.234375 C 2.671875 -2.285156 2.613281 -2.328125 2.53125 -2.359375 C 2.457031 -2.390625 2.347656 -2.410156 2.203125 -2.421875 C 2.054688 -2.441406 1.878906 -2.457031 1.671875 -2.46875 C 1.398438 -2.476562 1.15625 -2.5 0.9375 -2.53125 C 0.71875 -2.5625 0.523438 -2.613281 0.359375 -2.6875 C 0.191406 -2.769531 0.0507812 -2.882812 -0.0625 -3.03125 C -0.175781 -3.175781 -0.257812 -3.375 -0.3125 -3.625 L -0.3125 -3.640625 C -0.363281 -3.859375 -0.367188 -4.066406 -0.328125 -4.265625 C -0.285156 -4.472656 -0.195312 -4.660156 -0.0625 -4.828125 C 0.0625 -4.992188 0.222656 -5.132812 0.421875 -5.25 C 0.617188 -5.363281 0.847656 -5.453125 1.109375 -5.515625 C 1.703125 -5.640625 2.253906 -5.609375 2.765625 -5.421875 C 2.828125 -5.398438 2.890625 -5.359375 2.953125 -5.296875 C 3.023438 -5.234375 3.078125 -5.148438 3.109375 -5.046875 C 3.140625 -4.898438 3.113281 -4.765625 3.03125 -4.640625 C 2.945312 -4.523438 2.835938 -4.453125 2.703125 -4.421875 C 2.597656 -4.398438 2.5 -4.40625 2.40625 -4.4375 C 2 -4.59375 1.628906 -4.632812 1.296875 -4.5625 C 1.078125 -4.507812 0.921875 -4.429688 0.828125 -4.328125 C 0.742188 -4.222656 0.71875 -4.109375 0.75 -3.984375 C 0.769531 -3.890625 0.800781 -3.816406 0.84375 -3.765625 C 0.894531 -3.710938 0.960938 -3.671875 1.046875 -3.640625 C 1.128906 -3.609375 1.242188 -3.582031 1.390625 -3.5625 C 1.546875 -3.550781 1.734375 -3.546875 1.953125 -3.546875 C 2.222656 -3.535156 2.460938 -3.507812 2.671875 -3.46875 C 2.890625 -3.425781 3.078125 -3.363281 3.234375 -3.28125 C 3.398438 -3.195312 3.535156 -3.082031 3.640625 -2.9375 C 3.742188 -2.789062 3.816406 -2.609375 3.859375 -2.390625 L 3.875 -2.375 C 3.925781 -2.125 3.925781 -1.894531 3.875 -1.6875 C 3.832031 -1.476562 3.742188 -1.289062 3.609375 -1.125 C 3.472656 -0.96875 3.300781 -0.828125 3.09375 -0.703125 C 2.882812 -0.585938 2.644531 -0.5 2.375 -0.4375 C 2.050781 -0.363281 1.71875 -0.34375 1.375 -0.375 C 1.039062 -0.414062 0.710938 -0.5 0.390625 -0.625 C 0.316406 -0.664062 0.253906 -0.71875 0.203125 -0.78125 C 0.148438 -0.84375 0.113281 -0.914062 0.09375 -1 C 0.0625 -1.132812 0.0820312 -1.257812 0.15625 -1.375 C 0.238281 -1.5 0.351562 -1.578125 0.5 -1.609375 Z M 0.5 -1.609375 "/></g></g></g><g fill="#ffffff" fill-opacity="1"><g transform="translate(78.913949, 113.794159)"><g><path d="M -0.9375 -4.5 C -0.988281 -4.644531 -0.976562 -4.785156 -0.90625 -4.921875 C -0.84375 -5.066406 -0.738281 -5.164062 -0.59375 -5.21875 C -0.445312 -5.269531 -0.300781 -5.257812 -0.15625 -5.1875 C -0.0195312 -5.125 0.0703125 -5.019531 0.125 -4.875 L 0.6875 -3.28125 L 1.9375 -5.890625 C 1.976562 -5.984375 2.03125 -6.054688 2.09375 -6.109375 C 2.15625 -6.171875 2.226562 -6.21875 2.3125 -6.25 C 2.457031 -6.300781 2.585938 -6.296875 2.703125 -6.234375 C 2.828125 -6.171875 2.914062 -6.070312 2.96875 -5.9375 C 2.988281 -5.863281 2.992188 -5.785156 2.984375 -5.703125 C 2.984375 -5.628906 2.960938 -5.554688 2.921875 -5.484375 L 2 -3.75 L 4.140625 -2.40625 C 4.203125 -2.375 4.253906 -2.332031 4.296875 -2.28125 C 4.347656 -2.238281 4.382812 -2.175781 4.40625 -2.09375 C 4.457031 -1.945312 4.453125 -1.804688 4.390625 -1.671875 C 4.328125 -1.535156 4.21875 -1.441406 4.0625 -1.390625 C 3.957031 -1.347656 3.863281 -1.34375 3.78125 -1.375 C 3.707031 -1.40625 3.625 -1.441406 3.53125 -1.484375 L 1.53125 -2.796875 L 1.125 -2.015625 L 1.46875 -1.0625 C 1.519531 -0.914062 1.507812 -0.769531 1.4375 -0.625 C 1.375 -0.488281 1.269531 -0.394531 1.125 -0.34375 C 0.976562 -0.289062 0.832031 -0.296875 0.6875 -0.359375 C 0.550781 -0.429688 0.457031 -0.539062 0.40625 -0.6875 Z M -0.9375 -4.5 "/></g></g></g><g fill="#ffffff" fill-opacity="1"><g transform="translate(85.046848, 111.54101)"><g><path d="M -0.03125 -0.796875 L -0.296875 -5.15625 C -0.296875 -5.3125 -0.265625 -5.445312 -0.203125 -5.5625 C -0.148438 -5.6875 -0.0507812 -5.78125 0.09375 -5.84375 L 0.140625 -5.875 C 0.273438 -5.945312 0.410156 -5.972656 0.546875 -5.953125 C 0.679688 -5.941406 0.804688 -5.890625 0.921875 -5.796875 L 4.328125 -3.03125 C 4.410156 -2.957031 4.457031 -2.898438 4.46875 -2.859375 C 4.539062 -2.722656 4.554688 -2.582031 4.515625 -2.4375 C 4.472656 -2.300781 4.382812 -2.195312 4.25 -2.125 C 4.132812 -2.070312 4.019531 -2.054688 3.90625 -2.078125 C 3.800781 -2.109375 3.703125 -2.164062 3.609375 -2.25 L 2.9375 -2.796875 L 0.953125 -1.765625 L 1.015625 -0.875 C 1.015625 -0.75 0.988281 -0.632812 0.9375 -0.53125 C 0.882812 -0.4375 0.804688 -0.363281 0.703125 -0.3125 C 0.578125 -0.238281 0.445312 -0.226562 0.3125 -0.28125 C 0.175781 -0.332031 0.078125 -0.425781 0.015625 -0.5625 C -0.00390625 -0.582031 -0.015625 -0.613281 -0.015625 -0.65625 C -0.0234375 -0.695312 -0.03125 -0.742188 -0.03125 -0.796875 Z M 0.859375 -2.828125 L 2.109375 -3.484375 L 0.703125 -4.65625 Z M 0.859375 -2.828125 "/></g></g></g><g fill="#ffffff" fill-opacity="1"><g transform="translate(91.159328, 108.282343)"><g><path d="M -2.09375 -4.0625 C -2.1875 -4.1875 -2.21875 -4.320312 -2.1875 -4.46875 C -2.15625 -4.613281 -2.078125 -4.734375 -1.953125 -4.828125 L -0.5 -5.84375 C -0.28125 -6 -0.0546875 -6.113281 0.171875 -6.1875 C 0.398438 -6.269531 0.625 -6.300781 0.84375 -6.28125 C 1.0625 -6.269531 1.269531 -6.207031 1.46875 -6.09375 C 1.675781 -5.988281 1.863281 -5.816406 2.03125 -5.578125 L 2.046875 -5.5625 C 2.273438 -5.226562 2.378906 -4.90625 2.359375 -4.59375 C 2.347656 -4.289062 2.257812 -4 2.09375 -3.71875 L 3.265625 -3.390625 C 3.347656 -3.359375 3.421875 -3.328125 3.484375 -3.296875 C 3.554688 -3.265625 3.617188 -3.210938 3.671875 -3.140625 C 3.753906 -3.003906 3.773438 -2.867188 3.734375 -2.734375 C 3.703125 -2.597656 3.632812 -2.488281 3.53125 -2.40625 C 3.425781 -2.34375 3.316406 -2.304688 3.203125 -2.296875 C 3.097656 -2.296875 3 -2.304688 2.90625 -2.328125 L 1.21875 -2.828125 L 0.484375 -2.328125 L 1.125 -1.421875 C 1.21875 -1.296875 1.25 -1.15625 1.21875 -1 C 1.195312 -0.851562 1.117188 -0.734375 0.984375 -0.640625 C 0.859375 -0.546875 0.71875 -0.507812 0.5625 -0.53125 C 0.414062 -0.5625 0.296875 -0.640625 0.203125 -0.765625 Z M -0.921875 -4.34375 L -0.078125 -3.140625 L 0.84375 -3.78125 C 1.070312 -3.9375 1.207031 -4.109375 1.25 -4.296875 C 1.289062 -4.492188 1.253906 -4.679688 1.140625 -4.859375 L 1.125 -4.859375 C 0.988281 -5.066406 0.816406 -5.175781 0.609375 -5.1875 C 0.410156 -5.195312 0.203125 -5.125 -0.015625 -4.96875 Z M -0.921875 -4.34375 "/></g></g></g></svg>